<?xml version="1.0" encoding="utf-8" standalone="no"?>
<!DOCTYPE svg PUBLIC "-//W3C//DTD SVG 1.1//EN"
  "http://www.w3.org/Graphics/SVG/1.1/DTD/svg11.dtd">
<!-- Created with matplotlib (https://matplotlib.org/) -->
<svg height="248.518125pt" version="1.1" viewBox="0 0 377.304688 248.518125" width="377.304688pt" xmlns="http://www.w3.org/2000/svg" xmlns:xlink="http://www.w3.org/1999/xlink">
 <metadata>
  <rdf:RDF xmlns:cc="http://creativecommons.org/ns#" xmlns:dc="http://purl.org/dc/elements/1.1/" xmlns:rdf="http://www.w3.org/1999/02/22-rdf-syntax-ns#">
   <cc:Work>
    <dc:type rdf:resource="http://purl.org/dc/dcmitype/StillImage"/>
    <dc:date>2021-03-18T14:54:38.972951</dc:date>
    <dc:format>image/svg+xml</dc:format>
    <dc:creator>
     <cc:Agent>
      <dc:title>Matplotlib v3.3.4, https://matplotlib.org/</dc:title>
     </cc:Agent>
    </dc:creator>
   </cc:Work>
  </rdf:RDF>
 </metadata>
 <defs>
  <style type="text/css">*{stroke-linecap:butt;stroke-linejoin:round;}</style>
 </defs>
 <g id="figure_1">
  <g id="patch_1">
   <path d="M 0 248.518125 
L 377.304688 248.518125 
L 377.304688 0 
L 0 0 
z
" style="fill:none;"/>
  </g>
  <g id="axes_1">
   <g id="patch_2">
    <path d="M 35.304688 224.64 
L 370.104688 224.64 
L 370.104688 7.2 
L 35.304688 7.2 
z
" style="fill:#ffffff;"/>
   </g>
   <g id="matplotlib.axis_1">
    <g id="xtick_1">
     <g id="line2d_1">
      <defs>
       <path d="M 0 0 
L 0 3.5 
" id="mf23c0d9dda" style="stroke:#000000;stroke-width:0.8;"/>
      </defs>
      <g>
       <use style="stroke:#000000;stroke-width:0.8;" x="50.522869" xlink:href="#mf23c0d9dda" y="224.64"/>
      </g>
     </g>
     <g id="text_1">
      <!-- 0 -->
      <g transform="translate(47.341619 239.238437)scale(0.1 -0.1)">
       <defs>
        <path d="M 31.78125 66.40625 
Q 24.171875 66.40625 20.328125 58.90625 
Q 16.5 51.421875 16.5 36.375 
Q 16.5 21.390625 20.328125 13.890625 
Q 24.171875 6.390625 31.78125 6.390625 
Q 39.453125 6.390625 43.28125 13.890625 
Q 47.125 21.390625 47.125 36.375 
Q 47.125 51.421875 43.28125 58.90625 
Q 39.453125 66.40625 31.78125 66.40625 
z
M 31.78125 74.21875 
Q 44.046875 74.21875 50.515625 64.515625 
Q 56.984375 54.828125 56.984375 36.375 
Q 56.984375 17.96875 50.515625 8.265625 
Q 44.046875 -1.421875 31.78125 -1.421875 
Q 19.53125 -1.421875 13.0625 8.265625 
Q 6.59375 17.96875 6.59375 36.375 
Q 6.59375 54.828125 13.0625 64.515625 
Q 19.53125 74.21875 31.78125 74.21875 
z
" id="DejaVuSans-48"/>
       </defs>
       <use xlink:href="#DejaVuSans-48"/>
      </g>
     </g>
    </g>
    <g id="xtick_2">
     <g id="line2d_2">
      <g>
       <use style="stroke:#000000;stroke-width:0.8;" x="88.587356" xlink:href="#mf23c0d9dda" y="224.64"/>
      </g>
     </g>
     <g id="text_2">
      <!-- 250 -->
      <g transform="translate(79.043606 239.238437)scale(0.1 -0.1)">
       <defs>
        <path d="M 19.1875 8.296875 
L 53.609375 8.296875 
L 53.609375 0 
L 7.328125 0 
L 7.328125 8.296875 
Q 12.9375 14.109375 22.625 23.890625 
Q 32.328125 33.6875 34.8125 36.53125 
Q 39.546875 41.84375 41.421875 45.53125 
Q 43.3125 49.21875 43.3125 52.78125 
Q 43.3125 58.59375 39.234375 62.25 
Q 35.15625 65.921875 28.609375 65.921875 
Q 23.96875 65.921875 18.8125 64.3125 
Q 13.671875 62.703125 7.8125 59.421875 
L 7.8125 69.390625 
Q 13.765625 71.78125 18.9375 73 
Q 24.125 74.21875 28.421875 74.21875 
Q 39.75 74.21875 46.484375 68.546875 
Q 53.21875 62.890625 53.21875 53.421875 
Q 53.21875 48.921875 51.53125 44.890625 
Q 49.859375 40.875 45.40625 35.40625 
Q 44.1875 33.984375 37.640625 27.21875 
Q 31.109375 20.453125 19.1875 8.296875 
z
" id="DejaVuSans-50"/>
        <path d="M 10.796875 72.90625 
L 49.515625 72.90625 
L 49.515625 64.59375 
L 19.828125 64.59375 
L 19.828125 46.734375 
Q 21.96875 47.46875 24.109375 47.828125 
Q 26.265625 48.1875 28.421875 48.1875 
Q 40.625 48.1875 47.75 41.5 
Q 54.890625 34.8125 54.890625 23.390625 
Q 54.890625 11.625 47.5625 5.09375 
Q 40.234375 -1.421875 26.90625 -1.421875 
Q 22.3125 -1.421875 17.546875 -0.640625 
Q 12.796875 0.140625 7.71875 1.703125 
L 7.71875 11.625 
Q 12.109375 9.234375 16.796875 8.0625 
Q 21.484375 6.890625 26.703125 6.890625 
Q 35.15625 6.890625 40.078125 11.328125 
Q 45.015625 15.765625 45.015625 23.390625 
Q 45.015625 31 40.078125 35.4375 
Q 35.15625 39.890625 26.703125 39.890625 
Q 22.75 39.890625 18.8125 39.015625 
Q 14.890625 38.140625 10.796875 36.28125 
z
" id="DejaVuSans-53"/>
       </defs>
       <use xlink:href="#DejaVuSans-50"/>
       <use x="63.623047" xlink:href="#DejaVuSans-53"/>
       <use x="127.246094" xlink:href="#DejaVuSans-48"/>
      </g>
     </g>
    </g>
    <g id="xtick_3">
     <g id="line2d_3">
      <g>
       <use style="stroke:#000000;stroke-width:0.8;" x="126.651843" xlink:href="#mf23c0d9dda" y="224.64"/>
      </g>
     </g>
     <g id="text_3">
      <!-- 500 -->
      <g transform="translate(117.108093 239.238437)scale(0.1 -0.1)">
       <use xlink:href="#DejaVuSans-53"/>
       <use x="63.623047" xlink:href="#DejaVuSans-48"/>
       <use x="127.246094" xlink:href="#DejaVuSans-48"/>
      </g>
     </g>
    </g>
    <g id="xtick_4">
     <g id="line2d_4">
      <g>
       <use style="stroke:#000000;stroke-width:0.8;" x="164.71633" xlink:href="#mf23c0d9dda" y="224.64"/>
      </g>
     </g>
     <g id="text_4">
      <!-- 750 -->
      <g transform="translate(155.17258 239.238437)scale(0.1 -0.1)">
       <defs>
        <path d="M 8.203125 72.90625 
L 55.078125 72.90625 
L 55.078125 68.703125 
L 28.609375 0 
L 18.3125 0 
L 43.21875 64.59375 
L 8.203125 64.59375 
z
" id="DejaVuSans-55"/>
       </defs>
       <use xlink:href="#DejaVuSans-55"/>
       <use x="63.623047" xlink:href="#DejaVuSans-53"/>
       <use x="127.246094" xlink:href="#DejaVuSans-48"/>
      </g>
     </g>
    </g>
    <g id="xtick_5">
     <g id="line2d_5">
      <g>
       <use style="stroke:#000000;stroke-width:0.8;" x="202.780816" xlink:href="#mf23c0d9dda" y="224.64"/>
      </g>
     </g>
     <g id="text_5">
      <!-- 1000 -->
      <g transform="translate(190.055816 239.238437)scale(0.1 -0.1)">
       <defs>
        <path d="M 12.40625 8.296875 
L 28.515625 8.296875 
L 28.515625 63.921875 
L 10.984375 60.40625 
L 10.984375 69.390625 
L 28.421875 72.90625 
L 38.28125 72.90625 
L 38.28125 8.296875 
L 54.390625 8.296875 
L 54.390625 0 
L 12.40625 0 
z
" id="DejaVuSans-49"/>
       </defs>
       <use xlink:href="#DejaVuSans-49"/>
       <use x="63.623047" xlink:href="#DejaVuSans-48"/>
       <use x="127.246094" xlink:href="#DejaVuSans-48"/>
       <use x="190.869141" xlink:href="#DejaVuSans-48"/>
      </g>
     </g>
    </g>
    <g id="xtick_6">
     <g id="line2d_6">
      <g>
       <use style="stroke:#000000;stroke-width:0.8;" x="240.845303" xlink:href="#mf23c0d9dda" y="224.64"/>
      </g>
     </g>
     <g id="text_6">
      <!-- 1250 -->
      <g transform="translate(228.120303 239.238437)scale(0.1 -0.1)">
       <use xlink:href="#DejaVuSans-49"/>
       <use x="63.623047" xlink:href="#DejaVuSans-50"/>
       <use x="127.246094" xlink:href="#DejaVuSans-53"/>
       <use x="190.869141" xlink:href="#DejaVuSans-48"/>
      </g>
     </g>
    </g>
    <g id="xtick_7">
     <g id="line2d_7">
      <g>
       <use style="stroke:#000000;stroke-width:0.8;" x="278.90979" xlink:href="#mf23c0d9dda" y="224.64"/>
      </g>
     </g>
     <g id="text_7">
      <!-- 1500 -->
      <g transform="translate(266.18479 239.238437)scale(0.1 -0.1)">
       <use xlink:href="#DejaVuSans-49"/>
       <use x="63.623047" xlink:href="#DejaVuSans-53"/>
       <use x="127.246094" xlink:href="#DejaVuSans-48"/>
       <use x="190.869141" xlink:href="#DejaVuSans-48"/>
      </g>
     </g>
    </g>
    <g id="xtick_8">
     <g id="line2d_8">
      <g>
       <use style="stroke:#000000;stroke-width:0.8;" x="316.974277" xlink:href="#mf23c0d9dda" y="224.64"/>
      </g>
     </g>
     <g id="text_8">
      <!-- 1750 -->
      <g transform="translate(304.249277 239.238437)scale(0.1 -0.1)">
       <use xlink:href="#DejaVuSans-49"/>
       <use x="63.623047" xlink:href="#DejaVuSans-55"/>
       <use x="127.246094" xlink:href="#DejaVuSans-53"/>
       <use x="190.869141" xlink:href="#DejaVuSans-48"/>
      </g>
     </g>
    </g>
    <g id="xtick_9">
     <g id="line2d_9">
      <g>
       <use style="stroke:#000000;stroke-width:0.8;" x="355.038764" xlink:href="#mf23c0d9dda" y="224.64"/>
      </g>
     </g>
     <g id="text_9">
      <!-- 2000 -->
      <g transform="translate(342.313764 239.238437)scale(0.1 -0.1)">
       <use xlink:href="#DejaVuSans-50"/>
       <use x="63.623047" xlink:href="#DejaVuSans-48"/>
       <use x="127.246094" xlink:href="#DejaVuSans-48"/>
       <use x="190.869141" xlink:href="#DejaVuSans-48"/>
      </g>
     </g>
    </g>
   </g>
   <g id="matplotlib.axis_2">
    <g id="ytick_1">
     <g id="line2d_10">
      <defs>
       <path d="M 0 0 
L -3.5 0 
" id="m8a04f1cb5a" style="stroke:#000000;stroke-width:0.8;"/>
      </defs>
      <g>
       <use style="stroke:#000000;stroke-width:0.8;" x="35.304688" xlink:href="#m8a04f1cb5a" y="189.616676"/>
      </g>
     </g>
     <g id="text_10">
      <!-- −40 -->
      <g transform="translate(7.2 193.415895)scale(0.1 -0.1)">
       <defs>
        <path d="M 10.59375 35.5 
L 73.1875 35.5 
L 73.1875 27.203125 
L 10.59375 27.203125 
z
" id="DejaVuSans-8722"/>
        <path d="M 37.796875 64.3125 
L 12.890625 25.390625 
L 37.796875 25.390625 
z
M 35.203125 72.90625 
L 47.609375 72.90625 
L 47.609375 25.390625 
L 58.015625 25.390625 
L 58.015625 17.1875 
L 47.609375 17.1875 
L 47.609375 0 
L 37.796875 0 
L 37.796875 17.1875 
L 4.890625 17.1875 
L 4.890625 26.703125 
z
" id="DejaVuSans-52"/>
       </defs>
       <use xlink:href="#DejaVuSans-8722"/>
       <use x="83.789062" xlink:href="#DejaVuSans-52"/>
       <use x="147.412109" xlink:href="#DejaVuSans-48"/>
      </g>
     </g>
    </g>
    <g id="ytick_2">
     <g id="line2d_11">
      <g>
       <use style="stroke:#000000;stroke-width:0.8;" x="35.304688" xlink:href="#m8a04f1cb5a" y="152.768338"/>
      </g>
     </g>
     <g id="text_11">
      <!-- −20 -->
      <g transform="translate(7.2 156.567557)scale(0.1 -0.1)">
       <use xlink:href="#DejaVuSans-8722"/>
       <use x="83.789062" xlink:href="#DejaVuSans-50"/>
       <use x="147.412109" xlink:href="#DejaVuSans-48"/>
      </g>
     </g>
    </g>
    <g id="ytick_3">
     <g id="line2d_12">
      <g>
       <use style="stroke:#000000;stroke-width:0.8;" x="35.304688" xlink:href="#m8a04f1cb5a" y="115.92"/>
      </g>
     </g>
     <g id="text_12">
      <!-- 0 -->
      <g transform="translate(21.942188 119.719219)scale(0.1 -0.1)">
       <use xlink:href="#DejaVuSans-48"/>
      </g>
     </g>
    </g>
    <g id="ytick_4">
     <g id="line2d_13">
      <g>
       <use style="stroke:#000000;stroke-width:0.8;" x="35.304688" xlink:href="#m8a04f1cb5a" y="79.071662"/>
      </g>
     </g>
     <g id="text_13">
      <!-- 20 -->
      <g transform="translate(15.579688 82.870881)scale(0.1 -0.1)">
       <use xlink:href="#DejaVuSans-50"/>
       <use x="63.623047" xlink:href="#DejaVuSans-48"/>
      </g>
     </g>
    </g>
    <g id="ytick_5">
     <g id="line2d_14">
      <g>
       <use style="stroke:#000000;stroke-width:0.8;" x="35.304688" xlink:href="#m8a04f1cb5a" y="42.223324"/>
      </g>
     </g>
     <g id="text_14">
      <!-- 40 -->
      <g transform="translate(15.579688 46.022543)scale(0.1 -0.1)">
       <use xlink:href="#DejaVuSans-52"/>
       <use x="63.623047" xlink:href="#DejaVuSans-48"/>
      </g>
     </g>
    </g>
   </g>
   <g id="line2d_15">
    <path clip-path="url(#p4a0ecc5bb1)" d="M 50.522869 115.919996 
L 50.979643 39.370931 
L 51.284159 17.522275 
L 51.436417 19.074691 
L 51.588675 29.011575 
L 51.893191 69.946162 
L 52.654481 198.698228 
L 52.958996 214.74856 
L 53.111254 210.109012 
L 53.41577 177.474077 
L 54.481576 18.609241 
L 54.633834 17.787094 
L 54.786092 25.460892 
L 55.090608 62.960831 
L 56.004155 208.265676 
L 56.156413 214.520393 
L 56.308671 212.238692 
L 56.613187 183.578144 
L 57.678993 20.345088 
L 57.831251 17.153862 
L 57.983509 22.513404 
L 58.288025 56.32864 
L 59.201572 205.083642 
L 59.35383 213.634744 
L 59.506088 213.726105 
L 59.658346 205.349814 
L 59.962862 166.76533 
L 60.87641 22.718243 
L 61.028668 17.179217 
L 61.180926 20.188763 
L 61.485442 50.093812 
L 62.551247 212.097519 
L 62.703505 214.561332 
L 62.855763 208.485184 
L 63.160279 173.511005 
L 64.073827 25.712881 
L 64.226085 17.86299 
L 64.378343 18.502473 
L 64.5306 27.575966 
L 64.835116 67.220625 
L 65.596406 196.961087 
L 65.900922 214.738806 
L 66.05318 211.003316 
L 66.357696 179.872655 
L 67.423501 19.200621 
L 67.575759 17.465777 
L 67.728017 24.254695 
L 68.032533 60.365726 
L 68.946081 207.11362 
L 69.098339 214.257341 
L 69.250597 212.887418 
L 69.402855 203.122455 
L 69.707371 162.442662 
L 70.46866 33.482719 
L 70.773176 17.085587 
L 70.925434 21.544662 
L 71.22995 53.881271 
L 72.295756 213.120149 
L 72.448014 214.124928 
L 72.600272 206.627528 
L 72.904788 169.402454 
L 73.818335 23.797479 
L 73.970593 17.36444 
L 74.122851 19.463937 
L 74.427367 47.8105 
L 75.493173 211.334812 
L 75.645431 214.707594 
L 75.797689 209.527751 
L 76.102204 176.005617 
L 77.015752 27.026054 
L 77.16801 18.300475 
L 77.320268 18.026395 
L 77.472526 26.227541 
L 77.777042 64.543147 
L 78.69059 208.913235 
L 78.842847 214.631529 
L 78.995105 211.803784 
L 79.299621 182.208121 
L 80.365427 19.887452 
L 80.517685 17.241622 
L 80.669943 23.13896 
L 80.974459 57.825446 
L 81.888006 205.871566 
L 82.040264 213.897242 
L 82.192522 213.44045 
L 82.34478 204.540738 
L 82.649296 165.158801 
L 83.562844 22.114787 
L 83.715102 17.11485 
L 83.86736 20.669057 
L 84.171876 51.495128 
L 85.237681 212.509628 
L 85.389939 214.426836 
L 85.542197 207.815725 
L 85.846713 171.986797 
L 86.760261 24.967629 
L 86.912519 17.646925 
L 87.064777 18.834301 
L 87.217035 28.426958 
L 87.52155 68.850351 
L 88.28284 198.01308 
L 88.587356 214.756364 
L 88.739614 210.477939 
L 89.04413 178.440932 
L 90.109936 18.834299 
L 90.262194 17.646926 
L 90.414451 24.967632 
L 90.718967 61.916373 
L 91.632515 207.815728 
L 91.784773 214.426836 
L 91.937031 212.509627 
L 92.241547 184.478168 
L 93.307352 20.669055 
L 93.45961 17.11485 
L 93.611868 22.11479 
L 93.916384 55.342499 
L 94.829932 204.540741 
L 94.98219 213.440451 
L 95.134448 213.897241 
L 95.286706 205.871563 
L 95.591222 167.826347 
L 96.504769 23.138958 
L 96.657027 17.241621 
L 96.809285 19.887454 
L 97.113801 49.172564 
L 98.179607 211.803786 
L 98.331865 214.631529 
L 98.484123 208.913233 
L 98.788639 174.515809 
L 99.702186 26.227538 
L 99.854444 18.026394 
L 100.006702 18.300477 
L 100.15896 27.026057 
L 100.463476 66.143717 
L 101.377024 209.527754 
L 101.529282 214.707594 
L 101.68154 211.33481 
L 101.986055 180.814546 
L 103.051861 19.463935 
L 103.204119 17.364441 
L 103.356377 23.797482 
L 103.660893 59.342893 
L 104.574441 206.627531 
L 104.726699 214.124929 
L 104.878956 213.120147 
L 105.031214 203.700175 
L 105.33573 163.534778 
L 106.09702 34.174361 
L 106.401536 17.085587 
L 106.553794 21.183193 
L 106.85831 52.919334 
L 107.924115 212.88742 
L 108.076373 214.25734 
L 108.228631 207.113617 
L 108.533147 170.442669 
L 109.446695 24.254692 
L 109.598953 17.465776 
L 109.751211 19.200623 
L 109.903469 29.309036 
L 110.207985 70.496801 
L 110.969274 199.035907 
L 111.27379 214.738806 
L 111.426048 209.918966 
L 111.730564 176.986994 
L 112.79637 18.502472 
L 112.948628 17.862991 
L 113.100886 25.712884 
L 113.405401 63.486207 
L 114.318949 208.485187 
L 114.471207 214.561333 
L 114.623465 212.097517 
L 114.927981 183.124117 
L 115.993787 20.188762 
L 116.146045 17.179218 
L 116.298302 22.718246 
L 116.602818 56.825249 
L 117.516366 205.349817 
L 117.668624 213.726106 
L 117.820882 213.634743 
L 117.97314 205.083638 
L 118.277656 166.231799 
L 119.191203 22.513401 
L 119.343461 17.153862 
L 119.495719 20.34509 
L 119.800235 50.558343 
L 120.866041 212.238693 
L 121.018299 214.520392 
L 121.170557 208.265674 
L 121.475073 173.005183 
L 122.38862 25.460889 
L 122.540878 17.787093 
L 122.693136 18.609242 
L 122.845394 27.856157 
L 123.14991 67.761973 
L 123.9112 197.314969 
L 124.215716 214.74856 
L 124.367974 210.831935 
L 124.67249 179.397914 
L 125.738295 19.074689 
L 125.890553 17.522276 
L 126.042811 24.488734 
L 126.347327 60.880442 
L 127.260875 207.351269 
L 127.413133 214.317725 
L 127.565391 212.765309 
L 127.717649 202.828425 
L 128.022164 161.893838 
L 128.783454 33.141772 
L 129.08797 17.09144 
L 129.240228 21.730988 
L 129.544744 54.365923 
L 130.61055 213.230759 
L 130.762807 214.052906 
L 130.915065 206.379108 
L 131.219581 168.879169 
L 132.133129 23.574324 
L 132.285387 17.319607 
L 132.437645 19.601308 
L 132.742161 48.261856 
L 133.807966 211.494912 
L 133.960224 214.686138 
L 134.112482 209.326596 
L 134.416998 175.51136 
L 135.330546 26.756358 
L 135.482804 18.205256 
L 135.635062 18.113895 
L 135.78732 26.490186 
L 136.091836 65.07467 
L 137.005383 209.121757 
L 137.157641 214.660783 
L 137.309899 211.651237 
L 137.614415 181.746188 
L 138.680221 19.742481 
L 138.832479 17.278668 
L 138.984737 23.354816 
L 139.289253 58.328995 
L 140.2028 206.127119 
L 140.355058 213.97701 
L 140.507316 213.337527 
L 140.659574 204.264034 
L 140.96409 164.619375 
L 141.72538 34.878913 
L 142.029896 17.101194 
L 142.182154 20.836684 
L 142.486669 51.967345 
L 143.552475 212.639379 
L 143.704733 214.374223 
L 143.856991 207.585305 
L 144.161507 171.474274 
L 145.075055 24.72638 
L 145.227312 17.582659 
L 145.37957 18.952582 
L 145.531828 28.717545 
L 145.836344 69.397338 
L 146.597634 198.357281 
L 146.90215 214.754413 
L 147.054408 210.295338 
L 147.358924 177.958729 
L 148.424729 18.719851 
L 148.576987 17.715072 
L 148.729245 25.212472 
L 149.033761 62.437546 
L 149.947309 208.042521 
L 150.099567 214.47556 
L 150.251825 212.376063 
L 150.556341 184.0295 
L 151.622146 20.505188 
L 151.774404 17.132406 
L 151.926662 22.312249 
L 152.231178 55.834383 
L 153.144726 204.813946 
L 153.296984 213.539525 
L 153.449242 213.813605 
L 153.6015 205.612459 
L 153.906015 167.296853 
L 154.819563 22.926765 
L 154.971821 17.208471 
L 155.124079 20.036216 
L 155.428595 49.631879 
L 156.494401 211.952548 
L 156.646658 214.598378 
L 156.798916 208.70104 
L 157.103432 174.014554 
L 158.01698 25.968434 
L 158.169238 17.942758 
L 158.321496 18.39955 
L 158.473754 27.299262 
L 158.77827 66.681199 
L 159.691817 209.725213 
L 159.844075 214.72515 
L 159.996333 211.170943 
L 160.300849 180.344872 
L 161.366655 19.330372 
L 161.518913 17.413164 
L 161.671171 24.024275 
L 161.975687 59.853203 
L 162.889234 206.872371 
L 163.041492 214.193075 
L 163.19375 213.005699 
L 163.346008 203.413042 
L 163.650524 162.989649 
L 164.411814 33.82692 
L 164.71633 17.083636 
L 164.868588 21.362061 
L 165.173104 53.399068 
L 166.238909 213.005701 
L 166.391167 214.193074 
L 166.543425 206.872368 
L 166.847941 169.923627 
L 167.761489 24.024272 
L 167.913747 17.413164 
L 168.066005 19.330373 
L 168.37052 47.361832 
L 169.436326 211.170945 
L 169.588584 214.72515 
L 169.740842 209.72521 
L 170.045358 176.497501 
L 170.958906 27.299259 
L 171.111163 18.399549 
L 171.263421 17.942759 
L 171.415679 25.968437 
L 171.720195 64.013653 
L 172.633743 208.701042 
L 172.786001 214.598379 
L 172.938259 211.952546 
L 173.242775 182.667436 
L 174.30858 20.036214 
L 174.460838 17.208471 
L 174.613096 22.926767 
L 174.917612 57.324191 
L 175.83116 205.612462 
L 175.983418 213.813606 
L 176.135676 213.539523 
L 176.287934 204.813943 
L 176.59245 165.696283 
L 177.505997 22.312246 
L 177.658255 17.132406 
L 177.810513 20.50519 
L 178.115029 51.025454 
L 179.180835 212.376065 
L 179.333093 214.475559 
L 179.485351 208.042518 
L 179.789866 172.497107 
L 180.703414 25.212469 
L 180.855672 17.715071 
L 181.00793 18.719853 
L 181.160188 28.139825 
L 181.464704 68.305222 
L 182.225994 197.665639 
L 182.53051 214.754413 
L 182.682767 210.656807 
L 182.987283 178.920666 
L 184.053089 18.95258 
L 184.205347 17.58266 
L 184.357605 24.726383 
L 184.662121 61.397331 
L 185.575668 207.585308 
L 185.727926 214.374224 
L 185.880184 212.639377 
L 186.032442 202.530964 
L 186.336958 161.343199 
L 187.098248 32.804093 
L 187.402764 17.101194 
L 187.555022 21.921034 
L 187.859538 54.853006 
L 188.925343 213.337528 
L 189.077601 213.977009 
L 189.229859 206.127116 
L 189.534375 168.353793 
L 190.447923 23.354813 
L 190.600181 17.278667 
L 190.752439 19.742483 
L 191.056955 48.715883 
L 192.12276 211.651238 
L 192.275018 214.660782 
L 192.427276 209.121754 
L 192.731792 175.014751 
L 193.64534 26.490183 
L 193.797598 18.113894 
L 193.949856 18.205257 
L 194.102113 26.756362 
L 194.406629 65.608201 
L 195.320177 209.326599 
L 195.472435 214.686138 
L 195.624693 211.49491 
L 195.929209 181.281657 
L 196.995014 19.601307 
L 197.147272 17.319608 
L 197.29953 23.574326 
L 197.604046 58.834817 
L 198.517594 206.379111 
L 198.669852 214.052907 
L 198.82211 213.230758 
L 198.974368 203.983843 
L 199.278884 164.078027 
L 200.040173 34.525031 
L 200.344689 17.09144 
L 200.496947 21.008065 
L 200.801463 52.442086 
L 201.867269 212.765311 
L 202.019527 214.317724 
L 202.171785 207.351266 
L 202.476301 170.959558 
L 203.389848 24.488731 
L 203.542106 17.522275 
L 203.694364 19.074691 
L 203.846622 29.011575 
L 204.151138 69.946162 
L 204.912428 198.698228 
L 205.216944 214.74856 
L 205.369202 210.109012 
L 205.673717 177.474077 
L 206.739523 18.609241 
L 206.891781 17.787094 
L 207.044039 25.460892 
L 207.348555 62.960831 
L 208.262103 208.265676 
L 208.414361 214.520393 
L 208.566618 212.238692 
L 208.871134 183.578144 
L 209.93694 20.345088 
L 210.089198 17.153862 
L 210.241456 22.513404 
L 210.545972 56.32864 
L 211.459519 205.083642 
L 211.611777 213.634744 
L 211.764035 213.726105 
L 211.916293 205.349814 
L 212.220809 166.76533 
L 213.134357 22.718243 
L 213.286615 17.179217 
L 213.438873 20.188763 
L 213.743389 50.093812 
L 214.809194 212.097519 
L 214.961452 214.561332 
L 215.11371 208.485184 
L 215.418226 173.511005 
L 216.331774 25.712881 
L 216.484032 17.86299 
L 216.63629 18.502473 
L 216.788548 27.575966 
L 217.093064 67.220625 
L 217.854353 196.961087 
L 218.158869 214.738806 
L 218.311127 211.003316 
L 218.615643 179.872655 
L 219.681449 19.200621 
L 219.833707 17.465777 
L 219.985965 24.254695 
L 220.29048 60.365726 
L 221.204028 207.11362 
L 221.356286 214.257341 
L 221.508544 212.887418 
L 221.660802 203.122455 
L 221.965318 162.442662 
L 222.726608 33.482719 
L 223.031123 17.085587 
L 223.183381 21.544662 
L 223.487897 53.881271 
L 224.553703 213.120149 
L 224.705961 214.124928 
L 224.858219 206.627528 
L 225.162735 169.402454 
L 226.076282 23.797479 
L 226.22854 17.36444 
L 226.380798 19.463937 
L 226.685314 47.8105 
L 227.75112 211.334812 
L 227.903378 214.707594 
L 228.055636 209.527751 
L 228.360152 176.005617 
L 229.273699 27.026054 
L 229.425957 18.300475 
L 229.578215 18.026395 
L 229.730473 26.227541 
L 230.034989 64.543147 
L 230.948537 208.913235 
L 231.100795 214.631529 
L 231.253053 211.803784 
L 231.557568 182.208121 
L 232.623374 19.887452 
L 232.775632 17.241622 
L 232.92789 23.13896 
L 233.232406 57.825446 
L 234.145954 205.871566 
L 234.298212 213.897242 
L 234.450469 213.44045 
L 234.602727 204.540738 
L 234.907243 165.158801 
L 235.820791 22.114787 
L 235.973049 17.11485 
L 236.125307 20.669057 
L 236.429823 51.495128 
L 237.495628 212.509628 
L 237.647886 214.426836 
L 237.800144 207.815725 
L 238.10466 171.986797 
L 239.018208 24.967629 
L 239.170466 17.646925 
L 239.322724 18.834301 
L 239.474982 28.426958 
L 239.779498 68.850351 
L 240.540787 198.01308 
L 240.845303 214.756364 
L 240.997561 210.477939 
L 241.302077 178.440932 
L 242.367883 18.834299 
L 242.520141 17.646926 
L 242.672399 24.967632 
L 242.976915 61.916373 
L 243.890462 207.815728 
L 244.04272 214.426836 
L 244.194978 212.509627 
L 244.499494 184.478168 
L 245.5653 20.669055 
L 245.717558 17.11485 
L 245.869816 22.11479 
L 246.174331 55.342499 
L 247.087879 204.540741 
L 247.240137 213.440451 
L 247.392395 213.897241 
L 247.544653 205.871563 
L 247.849169 167.826347 
L 248.762717 23.138958 
L 248.914974 17.241621 
L 249.067232 19.887454 
L 249.371748 49.172564 
L 250.437554 211.803786 
L 250.589812 214.631529 
L 250.74207 208.913233 
L 251.046586 174.515809 
L 251.960133 26.227538 
L 252.112391 18.026394 
L 252.264649 18.300477 
L 252.416907 27.026057 
L 252.721423 66.143717 
L 253.634971 209.527754 
L 253.787229 214.707594 
L 253.939487 211.33481 
L 254.244003 180.814546 
L 255.309808 19.463935 
L 255.462066 17.364441 
L 255.614324 23.797482 
L 255.91884 59.342893 
L 256.832388 206.627531 
L 256.984646 214.124929 
L 257.136904 213.120147 
L 257.289162 203.700175 
L 257.593677 163.534778 
L 258.354967 34.174361 
L 258.659483 17.085587 
L 258.811741 21.183193 
L 259.116257 52.919334 
L 260.182063 212.88742 
L 260.33432 214.25734 
L 260.486578 207.113617 
L 260.791094 170.442669 
L 261.704642 24.254692 
L 261.8569 17.465776 
L 262.009158 19.200623 
L 262.161416 29.309036 
L 262.465932 70.496801 
L 263.227221 199.035907 
L 263.531737 214.738806 
L 263.683995 209.918966 
L 263.988511 176.986994 
L 265.054317 18.502472 
L 265.206575 17.862991 
L 265.358833 25.712884 
L 265.663349 63.486207 
L 266.576896 208.485187 
L 266.729154 214.561333 
L 266.881412 212.097517 
L 267.185928 183.124117 
L 268.251734 20.188762 
L 268.403992 17.179218 
L 268.55625 22.718246 
L 268.860766 56.825249 
L 269.774313 205.349817 
L 269.926571 213.726106 
L 270.078829 213.634743 
L 270.231087 205.083638 
L 270.535603 166.231799 
L 271.449151 22.513401 
L 271.601409 17.153862 
L 271.753667 20.34509 
L 272.058182 50.558343 
L 273.123988 212.238693 
L 273.276246 214.520392 
L 273.428504 208.265674 
L 273.73302 173.005183 
L 274.646568 25.460889 
L 274.798825 17.787093 
L 274.951083 18.609242 
L 275.103341 27.856157 
L 275.407857 67.761973 
L 276.169147 197.314969 
L 276.473663 214.74856 
L 276.625921 210.831935 
L 276.930437 179.397914 
L 277.996242 19.074689 
L 278.1485 17.522276 
L 278.300758 24.488734 
L 278.605274 60.880442 
L 279.518822 207.351269 
L 279.67108 214.317725 
L 279.823338 212.765309 
L 279.975596 202.828425 
L 280.280112 161.893838 
L 281.041401 33.141772 
L 281.345917 17.09144 
L 281.498175 21.730988 
L 281.802691 54.365923 
L 282.868497 213.230759 
L 283.020755 214.052906 
L 283.173013 206.379108 
L 283.477528 168.879169 
L 284.391076 23.574324 
L 284.543334 17.319607 
L 284.695592 19.601308 
L 285.000108 48.261856 
L 286.065914 211.494912 
L 286.218172 214.686138 
L 286.370429 209.326596 
L 286.674945 175.51136 
L 287.588493 26.756358 
L 287.740751 18.205256 
L 287.893009 18.113895 
L 288.045267 26.490186 
L 288.349783 65.07467 
L 289.26333 209.121757 
L 289.415588 214.660783 
L 289.567846 211.651237 
L 289.872362 181.746188 
L 290.938168 19.742481 
L 291.090426 17.278668 
L 291.242684 23.354816 
L 291.5472 58.328995 
L 292.460747 206.127119 
L 292.613005 213.97701 
L 292.765263 213.337527 
L 292.917521 204.264034 
L 293.222037 164.619375 
L 293.983327 34.878913 
L 294.287843 17.101194 
L 294.440101 20.836684 
L 294.744617 51.967345 
L 295.810422 212.639379 
L 295.96268 214.374223 
L 296.114938 207.585305 
L 296.419454 171.474274 
L 297.333002 24.72638 
L 297.48526 17.582659 
L 297.637518 18.952582 
L 297.789775 28.717545 
L 298.094291 69.397338 
L 298.855581 198.357281 
L 299.160097 214.754413 
L 299.312355 210.295338 
L 299.616871 177.958729 
L 300.682676 18.719851 
L 300.834934 17.715072 
L 300.987192 25.212472 
L 301.291708 62.437546 
L 302.205256 208.042521 
L 302.357514 214.47556 
L 302.509772 212.376063 
L 302.814288 184.0295 
L 303.880093 20.505188 
L 304.032351 17.132406 
L 304.184609 22.312249 
L 304.489125 55.834383 
L 305.402673 204.813946 
L 305.554931 213.539525 
L 305.707189 213.813605 
L 305.859447 205.612459 
L 306.163963 167.296853 
L 307.07751 22.926765 
L 307.229768 17.208471 
L 307.382026 20.036216 
L 307.686542 49.631879 
L 308.752348 211.952548 
L 308.904606 214.598378 
L 309.056864 208.70104 
L 309.361379 174.014554 
L 310.274927 25.968434 
L 310.427185 17.942758 
L 310.579443 18.39955 
L 310.731701 27.299262 
L 311.036217 66.681199 
L 311.949765 209.725213 
L 312.102023 214.72515 
L 312.25428 211.170943 
L 312.558796 180.344872 
L 313.624602 19.330372 
L 313.77686 17.413164 
L 313.929118 24.024275 
L 314.233634 59.853203 
L 315.147181 206.872371 
L 315.299439 214.193075 
L 315.451697 213.005699 
L 315.603955 203.413042 
L 315.908471 162.989649 
L 316.669761 33.82692 
L 316.974277 17.083636 
L 317.126535 21.362061 
L 317.431051 53.399068 
L 318.496856 213.005701 
L 318.649114 214.193074 
L 318.801372 206.872368 
L 319.105888 169.923627 
L 320.019436 24.024272 
L 320.171694 17.413164 
L 320.323952 19.330373 
L 320.628468 47.361832 
L 321.694273 211.170945 
L 321.846531 214.72515 
L 321.998789 209.72521 
L 322.303305 176.497501 
L 323.216853 27.299259 
L 323.369111 18.399549 
L 323.521369 17.942759 
L 323.673627 25.968437 
L 323.978142 64.013653 
L 324.89169 208.701042 
L 325.043948 214.598379 
L 325.196206 211.952546 
L 325.500722 182.667436 
L 326.566528 20.036214 
L 326.718785 17.208471 
L 326.871043 22.926767 
L 327.175559 57.324191 
L 328.089107 205.612462 
L 328.241365 213.813606 
L 328.393623 213.539523 
L 328.545881 204.813943 
L 328.850397 165.696283 
L 329.763944 22.312246 
L 329.916202 17.132406 
L 330.06846 20.50519 
L 330.372976 51.025454 
L 331.438782 212.376065 
L 331.59104 214.475559 
L 331.743298 208.042518 
L 332.047814 172.497107 
L 332.961361 25.212469 
L 333.113619 17.715071 
L 333.265877 18.719853 
L 333.418135 28.139825 
L 333.722651 68.305222 
L 334.483941 197.665639 
L 334.788457 214.754413 
L 334.940715 210.656807 
L 335.24523 178.920666 
L 336.311036 18.95258 
L 336.463294 17.58266 
L 336.615552 24.726383 
L 336.920068 61.397331 
L 337.833616 207.585308 
L 337.985874 214.374224 
L 338.138131 212.639377 
L 338.290389 202.530964 
L 338.594905 161.343199 
L 339.356195 32.804093 
L 339.660711 17.101194 
L 339.812969 21.921034 
L 340.117485 54.853006 
L 341.18329 213.337528 
L 341.335548 213.977009 
L 341.487806 206.127116 
L 341.792322 168.353793 
L 342.70587 23.354813 
L 342.858128 17.278667 
L 343.010386 19.742483 
L 343.314902 48.715883 
L 344.380707 211.651238 
L 344.532965 214.660782 
L 344.685223 209.121754 
L 344.989739 175.014751 
L 345.903287 26.490183 
L 346.055545 18.113894 
L 346.207803 18.205257 
L 346.360061 26.756362 
L 346.664577 65.608201 
L 347.578124 209.326599 
L 347.730382 214.686138 
L 347.88264 211.49491 
L 348.187156 181.281657 
L 349.252962 19.601307 
L 349.40522 17.319608 
L 349.557478 23.574326 
L 349.861993 58.834817 
L 350.775541 206.379111 
L 350.927799 214.052907 
L 351.080057 213.230758 
L 351.232315 203.983843 
L 351.536831 164.078027 
L 352.298121 34.525031 
L 352.602636 17.09144 
L 352.754894 21.008065 
L 353.05941 52.442086 
L 354.125216 212.765311 
L 354.277474 214.317724 
L 354.429732 207.351266 
L 354.734248 170.959558 
L 354.886506 144.684953 
L 354.886506 144.684953 
" style="fill:none;stroke:#1f77b4;stroke-linecap:square;stroke-width:1.5;"/>
   </g>
   <g id="line2d_16">
    <path clip-path="url(#p4a0ecc5bb1)" d="M 50.522869 209.476101 
L 50.675127 205.426248 
L 50.979643 175.100795 
L 52.045449 24.021034 
L 52.197707 22.897096 
L 52.349965 29.826698 
L 52.654481 64.801479 
L 53.568028 202.906264 
L 53.720286 209.164178 
L 53.872544 207.349394 
L 54.17706 180.815496 
L 55.242866 25.75777 
L 55.395124 22.393446 
L 55.547382 27.126267 
L 55.851897 58.578809 
L 56.765445 199.806241 
L 56.917703 208.23049 
L 57.069961 208.662876 
L 57.222219 201.065964 
L 57.526735 165.053287 
L 58.440283 28.09572 
L 58.592541 22.513444 
L 58.744798 25.017925 
L 59.049314 52.738499 
L 60.11512 206.681262 
L 60.267378 209.357935 
L 60.419636 203.945135 
L 60.724152 171.385369 
L 61.637699 31.019294 
L 61.789957 23.256291 
L 61.942215 23.515731 
L 62.094473 31.775153 
L 62.398989 68.80298 
L 63.312537 204.526825 
L 63.464795 209.429936 
L 63.617053 206.237341 
L 63.921569 177.3476 
L 64.987374 24.617032 
L 65.139632 22.629702 
L 65.29189 28.719063 
L 65.596406 62.365485 
L 66.509954 201.781546 
L 66.662212 208.8784 
L 66.81447 207.927298 
L 66.966728 199.010581 
L 67.271244 160.990992 
L 68.032533 38.541565 
L 68.337049 22.365746 
L 68.489307 26.24444 
L 68.793823 56.2851 
L 69.859629 207.707004 
L 70.011887 209.003737 
L 70.164145 202.241662 
L 70.46866 167.529833 
L 71.382208 29.151847 
L 71.534466 22.725624 
L 71.686724 24.367787 
L 71.838982 33.936166 
L 72.143498 72.923504 
L 72.904788 194.595498 
L 73.209303 209.45948 
L 73.361561 204.897138 
L 73.666077 173.724533 
L 74.731883 23.706935 
L 74.884141 23.101618 
L 75.036399 30.532136 
L 75.340915 66.287445 
L 76.254462 203.539957 
L 76.40672 209.291489 
L 76.558978 206.959301 
L 76.863494 179.533784 
L 77.9293 25.303135 
L 78.081558 22.454374 
L 78.233816 27.697484 
L 78.538332 59.982344 
L 79.451879 200.572092 
L 79.604137 208.500883 
L 79.756395 208.414402 
L 79.908653 200.320134 
L 80.213169 163.543927 
L 81.126717 27.503583 
L 81.278975 22.430373 
L 81.431233 25.451112 
L 81.735748 54.050243 
L 82.801554 207.092935 
L 82.953812 209.252736 
L 83.10607 203.332171 
L 83.410586 169.955447 
L 84.324134 30.293603 
L 84.476392 23.029775 
L 84.628649 23.808001 
L 84.780907 32.560906 
L 85.085423 70.334781 
L 85.846713 192.966501 
L 86.151229 209.468714 
L 86.303487 205.761332 
L 86.608003 176.006651 
L 87.673808 24.248581 
L 87.826066 22.779105 
L 87.978324 29.373385 
L 88.28284 63.820892 
L 89.196388 202.466618 
L 89.348646 209.060896 
L 89.500904 207.591417 
L 89.653162 198.185403 
L 89.957678 159.437718 
L 90.718967 37.56414 
L 91.023483 22.371286 
L 91.175741 26.76297 
L 91.480257 57.654407 
L 92.546063 208.032001 
L 92.698321 208.810224 
L 92.850579 201.546394 
L 93.155095 166.049862 
L 94.068642 28.507826 
L 94.2209 22.587264 
L 94.373158 24.747067 
L 94.677674 51.876445 
L 95.74348 206.388889 
L 95.895738 209.409626 
L 96.047996 204.336415 
L 96.352511 172.327734 
L 97.266059 31.519863 
L 97.418317 23.425597 
L 97.570575 23.339118 
L 97.722833 31.267911 
L 98.027349 67.791046 
L 98.940897 204.142519 
L 99.093154 209.385626 
L 99.245412 206.536863 
L 99.549928 178.229471 
L 100.615734 24.880697 
L 100.767992 22.548511 
L 100.92025 28.300046 
L 101.224766 61.405754 
L 102.138313 201.307867 
L 102.290571 208.738383 
L 102.442829 208.133064 
L 102.595087 199.544317 
L 102.899603 162.017646 
L 103.660893 39.208476 
L 103.965409 22.380519 
L 104.117667 25.916443 
L 104.422183 55.38397 
L 105.487988 207.472214 
L 105.640246 209.114376 
L 105.792504 202.688151 
L 106.09702 168.506326 
L 107.010568 29.598335 
L 107.162826 22.836262 
L 107.315084 24.132998 
L 107.467342 33.376275 
L 107.771857 71.882779 
L 108.533147 193.953128 
L 108.837663 209.474254 
L 108.989921 205.253402 
L 109.294437 174.644353 
L 110.360243 23.912701 
L 110.5125 22.961601 
L 110.664758 30.058457 
L 110.969274 65.294809 
L 111.882822 203.12094 
L 112.03508 209.210299 
L 112.187338 207.222966 
L 112.491854 180.390798 
L 113.557659 25.602657 
L 113.709917 22.410064 
L 113.862175 27.313177 
L 114.166691 59.044415 
L 115.080239 200.06485 
L 115.232497 208.32427 
L 115.384755 208.583708 
L 115.537013 200.820703 
L 115.841529 164.55208 
L 116.755076 27.894863 
L 116.907334 22.482065 
L 117.059592 25.158739 
L 117.364108 53.173275 
L 118.429914 206.822077 
L 118.582172 209.326556 
L 118.73443 203.744278 
L 119.038946 170.910893 
L 119.952493 30.774033 
L 120.104751 23.177123 
L 120.257009 23.609511 
L 120.409267 32.033763 
L 120.713783 69.311747 
L 121.627331 204.713736 
L 121.779589 209.446555 
L 121.931847 206.082228 
L 122.236362 176.903019 
L 123.302168 24.490604 
L 123.454426 22.675823 
L 123.606684 28.933739 
L 123.9112 62.848532 
L 124.824748 202.013305 
L 124.977005 208.942905 
L 125.129263 207.818964 
L 125.281521 198.738788 
L 125.586037 160.474986 
L 126.347327 38.212684 
L 126.651843 22.363899 
L 126.804101 26.413752 
L 127.108617 56.739205 
L 128.174422 207.818966 
L 128.32668 208.942904 
L 128.478938 202.013302 
L 128.783454 167.038521 
L 129.697002 28.933736 
L 129.84926 22.675822 
L 130.001518 24.490606 
L 130.306034 51.024504 
L 131.371839 206.08223 
L 131.524097 209.446554 
L 131.676355 204.713733 
L 131.980871 173.261191 
L 132.894419 32.033759 
L 133.046677 23.60951 
L 133.198935 23.177124 
L 133.351193 30.774036 
L 133.655708 66.786713 
L 134.569256 203.74428 
L 134.721514 209.326556 
L 134.873772 206.822075 
L 135.178288 179.101501 
L 136.244094 25.158738 
L 136.396352 22.482065 
L 136.548609 27.894865 
L 136.853125 60.454631 
L 137.766673 200.820706 
L 137.918931 208.583709 
L 138.071189 208.324269 
L 138.223447 200.064847 
L 138.527963 163.03702 
L 139.44151 27.313175 
L 139.593768 22.410064 
L 139.746026 25.602659 
L 140.050542 54.4924 
L 141.116348 207.222968 
L 141.268606 209.210298 
L 141.420864 203.120937 
L 141.72538 169.474515 
L 142.638927 30.058454 
L 142.791185 22.9616 
L 142.943443 23.912702 
L 143.095701 32.829419 
L 143.400217 70.849008 
L 144.161507 193.298435 
L 144.466023 209.474254 
L 144.618281 205.59556 
L 144.922797 175.5549 
L 145.988602 24.132996 
L 146.14086 22.836263 
L 146.293118 29.598338 
L 146.597634 64.310167 
L 147.511182 202.688153 
L 147.66344 209.114376 
L 147.815698 207.472213 
L 147.967955 197.903834 
L 148.272471 158.916496 
L 149.033761 37.244502 
L 149.338277 22.38052 
L 149.490535 26.942862 
L 149.795051 58.115467 
L 150.860856 208.133065 
L 151.013114 208.738382 
L 151.165372 201.307864 
L 151.469888 165.552555 
L 152.383436 28.300043 
L 152.535694 22.548511 
L 152.687952 24.880699 
L 152.992468 52.306216 
L 154.058273 206.536865 
L 154.210531 209.385626 
L 154.362789 204.142516 
L 154.667305 171.857656 
L 155.580853 31.267908 
L 155.733111 23.339117 
L 155.885369 23.425598 
L 156.037627 31.519866 
L 156.342143 68.296073 
L 157.25569 204.336417 
L 157.407948 209.409627 
L 157.560206 206.388888 
L 157.864722 177.789757 
L 158.930528 24.747065 
L 159.082786 22.587264 
L 159.235044 28.507829 
L 159.539559 61.884553 
L 160.453107 201.546397 
L 160.605365 208.810225 
L 160.757623 208.031999 
L 160.909881 199.279094 
L 161.214397 161.505219 
L 161.975687 38.873499 
L 162.280203 22.371286 
L 162.43246 26.078668 
L 162.736976 55.833349 
L 163.802782 207.591419 
L 163.95504 209.060895 
L 164.107298 202.466615 
L 164.411814 168.019108 
L 165.325361 29.373382 
L 165.477619 22.779104 
L 165.629877 24.248583 
L 165.782135 33.654597 
L 166.086651 72.402282 
L 166.847941 194.27586 
L 167.152457 209.468714 
L 167.304715 205.07703 
L 167.609231 174.185593 
L 168.675036 23.807999 
L 168.827294 23.029776 
L 168.979552 30.293606 
L 169.284068 65.790138 
L 170.197616 203.332174 
L 170.349874 209.252736 
L 170.502132 207.092933 
L 170.806648 179.963555 
L 171.872453 25.451111 
L 172.024711 22.430374 
L 172.176969 27.503585 
L 172.481485 59.512266 
L 173.395033 200.320137 
L 173.547291 208.414403 
L 173.699549 208.500882 
L 173.851807 200.572089 
L 174.156322 164.048954 
L 175.06987 27.697481 
L 175.222128 22.454374 
L 175.374386 25.303137 
L 175.678902 53.610529 
L 176.744708 206.959303 
L 176.896965 209.291489 
L 177.049223 203.539954 
L 177.353739 170.434246 
L 178.267287 30.532133 
L 178.419545 23.101617 
L 178.571803 23.706936 
L 178.724061 32.295683 
L 179.028577 69.822354 
L 179.789866 192.631524 
L 180.094382 209.459481 
L 180.24664 205.923557 
L 180.551156 176.45603 
L 181.616962 24.367786 
L 181.76922 22.725624 
L 181.921478 29.151849 
L 182.225994 63.333674 
L 183.139541 202.241665 
L 183.291799 209.003738 
L 183.444057 207.707002 
L 183.596315 198.463725 
L 183.900831 159.957221 
L 184.662121 37.886872 
L 184.966637 22.365746 
L 185.118895 26.586598 
L 185.42341 57.195647 
L 186.489216 207.927299 
L 186.641474 208.878399 
L 186.793732 201.781543 
L 187.098248 166.545191 
L 188.011796 28.71906 
L 188.164054 22.629701 
L 188.316311 24.617034 
L 188.620827 51.449202 
L 189.686633 206.237343 
L 189.838891 209.429936 
L 189.991149 204.526823 
L 190.295665 172.795585 
L 191.209212 31.77515 
L 191.36147 23.51573 
L 191.513728 23.256292 
L 191.665986 31.019297 
L 191.970502 67.28792 
L 192.88405 203.945137 
L 193.036308 209.357935 
L 193.188566 206.681261 
L 193.493082 178.666725 
L 194.558887 25.017923 
L 194.711145 22.513444 
L 194.863403 28.095722 
L 195.167919 60.929107 
L 196.081467 201.065967 
L 196.233725 208.662877 
L 196.385983 208.230489 
L 196.538241 199.806237 
L 196.842757 162.528253 
L 197.756304 27.126264 
L 197.908562 22.393445 
L 198.06082 25.757772 
L 198.365336 54.936981 
L 199.431142 207.349396 
L 199.5834 209.164177 
L 199.735658 202.906261 
L 200.040173 168.991468 
L 200.953721 29.826695 
L 201.105979 22.897095 
L 201.258237 24.021036 
L 201.410495 33.101212 
L 201.715011 71.365014 
L 202.476301 193.627316 
L 202.780816 209.476101 
L 202.933074 205.426248 
L 203.23759 175.100795 
L 204.303396 24.021034 
L 204.455654 22.897096 
L 204.607912 29.826698 
L 204.912428 64.801479 
L 205.825975 202.906264 
L 205.978233 209.164178 
L 206.130491 207.349394 
L 206.435007 180.815496 
L 207.500813 25.75777 
L 207.653071 22.393446 
L 207.805329 27.126267 
L 208.109845 58.578809 
L 209.023392 199.806241 
L 209.17565 208.23049 
L 209.327908 208.662876 
L 209.480166 201.065964 
L 209.784682 165.053287 
L 210.69823 28.09572 
L 210.850488 22.513444 
L 211.002746 25.017925 
L 211.307262 52.738499 
L 212.373067 206.681262 
L 212.525325 209.357935 
L 212.677583 203.945135 
L 212.982099 171.385369 
L 213.895647 31.019294 
L 214.047905 23.256291 
L 214.200163 23.515731 
L 214.35242 31.775153 
L 214.656936 68.80298 
L 215.570484 204.526825 
L 215.722742 209.429936 
L 215.875 206.237341 
L 216.179516 177.3476 
L 217.245321 24.617032 
L 217.397579 22.629702 
L 217.549837 28.719063 
L 217.854353 62.365485 
L 218.767901 201.781546 
L 218.920159 208.8784 
L 219.072417 207.927298 
L 219.224675 199.010581 
L 219.529191 160.990992 
L 220.29048 38.541565 
L 220.594996 22.365746 
L 220.747254 26.24444 
L 221.05177 56.2851 
L 222.117576 207.707004 
L 222.269834 209.003737 
L 222.422092 202.241662 
L 222.726608 167.529833 
L 223.640155 29.151847 
L 223.792413 22.725624 
L 223.944671 24.367787 
L 224.096929 33.936166 
L 224.401445 72.923504 
L 225.162735 194.595498 
L 225.467251 209.45948 
L 225.619509 204.897138 
L 225.924024 173.724533 
L 226.98983 23.706935 
L 227.142088 23.101618 
L 227.294346 30.532136 
L 227.598862 66.287445 
L 228.51241 203.539957 
L 228.664667 209.291489 
L 228.816925 206.959301 
L 229.121441 179.533784 
L 230.187247 25.303135 
L 230.339505 22.454374 
L 230.491763 27.697484 
L 230.796279 59.982344 
L 231.709826 200.572092 
L 231.862084 208.500883 
L 232.014342 208.414402 
L 232.1666 200.320134 
L 232.471116 163.543927 
L 233.384664 27.503583 
L 233.536922 22.430373 
L 233.68918 25.451112 
L 233.993696 54.050243 
L 235.059501 207.092935 
L 235.211759 209.252736 
L 235.364017 203.332171 
L 235.668533 169.955447 
L 236.582081 30.293603 
L 236.734339 23.029775 
L 236.886597 23.808001 
L 237.038855 32.560906 
L 237.34337 70.334781 
L 238.10466 192.966501 
L 238.409176 209.468714 
L 238.561434 205.761332 
L 238.86595 176.006651 
L 239.931756 24.248581 
L 240.084014 22.779105 
L 240.236271 29.373385 
L 240.540787 63.820892 
L 241.454335 202.466618 
L 241.606593 209.060896 
L 241.758851 207.591417 
L 241.911109 198.185403 
L 242.215625 159.437718 
L 242.976915 37.56414 
L 243.28143 22.371286 
L 243.433688 26.76297 
L 243.738204 57.654407 
L 244.80401 208.032001 
L 244.956268 208.810224 
L 245.108526 201.546394 
L 245.413042 166.049862 
L 246.326589 28.507826 
L 246.478847 22.587264 
L 246.631105 24.747067 
L 246.935621 51.876445 
L 248.001427 206.388889 
L 248.153685 209.409626 
L 248.305943 204.336415 
L 248.610459 172.327734 
L 249.524006 31.519863 
L 249.676264 23.425597 
L 249.828522 23.339118 
L 249.98078 31.267911 
L 250.285296 67.791046 
L 251.198844 204.142519 
L 251.351102 209.385626 
L 251.50336 206.536863 
L 251.807875 178.229471 
L 252.873681 24.880697 
L 253.025939 22.548511 
L 253.178197 28.300046 
L 253.482713 61.405754 
L 254.396261 201.307867 
L 254.548519 208.738383 
L 254.700776 208.133064 
L 254.853034 199.544317 
L 255.15755 162.017646 
L 255.91884 39.208476 
L 256.223356 22.380519 
L 256.375614 25.916443 
L 256.68013 55.38397 
L 257.745935 207.472214 
L 257.898193 209.114376 
L 258.050451 202.688151 
L 258.354967 168.506326 
L 259.268515 29.598335 
L 259.420773 22.836262 
L 259.573031 24.132998 
L 259.725289 33.376275 
L 260.029805 71.882779 
L 260.791094 193.953128 
L 261.09561 209.474254 
L 261.247868 205.253402 
L 261.552384 174.644353 
L 262.61819 23.912701 
L 262.770448 22.961601 
L 262.922706 30.058457 
L 263.227221 65.294809 
L 264.140769 203.12094 
L 264.293027 209.210299 
L 264.445285 207.222966 
L 264.749801 180.390798 
L 265.815607 25.602657 
L 265.967865 22.410064 
L 266.120122 27.313177 
L 266.424638 59.044415 
L 267.338186 200.06485 
L 267.490444 208.32427 
L 267.642702 208.583708 
L 267.79496 200.820703 
L 268.099476 164.55208 
L 269.013023 27.894863 
L 269.165281 22.482065 
L 269.317539 25.158739 
L 269.622055 53.173275 
L 270.687861 206.822077 
L 270.840119 209.326556 
L 270.992377 203.744278 
L 271.296893 170.910893 
L 272.21044 30.774033 
L 272.362698 23.177123 
L 272.514956 23.609511 
L 272.667214 32.033763 
L 272.97173 69.311747 
L 273.885278 204.713736 
L 274.037536 209.446555 
L 274.189794 206.082228 
L 274.49431 176.903019 
L 275.560115 24.490604 
L 275.712373 22.675823 
L 275.864631 28.933739 
L 276.169147 62.848532 
L 277.082695 202.013305 
L 277.234953 208.942905 
L 277.387211 207.818964 
L 277.539469 198.738788 
L 277.843984 160.474986 
L 278.605274 38.212684 
L 278.90979 22.363899 
L 279.062048 26.413752 
L 279.366564 56.739205 
L 280.43237 207.818966 
L 280.584627 208.942904 
L 280.736885 202.013302 
L 281.041401 167.038521 
L 281.954949 28.933736 
L 282.107207 22.675822 
L 282.259465 24.490606 
L 282.563981 51.024504 
L 283.629786 206.08223 
L 283.782044 209.446554 
L 283.934302 204.713733 
L 284.238818 173.261191 
L 285.152366 32.033759 
L 285.304624 23.60951 
L 285.456882 23.177124 
L 285.60914 30.774036 
L 285.913656 66.786713 
L 286.827203 203.74428 
L 286.979461 209.326556 
L 287.131719 206.822075 
L 287.436235 179.101501 
L 288.502041 25.158738 
L 288.654299 22.482065 
L 288.806557 27.894865 
L 289.111073 60.454631 
L 290.02462 200.820706 
L 290.176878 208.583709 
L 290.329136 208.324269 
L 290.481394 200.064847 
L 290.78591 163.03702 
L 291.699458 27.313175 
L 291.851716 22.410064 
L 292.003974 25.602659 
L 292.308489 54.4924 
L 293.374295 207.222968 
L 293.526553 209.210298 
L 293.678811 203.120937 
L 293.983327 169.474515 
L 294.896875 30.058454 
L 295.049132 22.9616 
L 295.20139 23.912702 
L 295.353648 32.829419 
L 295.658164 70.849008 
L 296.419454 193.298435 
L 296.72397 209.474254 
L 296.876228 205.59556 
L 297.180744 175.5549 
L 298.246549 24.132996 
L 298.398807 22.836263 
L 298.551065 29.598338 
L 298.855581 64.310167 
L 299.769129 202.688153 
L 299.921387 209.114376 
L 300.073645 207.472213 
L 300.225903 197.903834 
L 300.530419 158.916496 
L 301.291708 37.244502 
L 301.596224 22.38052 
L 301.748482 26.942862 
L 302.052998 58.115467 
L 303.118804 208.133065 
L 303.271062 208.738382 
L 303.42332 201.307864 
L 303.727835 165.552555 
L 304.641383 28.300043 
L 304.793641 22.548511 
L 304.945899 24.880699 
L 305.250415 52.306216 
L 306.316221 206.536865 
L 306.468478 209.385626 
L 306.620736 204.142516 
L 306.925252 171.857656 
L 307.8388 31.267908 
L 307.991058 23.339117 
L 308.143316 23.425598 
L 308.295574 31.519866 
L 308.60009 68.296073 
L 309.513637 204.336417 
L 309.665895 209.409627 
L 309.818153 206.388888 
L 310.122669 177.789757 
L 311.188475 24.747065 
L 311.340733 22.587264 
L 311.492991 28.507829 
L 311.797507 61.884553 
L 312.711054 201.546397 
L 312.863312 208.810225 
L 313.01557 208.031999 
L 313.167828 199.279094 
L 313.472344 161.505219 
L 314.233634 38.873499 
L 314.53815 22.371286 
L 314.690408 26.078668 
L 314.994924 55.833349 
L 316.060729 207.591419 
L 316.212987 209.060895 
L 316.365245 202.466615 
L 316.669761 168.019108 
L 317.583309 29.373382 
L 317.735567 22.779104 
L 317.887825 24.248583 
L 318.040082 33.654597 
L 318.344598 72.402282 
L 319.105888 194.27586 
L 319.410404 209.468714 
L 319.562662 205.07703 
L 319.867178 174.185593 
L 320.932983 23.807999 
L 321.085241 23.029776 
L 321.237499 30.293606 
L 321.542015 65.790138 
L 322.455563 203.332174 
L 322.607821 209.252736 
L 322.760079 207.092933 
L 323.064595 179.963555 
L 324.1304 25.451111 
L 324.282658 22.430374 
L 324.434916 27.503585 
L 324.739432 59.512266 
L 325.65298 200.320137 
L 325.805238 208.414403 
L 325.957496 208.500882 
L 326.109754 200.572089 
L 326.41427 164.048954 
L 327.327817 27.697481 
L 327.480075 22.454374 
L 327.632333 25.303137 
L 327.936849 53.610529 
L 329.002655 206.959303 
L 329.154913 209.291489 
L 329.307171 203.539954 
L 329.611686 170.434246 
L 330.525234 30.532133 
L 330.677492 23.101617 
L 330.82975 23.706936 
L 330.982008 32.295683 
L 331.286524 69.822354 
L 332.047814 192.631524 
L 332.35233 209.459481 
L 332.504587 205.923557 
L 332.809103 176.45603 
L 333.874909 24.367786 
L 334.027167 22.725624 
L 334.179425 29.151849 
L 334.483941 63.333674 
L 335.397488 202.241665 
L 335.549746 209.003738 
L 335.702004 207.707002 
L 335.854262 198.463725 
L 336.158778 159.957221 
L 336.920068 37.886872 
L 337.224584 22.365746 
L 337.376842 26.586598 
L 337.681358 57.195647 
L 338.747163 207.927299 
L 338.899421 208.878399 
L 339.051679 201.781543 
L 339.356195 166.545191 
L 340.269743 28.71906 
L 340.422001 22.629701 
L 340.574259 24.617034 
L 340.878775 51.449202 
L 341.94458 206.237343 
L 342.096838 209.429936 
L 342.249096 204.526823 
L 342.553612 172.795585 
L 343.46716 31.77515 
L 343.619418 23.51573 
L 343.771676 23.256292 
L 343.923933 31.019297 
L 344.228449 67.28792 
L 345.141997 203.945137 
L 345.294255 209.357935 
L 345.446513 206.681261 
L 345.751029 178.666725 
L 346.816834 25.017923 
L 346.969092 22.513444 
L 347.12135 28.095722 
L 347.425866 60.929107 
L 348.339414 201.065967 
L 348.491672 208.662877 
L 348.64393 208.230489 
L 348.796188 199.806237 
L 349.100704 162.528253 
L 350.014251 27.126264 
L 350.166509 22.393445 
L 350.318767 25.757772 
L 350.623283 54.936981 
L 351.689089 207.349396 
L 351.841347 209.164177 
L 351.993605 202.906261 
L 352.298121 168.991468 
L 353.211668 29.826695 
L 353.363926 22.897095 
L 353.516184 24.021036 
L 353.668442 33.101212 
L 353.972958 71.365014 
L 354.734248 193.627316 
L 354.886506 205.42625 
L 354.886506 205.42625 
" style="fill:none;stroke:#ff7f0e;stroke-linecap:square;stroke-width:1.5;"/>
   </g>
   <g id="patch_3">
    <path d="M 35.304688 224.64 
L 35.304688 7.2 
" style="fill:none;stroke:#000000;stroke-linecap:square;stroke-linejoin:miter;stroke-width:0.8;"/>
   </g>
   <g id="patch_4">
    <path d="M 370.104688 224.64 
L 370.104688 7.2 
" style="fill:none;stroke:#000000;stroke-linecap:square;stroke-linejoin:miter;stroke-width:0.8;"/>
   </g>
   <g id="patch_5">
    <path d="M 35.304688 224.64 
L 370.104688 224.64 
" style="fill:none;stroke:#000000;stroke-linecap:square;stroke-linejoin:miter;stroke-width:0.8;"/>
   </g>
   <g id="patch_6">
    <path d="M 35.304688 7.2 
L 370.104688 7.2 
" style="fill:none;stroke:#000000;stroke-linecap:square;stroke-linejoin:miter;stroke-width:0.8;"/>
   </g>
  </g>
 </g>
 <defs>
  <clipPath id="p4a0ecc5bb1">
   <rect height="217.44" width="334.8" x="35.304688" y="7.2"/>
  </clipPath>
 </defs>
</svg>
