<?xml version="1.0" encoding="utf-8" standalone="no"?>
<!DOCTYPE svg PUBLIC "-//W3C//DTD SVG 1.1//EN"
  "http://www.w3.org/Graphics/SVG/1.1/DTD/svg11.dtd">
<!-- Created with matplotlib (https://matplotlib.org/) -->
<svg height="248.518125pt" version="1.1" viewBox="0 0 231.342433 248.518125" width="231.342433pt" xmlns="http://www.w3.org/2000/svg" xmlns:xlink="http://www.w3.org/1999/xlink">
 <metadata>
  <rdf:RDF xmlns:cc="http://creativecommons.org/ns#" xmlns:dc="http://purl.org/dc/elements/1.1/" xmlns:rdf="http://www.w3.org/1999/02/22-rdf-syntax-ns#">
   <cc:Work>
    <dc:type rdf:resource="http://purl.org/dc/dcmitype/StillImage"/>
    <dc:date>2021-03-18T14:53:52.389153</dc:date>
    <dc:format>image/svg+xml</dc:format>
    <dc:creator>
     <cc:Agent>
      <dc:title>Matplotlib v3.3.4, https://matplotlib.org/</dc:title>
     </cc:Agent>
    </dc:creator>
   </cc:Work>
  </rdf:RDF>
 </metadata>
 <defs>
  <style type="text/css">*{stroke-linecap:butt;stroke-linejoin:round;}</style>
 </defs>
 <g id="figure_1">
  <g id="patch_1">
   <path d="M 0 248.518125 
L 231.342433 248.518125 
L 231.342433 0 
L 0 0 
z
" style="fill:none;"/>
  </g>
  <g id="axes_1">
   <g id="patch_2">
    <path d="M 38.482813 224.64 
L 224.142433 224.64 
L 224.142433 7.2 
L 38.482813 7.2 
z
" style="fill:#ffffff;"/>
   </g>
   <g id="matplotlib.axis_1">
    <g id="xtick_1">
     <g id="line2d_1">
      <defs>
       <path d="M 0 0 
L 0 3.5 
" id="m386c5e59ac" style="stroke:#000000;stroke-width:0.8;"/>
      </defs>
      <g>
       <use style="stroke:#000000;stroke-width:0.8;" x="45.309737" xlink:href="#m386c5e59ac" y="224.64"/>
      </g>
     </g>
     <g id="text_1">
      <!-- −0.4 -->
      <g transform="translate(33.168331 239.238437)scale(0.1 -0.1)">
       <defs>
        <path d="M 10.59375 35.5 
L 73.1875 35.5 
L 73.1875 27.203125 
L 10.59375 27.203125 
z
" id="DejaVuSans-8722"/>
        <path d="M 31.78125 66.40625 
Q 24.171875 66.40625 20.328125 58.90625 
Q 16.5 51.421875 16.5 36.375 
Q 16.5 21.390625 20.328125 13.890625 
Q 24.171875 6.390625 31.78125 6.390625 
Q 39.453125 6.390625 43.28125 13.890625 
Q 47.125 21.390625 47.125 36.375 
Q 47.125 51.421875 43.28125 58.90625 
Q 39.453125 66.40625 31.78125 66.40625 
z
M 31.78125 74.21875 
Q 44.046875 74.21875 50.515625 64.515625 
Q 56.984375 54.828125 56.984375 36.375 
Q 56.984375 17.96875 50.515625 8.265625 
Q 44.046875 -1.421875 31.78125 -1.421875 
Q 19.53125 -1.421875 13.0625 8.265625 
Q 6.59375 17.96875 6.59375 36.375 
Q 6.59375 54.828125 13.0625 64.515625 
Q 19.53125 74.21875 31.78125 74.21875 
z
" id="DejaVuSans-48"/>
        <path d="M 10.6875 12.40625 
L 21 12.40625 
L 21 0 
L 10.6875 0 
z
" id="DejaVuSans-46"/>
        <path d="M 37.796875 64.3125 
L 12.890625 25.390625 
L 37.796875 25.390625 
z
M 35.203125 72.90625 
L 47.609375 72.90625 
L 47.609375 25.390625 
L 58.015625 25.390625 
L 58.015625 17.1875 
L 47.609375 17.1875 
L 47.609375 0 
L 37.796875 0 
L 37.796875 17.1875 
L 4.890625 17.1875 
L 4.890625 26.703125 
z
" id="DejaVuSans-52"/>
       </defs>
       <use xlink:href="#DejaVuSans-8722"/>
       <use x="83.789062" xlink:href="#DejaVuSans-48"/>
       <use x="147.412109" xlink:href="#DejaVuSans-46"/>
       <use x="179.199219" xlink:href="#DejaVuSans-52"/>
      </g>
     </g>
    </g>
    <g id="xtick_2">
     <g id="line2d_2">
      <g>
       <use style="stroke:#000000;stroke-width:0.8;" x="87.525782" xlink:href="#m386c5e59ac" y="224.64"/>
      </g>
     </g>
     <g id="text_2">
      <!-- −0.2 -->
      <g transform="translate(75.384376 239.238437)scale(0.1 -0.1)">
       <defs>
        <path d="M 19.1875 8.296875 
L 53.609375 8.296875 
L 53.609375 0 
L 7.328125 0 
L 7.328125 8.296875 
Q 12.9375 14.109375 22.625 23.890625 
Q 32.328125 33.6875 34.8125 36.53125 
Q 39.546875 41.84375 41.421875 45.53125 
Q 43.3125 49.21875 43.3125 52.78125 
Q 43.3125 58.59375 39.234375 62.25 
Q 35.15625 65.921875 28.609375 65.921875 
Q 23.96875 65.921875 18.8125 64.3125 
Q 13.671875 62.703125 7.8125 59.421875 
L 7.8125 69.390625 
Q 13.765625 71.78125 18.9375 73 
Q 24.125 74.21875 28.421875 74.21875 
Q 39.75 74.21875 46.484375 68.546875 
Q 53.21875 62.890625 53.21875 53.421875 
Q 53.21875 48.921875 51.53125 44.890625 
Q 49.859375 40.875 45.40625 35.40625 
Q 44.1875 33.984375 37.640625 27.21875 
Q 31.109375 20.453125 19.1875 8.296875 
z
" id="DejaVuSans-50"/>
       </defs>
       <use xlink:href="#DejaVuSans-8722"/>
       <use x="83.789062" xlink:href="#DejaVuSans-48"/>
       <use x="147.412109" xlink:href="#DejaVuSans-46"/>
       <use x="179.199219" xlink:href="#DejaVuSans-50"/>
      </g>
     </g>
    </g>
    <g id="xtick_3">
     <g id="line2d_3">
      <g>
       <use style="stroke:#000000;stroke-width:0.8;" x="129.741827" xlink:href="#m386c5e59ac" y="224.64"/>
      </g>
     </g>
     <g id="text_3">
      <!-- 0.0 -->
      <g transform="translate(121.790265 239.238437)scale(0.1 -0.1)">
       <use xlink:href="#DejaVuSans-48"/>
       <use x="63.623047" xlink:href="#DejaVuSans-46"/>
       <use x="95.410156" xlink:href="#DejaVuSans-48"/>
      </g>
     </g>
    </g>
    <g id="xtick_4">
     <g id="line2d_4">
      <g>
       <use style="stroke:#000000;stroke-width:0.8;" x="171.957872" xlink:href="#m386c5e59ac" y="224.64"/>
      </g>
     </g>
     <g id="text_4">
      <!-- 0.2 -->
      <g transform="translate(164.00631 239.238437)scale(0.1 -0.1)">
       <use xlink:href="#DejaVuSans-48"/>
       <use x="63.623047" xlink:href="#DejaVuSans-46"/>
       <use x="95.410156" xlink:href="#DejaVuSans-50"/>
      </g>
     </g>
    </g>
    <g id="xtick_5">
     <g id="line2d_5">
      <g>
       <use style="stroke:#000000;stroke-width:0.8;" x="214.173917" xlink:href="#m386c5e59ac" y="224.64"/>
      </g>
     </g>
     <g id="text_5">
      <!-- 0.4 -->
      <g transform="translate(206.222355 239.238437)scale(0.1 -0.1)">
       <use xlink:href="#DejaVuSans-48"/>
       <use x="63.623047" xlink:href="#DejaVuSans-46"/>
       <use x="95.410156" xlink:href="#DejaVuSans-52"/>
      </g>
     </g>
    </g>
   </g>
   <g id="matplotlib.axis_2">
    <g id="ytick_1">
     <g id="line2d_6">
      <defs>
       <path d="M 0 0 
L -3.5 0 
" id="m55638f61d6" style="stroke:#000000;stroke-width:0.8;"/>
      </defs>
      <g>
       <use style="stroke:#000000;stroke-width:0.8;" x="38.482813" xlink:href="#m55638f61d6" y="191.155835"/>
      </g>
     </g>
     <g id="text_6">
      <!-- −0.4 -->
      <g transform="translate(7.2 194.955054)scale(0.1 -0.1)">
       <use xlink:href="#DejaVuSans-8722"/>
       <use x="83.789062" xlink:href="#DejaVuSans-48"/>
       <use x="147.412109" xlink:href="#DejaVuSans-46"/>
       <use x="179.199219" xlink:href="#DejaVuSans-52"/>
      </g>
     </g>
    </g>
    <g id="ytick_2">
     <g id="line2d_7">
      <g>
       <use style="stroke:#000000;stroke-width:0.8;" x="38.482813" xlink:href="#m55638f61d6" y="148.93979"/>
      </g>
     </g>
     <g id="text_7">
      <!-- −0.2 -->
      <g transform="translate(7.2 152.739009)scale(0.1 -0.1)">
       <use xlink:href="#DejaVuSans-8722"/>
       <use x="83.789062" xlink:href="#DejaVuSans-48"/>
       <use x="147.412109" xlink:href="#DejaVuSans-46"/>
       <use x="179.199219" xlink:href="#DejaVuSans-50"/>
      </g>
     </g>
    </g>
    <g id="ytick_3">
     <g id="line2d_8">
      <g>
       <use style="stroke:#000000;stroke-width:0.8;" x="38.482813" xlink:href="#m55638f61d6" y="106.723745"/>
      </g>
     </g>
     <g id="text_8">
      <!-- 0.0 -->
      <g transform="translate(15.579688 110.522964)scale(0.1 -0.1)">
       <use xlink:href="#DejaVuSans-48"/>
       <use x="63.623047" xlink:href="#DejaVuSans-46"/>
       <use x="95.410156" xlink:href="#DejaVuSans-48"/>
      </g>
     </g>
    </g>
    <g id="ytick_4">
     <g id="line2d_9">
      <g>
       <use style="stroke:#000000;stroke-width:0.8;" x="38.482813" xlink:href="#m55638f61d6" y="64.5077"/>
      </g>
     </g>
     <g id="text_9">
      <!-- 0.2 -->
      <g transform="translate(15.579688 68.306918)scale(0.1 -0.1)">
       <use xlink:href="#DejaVuSans-48"/>
       <use x="63.623047" xlink:href="#DejaVuSans-46"/>
       <use x="95.410156" xlink:href="#DejaVuSans-50"/>
      </g>
     </g>
    </g>
    <g id="ytick_5">
     <g id="line2d_10">
      <g>
       <use style="stroke:#000000;stroke-width:0.8;" x="38.482813" xlink:href="#m55638f61d6" y="22.291655"/>
      </g>
     </g>
     <g id="text_10">
      <!-- 0.4 -->
      <g transform="translate(15.579688 26.090873)scale(0.1 -0.1)">
       <use xlink:href="#DejaVuSans-48"/>
       <use x="63.623047" xlink:href="#DejaVuSans-46"/>
       <use x="95.410156" xlink:href="#DejaVuSans-52"/>
      </g>
     </g>
    </g>
   </g>
   <g id="line2d_11">
    <path clip-path="url(#pf92ec0a786)" d="M 47.57367 125.566498 
L 54.363711 152.944429 
L 68.100143 177.475234 
L 87.02264 197.342394 
L 109.027546 210.416108 
L 132.575518 214.719022 
L 155.871218 209.820419 
L 177.651873 196.339376 
L 196.106359 176.119146 
L 209.203048 151.288438 
L 215.309349 124.09674 
L 213.210224 96.533575 
L 203.902828 69.680897 
L 188.080583 46.491727 
L 167.917544 28.829464 
L 145.099364 18.856923 
L 121.470698 17.864197 
L 98.490051 25.9656 
L 77.733217 42.146389 
L 61.011263 64.351467 
L 50.270718 90.208122 
L 46.928233 117.840348 
L 51.737585 145.432362 
L 63.706731 171.047366 
L 81.366094 192.512881 
L 102.712039 207.640503 
L 125.967415 214.452033 
L 149.591221 212.046986 
L 172.016829 200.812377 
L 191.421362 182.202392 
L 206.29479 158.580064 
L 214.368533 131.726674 
L 214.686615 103.865669 
L 207.314359 76.790159 
L 192.981753 52.435401 
L 173.779371 32.998034 
L 151.562093 20.701124 
L 128.005667 17.220025 
L 104.64879 22.941902 
L 83.207421 37.033279 
L 65.131287 57.73273 
L 52.561758 82.825465 
L 47.077832 110.120663 
L 49.582599 137.935065 
L 59.822481 164.293188 
L 76.033289 187.170249 
L 96.57708 204.182673 
L 119.469614 213.479896 
L 143.094183 213.705002 
L 165.966515 204.759956 
L 186.466174 188.003538 
L 202.770908 165.455115 
L 212.91772 139.321122 
L 215.412302 111.563376 
L 210.029108 84.009837 
L 197.536231 58.77643 
L 179.481678 37.7933 
L 157.877184 23.292564 
L 134.492862 17.18737 
L 111.022009 20.420824 
L 88.798631 32.398236 
L 69.62552 51.414656 
L 55.399529 75.562322 
L 47.7842 102.406489 
L 48.109145 130.320433 
L 56.31347 157.296076 
L 71.021705 181.313462 
L 90.559028 200.183259 
L 112.972866 211.829958 
L 136.55575 214.568511 
L 159.8083 208.017296 
L 181.155679 193.289667 
L 198.709701 172.133081 
L 210.780392 146.742754 
L 215.449908 119.304643 
L 212.480618 91.546916 
L 201.63812 65.464254 
L 184.959141 42.997694 
L 164.062408 26.545129 
L 141.132248 17.944768 
L 117.465129 18.565394 
L 94.660433 28.215273 
L 74.515147 45.616026 
L 58.750593 68.471828 
L 49.134583 94.826791 
L 47.24919 122.68489 
L 53.311048 149.999572 
L 66.535097 175.129716 
L 84.771369 195.61725 
L 106.649079 209.440619 
L 130.044549 214.7214 
L 153.531765 210.788158 
L 175.512538 198.084015 
L 194.352153 178.545776 
L 208.104518 154.156184 
L 215.093446 127.038344 
L 214.019715 99.125343 
L 205.236868 72.425395 
L 190.014948 48.762298 
L 170.20036 30.348386 
L 147.626659 19.45555 
L 123.955824 17.438865 
L 100.811618 24.75599 
L 79.717464 40.12657 
L 62.488811 61.709066 
L 51.042012 87.442259 
L 46.973155 114.894474 
L 50.906617 142.705587 
L 62.182745 168.463092 
L 79.300002 190.51854 
L 100.325713 206.385248 
L 123.433611 214.160988 
L 147.102252 212.74015 
L 169.631302 202.464713 
L 189.657443 184.514953 
L 204.972489 161.169569 
L 213.887057 134.686608 
L 215.151673 106.835694 
L 208.383353 79.607979 
L 194.76011 54.841933 
L 175.945749 34.802534 
L 153.983292 21.644581 
L 130.522796 17.087417 
L 107.08105 21.812127 
L 85.254996 35.099423 
L 66.890948 55.274294 
L 53.564474 79.971058 
L 47.353012 107.211953 
L 48.949278 135.038946 
L 58.351751 161.660135 
L 74.069578 184.896779 
L 94.240353 202.765936 
L 116.999302 213.005906 
L 140.62478 214.145211 
L 163.630666 206.051992 
L 184.470185 190.035416 
L 201.292661 168.009414 
L 212.166411 142.267328 
L 215.561932 114.550321 
L 210.938193 87.004667 
L 199.141078 61.317751 
L 181.565859 39.782716 
L 160.348833 24.426572 
L 137.048572 17.456573 
L 113.451255 19.628437 
L 91.057552 30.694191 
L 71.47832 49.162668 
L 56.452268 72.746594 
L 48.295343 99.535639 
L 47.736838 127.372549 
L 55.058611 154.498818 
L 69.187185 178.89484 
L 88.353846 198.496539 
L 110.474391 210.932542 
L 134.012747 214.659336 
L 157.421377 209.226798 
L 178.991184 195.212206 
L 197.150839 174.67495 
L 209.813873 149.58082 
L 215.38585 122.267978 
L 213.101093 94.397026 
L 203.074867 68.084609 
L 186.879472 45.251072 
L 166.456936 27.906489 
L 143.528957 18.523812 
L 119.972764 18.136633 
L 97.039879 26.847371 
L 76.533832 43.468488 
L 60.10821 65.9218 
L 49.823092 91.924383 
L 46.999016 119.649474 
L 52.313453 147.0943 
L 64.640577 172.526299 
L 82.696551 193.748886 
L 104.158199 208.315449 
L 127.47942 214.585484 
L 151.096618 211.611136 
L 173.367473 199.77395 
L 192.634985 180.835452 
L 206.977348 156.792369 
L 214.628018 129.952232 
L 214.458792 102.060654 
L 206.512284 75.136191 
L 191.920691 51.048124 
L 172.474221 32.057344 
L 150.050863 20.188264 
L 126.518304 17.326878 
L 103.222707 23.612552 
L 81.864313 38.147667 
L 64.065218 59.194168 
L 51.97987 84.51574 
L 46.963021 112.002128 
L 50.023657 139.699409 
L 60.704567 165.895972 
L 77.23937 188.44298 
L 97.985932 205.015414 
L 120.971767 213.699831 
L 144.607981 213.354787 
L 167.367843 203.916904 
L 187.656314 186.731506 
L 203.567654 163.882142 
L 213.337069 137.555618 
L 215.287249 109.837928 
L 209.492696 82.401502 
L 196.525375 57.29917 
L 178.232739 36.522576 
L 156.44272 22.651468 
L 133.033401 17.152299 
L 109.533813 20.962344 
L 87.466051 33.40601 
L 68.504785 52.904082 
L 54.64203 77.163901 
L 47.624744 104.221564 
L 48.403694 132.081325 
L 57.02321 158.917792 
L 72.164426 182.678294 
L 91.909162 201.183918 
L 114.511178 212.273696 
L 138.058239 214.365134 
L 161.3522 207.215102 
L 182.414211 192.07905 
L 199.719343 170.569174 
L 211.33155 145.051867 
L 215.607464 117.555124 
L 211.85674 89.860722 
L 200.672003 63.859781 
L 183.641878 41.830999 
L 162.665669 25.762222 
L 139.782756 17.625704 
L 115.950899 18.932751 
L 93.359488 29.121578 
L 73.330687 46.947436 
L 57.895771 70.144395 
L 48.790244 96.579757 
L 47.42075 124.416352 
L 53.942431 151.800616 
L 67.437891 176.580951 
L 86.121623 196.615808 
L 108.066882 210.068146 
L 131.603101 214.752262 
L 155.000987 210.271951 
L 176.775141 197.082173 
L 195.384648 177.043882 
L 208.785158 152.461078 
L 215.23442 125.27908 
L 213.606216 97.528448 
L 204.444575 70.780952 
L 188.847832 47.370686 
L 168.812969 29.434451 
L 146.115317 19.102228 
L 122.456923 17.686107 
L 99.470048 25.384045 
L 78.512384 41.334381 
L 61.625975 63.30092 
L 50.579263 89.079085 
L 46.942582 116.660647 
L 51.399832 144.333562 
L 63.084803 170.020293 
L 80.525257 191.581589 
L 101.815481 207.194783 
L 124.942494 214.355282 
L 148.583865 212.341132 
L 171.045498 201.491098 
L 190.701211 183.096945 
L 205.794631 159.62288 
L 214.180643 132.975404 
L 214.862798 105.032742 
L 207.779731 77.858172 
L 193.666833 53.387879 
L 174.677907 33.655995 
L 152.554068 21.058441 
L 129.030832 17.165717 
L 105.587141 22.50709 
L 83.945843 36.36263 
L 65.818211 56.778924 
L 52.963708 81.679954 
L 47.177237 108.926377 
L 49.314257 136.768811 
L 59.274978 163.298587 
L 75.248049 186.263926 
L 95.65068 203.617071 
L 118.50416 213.325284 
L 142.145682 213.970695 
L 165.022818 205.307138 
L 185.690017 188.830624 
L 202.21071 166.492026 
L 212.632878 140.47773 
L 215.532095 112.720998 
L 210.434757 85.207435 
L 198.217751 59.789682 
L 180.416451 38.659395 
L 158.86996 23.694872 
L 135.49238 17.28239 
L 111.979283 20.111417 
L 89.699545 31.718239 
L 70.383295 50.507119 
L 55.856591 74.604969 
L 47.995246 101.275039 
L 47.935 129.124191 
L 55.797999 156.187699 
L 70.283582 180.347742 
L 89.673775 199.52443 
L 111.954348 211.482687 
L 135.535046 214.690412 
L 158.856772 208.518996 
L 180.309796 194.073982 
L 198.085213 173.153537 
L 210.394704 147.866789 
L 215.388089 120.462921 
L 212.826027 92.529901 
L 202.223745 66.512341 
L 185.774904 43.854799 
L 165.016707 27.080302 
L 142.035179 18.18694 
L 118.48178 18.387739 
L 95.570955 27.656761 
L 75.31005 44.757531 
L 59.327122 67.464174 
L 49.411599 93.688414 
L 47.130598 121.462186 
L 52.893428 148.795127 
L 65.722649 174.120798 
L 83.944157 194.887374 
L 105.669401 209.01379 
L 129.01132 214.678623 
L 152.55755 211.132818 
L 174.667021 198.753079 
L 193.69372 179.434083 
L 207.639952 155.237174 
L 214.901763 128.166278 
L 214.203667 100.277574 
L 205.741009 73.529573 
L 190.777643 49.696577 
L 171.120357 31.079936 
L 148.57698 19.763661 
L 124.901797 17.279465 
L 101.758368 24.299349 
L 80.543839 39.32961 
L 63.022978 60.760815 
L 51.423718 86.189333 
L 46.97135 113.732395 
L 50.541575 141.476791 
L 61.577606 167.46578 
L 78.481091 189.763495 
L 99.385715 205.815111 
L 122.451836 213.977716 
L 146.110982 212.99491 
L 168.708044 203.073896 
L 188.869862 185.392635 
L 204.401188 162.255643 
L 213.64101 135.817521 
L 215.203074 108.040461 
L 208.829155 80.723568 
L 195.495144 55.830158 
L 176.834566 35.515143 
L 154.966181 21.994991 
L 131.540915 17.083636 
L 108.094257 21.326348 
L 86.14754 34.363734 
L 67.520576 54.348265 
L 53.990498 78.851983 
L 47.448397 106.025103 
L 48.714976 133.889022 
L 57.731207 160.514892 
L 73.316986 184.035509 
L 93.277109 202.191056 
L 116.012178 212.713201 
L 139.585551 214.194266 
L 162.730733 206.512212 
L 183.639557 190.823902 
L 200.675111 169.047571 
L 211.81597 143.418331 
L 215.693892 115.828424 
L 211.269058 88.166939 
L 199.740108 62.374957 
L 182.348234 40.507515 
L 161.283207 24.952353 
L 138.134117 17.556784 
L 114.444634 19.335398 
L 91.957748 30.082089 
L 72.221168 48.268114 
L 57.01729 71.692317 
L 48.492524 98.362772 
L 47.628921 126.173863 
L 54.588251 153.446604 
L 68.454094 177.922854 
L 87.472314 197.728516 
L 109.498622 210.573772 
L 133.061442 214.701773 
L 156.385877 209.618035 
L 178.089003 195.96135 
L 196.460506 175.636953 
L 209.420202 150.716238 
L 215.353025 123.492634 
L 213.172027 95.806809 
L 203.627164 69.13207 
L 187.666832 46.119759 
L 167.430102 28.51454 
L 144.576514 18.741526 
L 120.969804 17.954833 
L 98.000227 26.264495 
L 77.339744 42.559988 
L 60.681505 64.858181 
L 50.117929 90.771959 
L 46.945898 118.444286 
L 51.922197 145.994569 
L 64.025317 171.549174 
L 81.806813 192.923385 
L 103.183469 207.87444 
L 126.471349 214.499628 
L 150.097162 211.897922 
L 172.468267 200.460917 
L 191.827331 181.751407 
L 206.530175 157.958655 
L 214.463208 131.133279 
L 214.599043 103.278743 
L 207.056793 76.245157 
L 192.637829 51.9675 
L 173.35095 32.683462 
L 151.063972 20.523771 
L 127.495524 17.252629 
L 104.176129 23.156484 
L 82.766243 37.388728 
L 64.790748 58.211441 
L 52.368647 83.403288 
L 47.030683 110.739322 
L 49.725794 138.525619 
L 60.116841 164.825134 
L 76.419675 187.609949 
L 97.045302 204.458481 
L 119.958481 213.552931 
L 143.589514 213.585504 
L 166.436857 204.480505 
L 186.850295 187.585315 
L 203.04666 164.928119 
L 213.062821 138.757333 
L 215.373815 111.000198 
L 209.804726 83.491647 
L 197.189917 58.277953 
L 179.050744 37.355834 
L 157.393739 23.080241 
L 134.004536 17.174568 
L 110.524404 20.603631 
L 88.352037 32.737373 
L 69.250627 51.921949 
L 55.179229 76.073877 
L 47.730446 103.009436 
L 48.204657 130.924595 
L 56.562946 157.834433 
L 71.395743 181.771933 
L 91.009661 200.50889 
L 113.49222 211.982985 
L 137.06108 214.49954 
L 160.306214 207.761944 
L 181.572833 192.886843 
L 199.047007 171.604199 
L 210.968949 146.187781 
L 215.491728 118.7186 
L 212.313494 91.045452 
L 201.324882 64.927114 
L 184.509445 42.605879 
L 163.594988 26.29062 
L 140.675698 17.832089 
L 116.954072 18.655961 
L 94.238498 28.524466 
L 74.119935 46.051939 
L 58.467299 68.987079 
L 49.017526 95.411099 
L 47.308128 123.29565 
L 53.521389 150.596916 
L 66.82745 175.58067 
L 85.184198 195.950832 
L 107.140886 209.650363 
L 130.587511 214.755596 
L 154.032285 210.624399 
L 175.933275 197.75254 
L 194.689358 178.01366 
L 208.349534 153.592529 
L 215.152472 126.452828 
L 213.933375 98.56402 
L 204.962915 71.888898 
L 189.624599 48.29636 
L 169.728858 30.034324 
L 147.125191 19.280663 
L 123.455359 17.521204 
L 100.348919 24.975937 
L 79.304255 40.522462 
L 62.207687 62.22818 
L 50.855342 87.954012 
L 46.970677 115.467731 
L 51.070716 143.237751 
L 62.47801 168.975241 
L 79.707066 190.878436 
L 100.80634 206.664271 
L 123.937477 214.225619 
L 147.584626 212.62181 
L 170.104619 202.139195 
L 190.021063 184.046958 
L 205.250128 160.643863 
L 213.982235 134.138778 
L 215.085155 106.236212 
L 208.17466 79.015623 
L 194.384707 54.354644 
L 175.528193 34.430258 
L 153.515892 21.456308 
L 130.030761 17.097683 
L 106.575715 22.049418 
L 84.801992 35.501089 
L 66.557077 55.772444 
L 53.363229 80.539531 
L 47.285645 107.773538 
L 49.071563 135.612731 
L 58.660725 162.229643 
L 74.461537 185.3514 
L 94.709255 203.053426 
L 117.503553 213.126838 
L 141.145908 214.116551 
L 164.081692 205.817193 
L 184.884879 189.637744 
L 201.598413 167.484237 
L 212.324622 141.673038 
L 215.558221 113.956902 
L 210.776712 86.40633 
L 198.843844 60.804482 
L 181.185443 39.415264 
L 159.872921 24.166245 
L 136.498974 17.428756 
L 112.960827 19.786729 
L 90.602516 31.028749 
L 71.115386 49.61159 
L 56.264202 73.367085 
L 48.213074 100.131407 
L 47.792869 127.95616 
L 55.302986 155.037285 
L 69.544603 179.373724 
L 88.791177 198.847206 
L 110.955924 211.109863 
L 134.515564 214.680309 
L 157.913412 209.006298 
L 179.437389 194.835583 
L 197.474161 174.162512 
L 210.012734 149.016222 
L 215.388303 121.662112 
L 213.073093 93.703444 
L 202.799386 67.559658 
L 186.505522 44.746182 
L 165.973189 27.622899 
L 143.007437 18.421803 
L 119.478153 18.226829 
L 96.547071 27.139321 
L 76.12753 43.907534 
L 59.858206 66.454004 
L 49.677664 92.50905 
L 47.032703 120.256619 
L 52.509149 147.635399 
L 64.949644 173.012097 
L 83.119593 194.12322 
L 104.671282 208.551381 
L 127.991305 214.623769 
L 151.581555 211.469005 
L 173.813256 199.429371 
L 192.997996 180.358411 
L 207.189646 156.273171 
L 214.718402 129.36046 
L 214.402163 101.451384 
L 206.245956 74.592211 
L 191.532292 50.589608 
L 172.029533 31.746352 
L 149.553981 20.043257 
L 126.059374 17.330086 
L 102.740935 23.848427 
L 81.420386 38.539853 
L 63.698723 59.721957 
L 51.787929 85.067094 
L 46.921886 112.639983 
L 50.188964 140.283008 
L 60.996895 166.426182 
L 77.667127 188.869381 
L 98.460281 205.276062 
L 121.481235 213.773873 
L 145.114222 213.235189 
L 167.81874 203.639925 
L 188.059031 186.287786 
L 203.837311 163.347139 
L 213.435046 136.961372 
L 215.253255 109.255149 
L 209.334328 81.843411 
L 196.188553 56.809142 
L 177.798311 36.116758 
L 155.955304 22.435257 
L 132.551954 17.127325 
L 109.049538 21.086774 
L 87.028412 33.732313 
L 68.171957 53.384772 
L 54.403563 77.722306 
L 47.580464 104.819952 
L 48.505905 132.682158 
L 57.230356 159.452185 
L 72.556015 183.125361 
L 92.358333 201.524464 
L 115.011539 212.418709 
L 138.556246 214.302239 
L 161.831153 206.972244 
L 182.829456 191.645113 
L 200.04603 170.07065 
L 211.491409 144.514614 
L 215.655934 116.979057 
L 211.63834 89.273714 
L 200.362898 63.362849 
L 183.282083 41.408894 
L 162.206657 25.491201 
L 139.237389 17.609172 
L 115.46123 19.06527 
L 92.897988 29.428362 
L 72.946005 47.383959 
L 57.603745 70.663118 
L 48.68161 97.187089 
L 47.482732 124.969943 
L 54.160667 152.417999 
L 67.760106 177.035925 
L 86.582654 196.949314 
L 108.552302 210.253607 
L 132.084491 214.736636 
L 155.421569 210.0533 
L 177.215831 196.710583 
L 195.747218 176.586066 
L 208.981068 151.875997 
L 215.274907 124.691608 
L 213.422195 97.023299 
L 204.171383 70.226557 
L 188.458357 46.926822 
L 168.380602 29.136166 
L 145.614726 18.975986 
L 121.964541 17.775932 
L 98.986936 25.662559 
L 78.126403 41.74259 
L 61.3254 63.826447 
L 50.427563 89.650333 
L 46.924245 117.246829 
L 51.561169 144.877124 
L 63.391398 170.541357 
L 80.97131 192.071891 
L 102.255024 207.413856 
L 125.452719 214.40664 
L 149.089511 212.197856 
L 171.530308 201.15381 
L 191.023999 182.625943 
L 206.051442 159.123808 
L 214.275576 132.36311 
L 214.773496 104.452979 
L 207.548655 77.32253 
L 193.329489 52.908454 
L 174.234338 33.314933 
L 152.059048 20.877741 
L 128.518989 17.187986 
L 105.115658 22.732542 
L 83.587784 36.717745 
L 65.472393 57.255648 
L 52.762362 82.249071 
L 47.13073 109.515561 
L 49.4456 137.355404 
L 59.559763 163.789795 
L 75.635743 186.717981 
L 96.116565 203.895862 
L 118.988987 213.407466 
L 142.61856 213.841309 
L 165.496054 205.034374 
L 186.080914 188.418811 
L 202.495257 165.984243 
L 212.77784 139.890001 
L 215.472409 112.139049 
L 210.234669 84.585933 
L 197.884364 59.279001 
L 179.941109 38.218255 
L 158.374368 23.491393 
L 134.988426 17.212734 
L 111.509081 20.252177 
L 89.24839 32.058118 
L 70.002954 50.959658 
L 55.619929 75.087615 
L 47.868973 101.827238 
L 48.019579 129.717733 
L 56.053558 156.752769 
L 70.652775 180.839163 
L 90.112887 199.854747 
L 112.457747 211.668445 
L 136.044956 214.630865 
L 159.333058 208.267073 
L 180.738327 193.687068 
L 198.388379 172.648187 
L 210.585557 147.312102 
L 215.410402 119.87665 
L 212.644119 92.033184 
L 201.93867 65.993832 
L 185.383617 43.406009 
L 164.538241 26.813621 
L 141.585779 18.061856 
L 117.975031 18.473512 
L 95.084915 27.908036 
L 74.911302 45.188008 
L 59.037555 67.975516 
L 49.291837 94.266604 
L 47.189668 122.074527 
L 53.102732 149.398639 
L 66.129398 174.70039 
L 84.355508 195.271684 
L 106.160323 209.228937 
L 129.527459 214.700314 
L 153.043907 210.95766 
L 175.089314 198.418603 
L 194.024943 178.990804 
L 207.870606 154.697676 
L 214.998973 127.608906 
L 214.111949 99.694983 
L 205.492018 72.981649 
L 190.405096 49.239358 
L 170.659907 30.714844 
L 148.096419 19.640421 
L 124.441414 17.354224 
L 101.273568 24.538615 
L 80.131693 39.731774 
L 62.759311 61.224678 
L 51.235721 86.787902 
L 46.978867 114.312979 
L 50.719029 142.089915 
L 61.877772 167.96743 
L 78.890988 190.148566 
L 99.854582 206.101796 
L 122.923219 214.075989 
L 146.611589 212.864857 
L 169.162388 202.78058 
L 189.273214 184.960547 
L 204.696964 161.711952 
L 213.767981 135.255745 
L 215.179987 107.435677 
L 208.581245 80.155994 
L 195.130637 55.333952 
L 176.332585 35.196639 
L 154.473639 21.818374 
L 131.020331 17.091431 
L 107.580864 21.572836 
L 85.700046 34.709325 
L 67.203199 54.808287 
L 53.773362 79.409611 
L 47.396625 106.627782 
L 48.827572 134.465808 
L 58.042766 161.090936 
L 73.691262 184.469874 
L 93.763702 202.476596 
L 116.506164 212.859145 
L 140.102807 214.170814 
L 163.18125 206.283024 
L 184.049338 190.435918 
L 200.98723 168.532931 
L 211.990385 142.856771 
L 215.623713 115.187546 
L 211.100776 87.601676 
L 199.440949 61.84614 
L 181.952846 40.142524 
L 160.821455 24.688642 
L 137.591051 17.505986 
L 113.943018 19.478543 
L 91.50186 30.393453 
L 71.849125 48.712526 
L 56.725063 72.204508 
L 48.394075 98.950711 
L 47.684839 126.784959 
L 54.815231 153.964607 
L 68.823584 178.409998 
L 87.918682 198.116733 
L 109.987867 210.750232 
L 133.535701 214.682322 
L 156.899602 209.423131 
L 178.538089 195.587174 
L 196.806707 175.15559 
L 209.615729 150.149583 
L 215.374394 122.882156 
L 213.134868 95.092306 
L 203.347178 68.613891 
L 187.264442 45.73465 
L 166.936808 28.203673 
L 144.052393 18.630936 
L 120.47028 18.047778 
L 97.517242 26.556678 
L 76.937115 43.007356 
L 60.371387 65.375505 
L 49.968029 91.347047 
L 46.968406 119.047111 
L 52.115252 146.553185 
L 64.334397 172.043099 
L 82.253813 193.335532 
L 103.660206 208.099307 
L 126.975586 214.546255 
L 150.601895 211.749752 
L 172.919724 200.117855 
L 192.231973 181.297666 
L 206.766201 157.336167 
L 214.547969 130.546432 
L 214.523542 102.67199 
L 206.786193 75.694178 
L 192.287136 51.510017 
L 172.90909 32.37659 
L 150.557256 20.348802 
L 126.99855 17.290468 
L 103.700712 23.376601 
L 82.314006 37.766433 
L 64.432802 58.701784 
L 52.17546 83.959496 
L 46.999935 111.368609 
L 49.871857 139.115489 
L 60.410572 165.362132 
L 76.803463 188.037898 
L 97.517499 204.730377 
L 120.459148 213.633314 
L 144.098469 213.47046 
L 166.902103 204.198167 
L 187.247766 187.166576 
L 203.300263 164.415655 
L 213.202493 138.168236 
L 215.328227 110.420058 
L 209.643156 82.948932 
L 196.853956 57.788966 
L 178.631628 36.9311 
L 156.916449 22.867754 
L 133.517563 17.164604 
L 110.026158 20.786602 
L 87.911482 33.07027 
L 68.87099 52.41763 
L 54.911724 76.61732 
L 47.677699 103.614927 
L 48.301627 131.506815 
L 56.795028 158.378407 
L 71.778801 182.223289 
L 91.456979 200.844328 
L 114.007952 212.131646 
L 137.561799 214.432809 
L 160.816772 207.499805 
L 181.993157 192.482855 
L 199.386006 171.071334 
L 211.156782 145.612187 
L 215.54852 118.127803 
L 212.079675 90.452358 
L 201.006007 64.38984 
L 184.058787 42.219549 
L 163.130484 26.03854 
L 140.226178 17.726965 
L 116.439187 18.799992 
L 93.805476 28.813555 
L 73.722804 46.498527 
L 58.182752 69.565806 
L 48.906061 95.995385 
L 47.363335 123.856381 
L 53.729045 151.192207 
L 67.126566 176.104482 
L 85.65197 196.289749 
L 107.60967 209.865504 
L 131.137438 214.756364 
L 154.545807 210.466509 
L 176.351476 197.425607 
L 195.029703 177.48803 
L 208.597054 153.033288 
L 215.194783 125.868616 
L 213.787218 98.039595 
L 204.707362 71.330433 
L 189.23725 47.83507 
L 169.263948 29.735536 
L 146.627655 19.186856 
L 122.953523 17.602894 
L 99.903976 25.18436 
L 78.900946 40.929632 
L 61.922675 62.765133 
L 50.713034 88.492729 
L 46.96643 116.059497 
L 51.235154 143.786122 
L 62.781404 169.497959 
L 80.118247 191.234564 
L 101.311705 206.930775 
L 124.438291 214.29157 
L 148.081263 212.483679 
L 170.568532 201.819887 
L 190.374417 183.570609 
L 205.529158 160.133274 
L 214.080231 133.572651 
L 214.959354 105.608707 
L 207.98426 78.426648 
L 194.017797 53.869714 
L 175.101228 34.04603 
L 153.055754 21.27647 
L 129.535877 17.1282 
L 106.069462 22.284633 
L 84.34414 35.902479 
L 66.174496 56.29892 
L 53.162915 81.108072 
L 47.23074 108.342966 
L 49.189758 136.189172 
L 58.959746 162.773699 
L 74.853912 185.810846 
L 95.182295 203.334255 
L 118.017757 213.236824 
L 141.664771 214.082128 
L 164.549105 205.571265 
L 185.295818 189.241758 
L 201.90526 166.985511 
L 212.481071 141.074021 
L 215.547004 113.343701 
L 210.614324 85.811999 
L 198.529913 60.299897 
L 180.817231 39.045039 
L 159.383931 23.929149 
L 135.992772 17.357866 
L 112.472214 19.946469 
L 90.143494 31.372566 
L 70.761 50.05653 
L 56.07311 73.983072 
L 48.127866 100.717371 
L 47.857732 128.540864 
L 55.548372 155.613586 
L 69.913897 179.854483 
L 89.236299 199.188174 
L 111.440841 211.285657 
L 135.02828 214.72184 
L 158.378674 208.765289 
L 179.875506 194.456091 
L 197.782247 173.657974 
L 210.211614 148.441965 
L 215.383327 121.057753 
L 213.032512 92.994763 
L 202.513078 67.034471 
L 186.155452 44.300393 
L 165.495236 27.349103 
L 142.503868 18.313823 
L 118.98225 18.307061 
L 96.050956 27.410462 
L 75.716207 44.335684 
L 59.6109 66.950018 
L 49.534972 93.102702 
L 47.078593 120.862663 
L 52.69246 148.193256 
L 65.318693 173.552825 
L 83.53341 194.501761 
L 105.168595 208.788917 
L 128.499491 214.653436 
L 152.070396 211.304749 
L 174.244626 199.088907 
L 193.352809 179.891365 
L 207.412997 155.752519 
L 214.806648 128.752582 
L 214.299493 100.862853 
L 205.992083 74.066153 
L 191.147246 50.134169 
L 171.576315 31.427018 
L 149.064147 19.9011 
L 125.463471 17.28819 
L 102.24461 24.067324 
L 80.975541 38.935518 
L 63.323012 60.254 
L 51.60533 85.63521 
L 46.949345 113.178592 
L 50.362153 140.866233 
L 61.287323 166.946415 
L 78.072992 189.351461 
L 98.922514 205.542592 
L 121.981877 213.855916 
L 145.611664 213.116509 
L 168.263258 203.359229 
L 188.454174 185.847734 
L 204.107646 162.799799 
L 213.515278 136.369947 
L 215.227689 108.648297 
L 209.07429 81.285992 
L 195.847932 56.319481 
L 177.368006 35.799268 
L 155.459787 22.21156 
L 132.04774 17.106031 
L 108.569079 21.20524 
L 86.592965 34.042457 
L 67.844049 53.875086 
L 54.195423 78.284363 
L 47.532655 105.426596 
L 48.610393 133.285701 
L 57.461199 159.969295 
L 72.936569 183.577642 
L 92.810167 201.869149 
L 115.517209 212.563722 
L 139.067397 214.239496 
L 162.279682 206.745068 
L 183.240501 191.218485 
L 200.361533 169.565515 
L 211.653324 143.9703 
L 215.703347 116.413873 
L 211.446965 88.714768 
L 200.051698 62.868785 
L 182.863048 40.96776 
L 161.745751 25.219607 
L 138.680878 17.604498 
L 114.958969 19.199224 
L 92.426489 29.751206 
L 72.582914 47.828735 
L 57.310304 71.180652 
L 48.585897 97.783862 
L 47.57367 125.566498 
L 54.363711 152.944429 
L 68.100143 177.475234 
L 87.02264 197.342394 
L 109.027546 210.416108 
L 132.575518 214.719022 
L 155.871218 209.820419 
L 177.651873 196.339376 
L 196.106359 176.119146 
L 209.203048 151.288438 
L 215.309349 124.09674 
L 213.210224 96.533575 
L 203.902828 69.680897 
L 188.080583 46.491727 
L 167.917544 28.829464 
L 145.099364 18.856923 
L 121.470698 17.864197 
L 98.490051 25.9656 
L 77.733217 42.146389 
L 61.011263 64.351467 
L 50.270718 90.208122 
L 46.928233 117.840348 
L 51.737585 145.432362 
L 63.706731 171.047366 
L 81.366094 192.512881 
L 102.712039 207.640503 
L 125.967415 214.452033 
L 149.591221 212.046986 
L 172.016829 200.812377 
L 191.421362 182.202392 
L 206.29479 158.580064 
L 214.368533 131.726674 
L 214.686615 103.865669 
L 207.314359 76.790159 
L 192.981753 52.435401 
L 173.779371 32.998034 
L 151.562093 20.701124 
L 128.005667 17.220025 
L 104.64879 22.941902 
L 83.207421 37.033279 
L 65.131287 57.73273 
L 52.561758 82.825465 
L 47.077832 110.120663 
L 49.582599 137.935065 
L 59.822481 164.293188 
L 76.033289 187.170249 
L 96.57708 204.182673 
L 119.469614 213.479896 
L 143.094183 213.705002 
L 165.966515 204.759956 
L 186.466174 188.003538 
L 202.770908 165.455115 
L 212.91772 139.321122 
L 215.412302 111.563376 
L 210.029108 84.009837 
L 197.536231 58.77643 
L 179.481678 37.7933 
L 157.877184 23.292564 
L 134.492862 17.18737 
L 111.022009 20.420824 
L 88.798631 32.398236 
L 69.62552 51.414656 
L 55.399529 75.562322 
L 47.7842 102.406489 
L 48.109145 130.320433 
L 56.31347 157.296076 
L 71.021705 181.313462 
L 90.559028 200.183259 
L 112.972866 211.829958 
L 136.55575 214.568511 
L 159.8083 208.017296 
L 181.155679 193.289667 
L 198.709701 172.133081 
L 210.780392 146.742754 
L 215.449908 119.304643 
L 212.480618 91.546916 
L 201.63812 65.464254 
L 184.959141 42.997694 
L 164.062408 26.545129 
L 141.132248 17.944768 
L 117.465129 18.565394 
L 94.660433 28.215273 
L 74.515147 45.616026 
L 58.750593 68.471828 
L 49.134583 94.826791 
L 47.24919 122.68489 
L 53.311048 149.999572 
L 66.535097 175.129716 
L 84.771369 195.61725 
L 106.649079 209.440619 
L 130.044549 214.7214 
L 153.531765 210.788158 
L 175.512538 198.084015 
L 194.352153 178.545776 
L 208.104518 154.156184 
L 215.093446 127.038344 
L 214.019715 99.125343 
L 205.236868 72.425395 
L 190.014948 48.762298 
L 170.20036 30.348386 
L 147.626659 19.45555 
L 123.955824 17.438865 
L 100.811618 24.75599 
L 79.717464 40.12657 
L 62.488811 61.709066 
L 51.042012 87.442259 
L 46.973155 114.894474 
L 50.906617 142.705587 
L 62.182745 168.463092 
L 79.300002 190.51854 
L 100.325713 206.385248 
L 123.433611 214.160988 
L 147.102252 212.74015 
L 169.631302 202.464713 
L 189.657443 184.514953 
L 204.972489 161.169569 
L 213.887057 134.686608 
L 215.151673 106.835694 
L 208.383353 79.607979 
L 194.76011 54.841933 
L 175.945749 34.802534 
L 153.983292 21.644581 
L 130.522796 17.087417 
L 107.08105 21.812127 
L 85.254996 35.099423 
L 66.890948 55.274294 
L 53.564474 79.971058 
L 47.353012 107.211953 
L 48.949278 135.038946 
L 58.351751 161.660135 
L 74.069578 184.896779 
L 94.240353 202.765936 
L 116.999302 213.005906 
L 140.62478 214.145211 
L 163.630666 206.051992 
L 184.470185 190.035416 
L 201.292661 168.009414 
L 212.166411 142.267328 
L 215.561932 114.550321 
L 210.938193 87.004667 
L 199.141078 61.317751 
L 181.565859 39.782716 
L 160.348833 24.426572 
L 137.048572 17.456573 
L 113.451255 19.628437 
L 91.057552 30.694191 
L 71.47832 49.162668 
L 56.452268 72.746594 
L 48.295343 99.535639 
L 47.736838 127.372549 
L 55.058611 154.498818 
L 69.187185 178.89484 
L 88.353846 198.496539 
L 110.474391 210.932542 
L 134.012747 214.659336 
L 157.421377 209.226798 
L 178.991184 195.212206 
L 197.150839 174.67495 
L 209.813873 149.58082 
L 215.38585 122.267978 
L 213.101093 94.397026 
L 203.074867 68.084609 
L 186.879472 45.251072 
L 166.456936 27.906489 
L 143.528957 18.523812 
L 119.972764 18.136633 
L 97.039879 26.847371 
L 76.533832 43.468488 
L 60.10821 65.9218 
L 49.823092 91.924383 
L 46.999016 119.649474 
L 52.313453 147.0943 
L 64.640577 172.526299 
L 82.696551 193.748886 
L 104.158199 208.315449 
L 127.47942 214.585484 
L 151.096618 211.611136 
L 173.367473 199.77395 
L 192.634985 180.835452 
L 206.977348 156.792369 
L 214.628018 129.952232 
L 214.458792 102.060654 
L 206.512284 75.136191 
L 191.920691 51.048124 
L 172.474221 32.057344 
L 150.050863 20.188264 
L 126.518304 17.326878 
L 103.222707 23.612552 
L 81.864313 38.147667 
L 64.065218 59.194168 
L 51.97987 84.51574 
L 46.963021 112.002128 
L 50.023657 139.699409 
L 60.704567 165.895972 
L 77.23937 188.44298 
L 97.985932 205.015414 
L 120.971767 213.699831 
L 144.607981 213.354787 
L 167.367843 203.916904 
L 187.656314 186.731506 
L 203.567654 163.882142 
L 213.337069 137.555618 
L 215.287249 109.837928 
L 209.492696 82.401502 
L 196.525375 57.29917 
L 178.232739 36.522576 
L 156.44272 22.651468 
L 133.033401 17.152299 
L 109.533813 20.962344 
L 87.466051 33.40601 
L 68.504785 52.904082 
L 54.64203 77.163901 
L 47.624744 104.221564 
L 48.403694 132.081325 
L 57.02321 158.917792 
L 72.164426 182.678294 
L 91.909162 201.183918 
L 114.511178 212.273696 
L 138.058239 214.365134 
L 161.3522 207.215102 
L 182.414211 192.07905 
L 199.719343 170.569174 
L 211.33155 145.051867 
L 215.607464 117.555124 
L 211.85674 89.860722 
L 200.672003 63.859781 
L 183.641878 41.830999 
L 162.665669 25.762222 
L 139.782756 17.625704 
L 115.950899 18.932751 
L 93.359488 29.121578 
L 73.330687 46.947436 
L 57.895771 70.144395 
L 48.790244 96.579757 
L 47.42075 124.416352 
L 53.942431 151.800616 
L 67.437891 176.580951 
L 86.121623 196.615808 
L 108.066882 210.068146 
L 131.603101 214.752262 
L 155.000987 210.271951 
L 176.775141 197.082173 
L 195.384648 177.043882 
L 208.785158 152.461078 
L 215.23442 125.27908 
L 213.606216 97.528448 
L 204.444575 70.780952 
L 188.847832 47.370686 
L 168.812969 29.434451 
L 146.115317 19.102228 
L 122.456923 17.686107 
L 99.470048 25.384045 
L 78.512384 41.334381 
L 61.625975 63.30092 
L 50.579263 89.079085 
L 46.942582 116.660647 
L 51.399832 144.333562 
L 63.084803 170.020293 
L 80.525257 191.581589 
L 101.815481 207.194783 
L 124.942494 214.355282 
L 148.583865 212.341132 
L 171.045498 201.491098 
L 190.701211 183.096945 
L 205.794631 159.62288 
L 214.180643 132.975404 
L 214.862798 105.032742 
L 207.779731 77.858172 
L 193.666833 53.387879 
L 174.677907 33.655995 
L 152.554068 21.058441 
L 129.030832 17.165717 
L 105.587141 22.50709 
L 83.945843 36.36263 
L 65.818211 56.778924 
L 52.963708 81.679954 
L 47.177237 108.926377 
L 49.314257 136.768811 
L 59.274978 163.298587 
L 75.248049 186.263926 
L 95.65068 203.617071 
L 118.50416 213.325284 
L 142.145682 213.970695 
L 165.022818 205.307138 
L 185.690017 188.830624 
L 202.21071 166.492026 
L 212.632878 140.47773 
L 215.532095 112.720998 
L 210.434757 85.207435 
L 198.217751 59.789682 
L 180.416451 38.659395 
L 158.86996 23.694872 
L 135.49238 17.28239 
L 111.979283 20.111417 
L 89.699545 31.718239 
L 70.383295 50.507119 
L 55.856591 74.604969 
L 47.995246 101.275039 
L 47.935 129.124191 
L 55.797999 156.187699 
L 70.283582 180.347742 
L 89.673775 199.52443 
L 111.954348 211.482687 
L 135.535046 214.690412 
L 158.856772 208.518996 
L 180.309796 194.073982 
L 198.085213 173.153537 
L 210.394704 147.866789 
L 215.388089 120.462921 
L 212.826027 92.529901 
L 202.223745 66.512341 
L 185.774904 43.854799 
L 165.016707 27.080302 
L 142.035179 18.18694 
L 118.48178 18.387739 
L 95.570955 27.656761 
L 75.31005 44.757531 
L 59.327122 67.464174 
L 49.411599 93.688414 
L 47.130598 121.462186 
L 52.893428 148.795127 
L 65.722649 174.120798 
L 83.944157 194.887374 
L 105.669401 209.01379 
L 129.01132 214.678623 
L 152.55755 211.132818 
L 174.667021 198.753079 
L 193.69372 179.434083 
L 207.639952 155.237174 
L 214.901763 128.166278 
L 214.203667 100.277574 
L 205.741009 73.529573 
L 190.777643 49.696577 
L 171.120357 31.079936 
L 148.57698 19.763661 
L 124.901797 17.279465 
L 101.758368 24.299349 
L 80.543839 39.32961 
L 63.022978 60.760815 
L 51.423718 86.189333 
L 46.97135 113.732395 
L 50.541575 141.476791 
L 61.577606 167.46578 
L 78.481091 189.763495 
L 99.385715 205.815111 
L 122.451836 213.977716 
L 146.110982 212.99491 
L 168.708044 203.073896 
L 188.869862 185.392635 
L 204.401188 162.255643 
L 213.64101 135.817521 
L 215.203074 108.040461 
L 208.829155 80.723568 
L 195.495144 55.830158 
L 176.834566 35.515143 
L 154.966181 21.994991 
L 131.540915 17.083636 
L 108.094257 21.326348 
L 86.14754 34.363734 
L 67.520576 54.348265 
L 53.990498 78.851983 
L 47.448397 106.025103 
L 48.714976 133.889022 
L 57.731207 160.514892 
L 73.316986 184.035509 
L 93.277109 202.191056 
L 116.012178 212.713201 
L 139.585551 214.194266 
L 162.730733 206.512212 
L 183.639557 190.823902 
L 200.675111 169.047571 
L 211.81597 143.418331 
L 215.693892 115.828424 
L 211.269058 88.166939 
L 199.740108 62.374957 
L 182.348234 40.507515 
L 161.283207 24.952353 
L 138.134117 17.556784 
L 114.444634 19.335398 
L 91.957748 30.082089 
L 72.221168 48.268114 
L 57.01729 71.692317 
L 48.492524 98.362772 
L 47.628921 126.173863 
L 54.588251 153.446604 
L 68.454094 177.922854 
L 87.472314 197.728516 
L 109.498622 210.573772 
L 133.061442 214.701773 
L 156.385877 209.618035 
L 178.089003 195.96135 
L 196.460506 175.636953 
L 209.420202 150.716238 
L 215.353025 123.492634 
L 213.172027 95.806809 
L 203.627164 69.13207 
L 187.666832 46.119759 
L 167.430102 28.51454 
L 144.576514 18.741526 
L 120.969804 17.954833 
L 98.000227 26.264495 
L 77.339744 42.559988 
L 60.681505 64.858181 
L 50.117929 90.771959 
L 46.945898 118.444286 
L 51.922197 145.994569 
L 64.025317 171.549174 
L 81.806813 192.923385 
L 103.183469 207.87444 
L 126.471349 214.499628 
L 150.097162 211.897922 
L 172.468267 200.460917 
L 191.827331 181.751407 
L 206.530175 157.958655 
L 214.463208 131.133279 
L 214.599043 103.278743 
L 207.056793 76.245157 
L 192.637829 51.9675 
L 173.35095 32.683462 
L 151.063972 20.523771 
L 127.495524 17.252629 
L 104.176129 23.156484 
L 82.766243 37.388728 
L 64.790748 58.211441 
L 52.368647 83.403288 
L 47.030683 110.739322 
L 49.725794 138.525619 
L 60.116841 164.825134 
L 76.419675 187.609949 
L 97.045302 204.458481 
L 119.958481 213.552931 
L 143.589514 213.585504 
L 166.436857 204.480505 
L 186.850295 187.585315 
L 203.04666 164.928119 
L 213.062821 138.757333 
L 215.373815 111.000198 
L 209.804726 83.491647 
L 197.189917 58.277953 
L 179.050744 37.355834 
L 157.393739 23.080241 
L 134.004536 17.174568 
L 110.524404 20.603631 
L 88.352037 32.737373 
L 69.250627 51.921949 
L 55.179229 76.073877 
L 47.730446 103.009436 
L 48.204657 130.924595 
L 56.562946 157.834433 
L 71.395743 181.771933 
L 91.009661 200.50889 
L 113.49222 211.982985 
L 137.06108 214.49954 
L 160.306214 207.761944 
L 181.572833 192.886843 
L 199.047007 171.604199 
L 210.968949 146.187781 
L 215.491728 118.7186 
L 212.313494 91.045452 
L 201.324882 64.927114 
L 184.509445 42.605879 
L 163.594988 26.29062 
L 140.675698 17.832089 
L 116.954072 18.655961 
L 94.238498 28.524466 
L 74.119935 46.051939 
L 58.467299 68.987079 
L 49.017526 95.411099 
L 47.308128 123.29565 
L 53.521389 150.596916 
L 66.82745 175.58067 
L 85.184198 195.950832 
L 107.140886 209.650363 
L 130.587511 214.755596 
L 154.032285 210.624399 
L 175.933275 197.75254 
L 194.689358 178.01366 
L 208.349534 153.592529 
L 215.152472 126.452828 
L 213.933375 98.56402 
L 204.962915 71.888898 
L 189.624599 48.29636 
L 169.728858 30.034324 
L 147.125191 19.280663 
L 123.455359 17.521204 
L 100.348919 24.975937 
L 79.304255 40.522462 
L 62.207687 62.22818 
L 50.855342 87.954012 
L 46.970677 115.467731 
L 51.070716 143.237751 
L 62.47801 168.975241 
L 79.707066 190.878436 
L 100.80634 206.664271 
L 123.937477 214.225619 
L 147.584626 212.62181 
L 170.104619 202.139195 
L 190.021063 184.046958 
L 205.250128 160.643863 
L 213.982235 134.138778 
L 215.085155 106.236212 
L 208.17466 79.015623 
L 194.384707 54.354644 
L 175.528193 34.430258 
L 153.515892 21.456308 
L 130.030761 17.097683 
L 106.575715 22.049418 
L 84.801992 35.501089 
L 66.557077 55.772444 
L 53.363229 80.539531 
L 47.285645 107.773538 
L 49.071563 135.612731 
L 58.660725 162.229643 
L 74.461537 185.3514 
L 94.709255 203.053426 
L 117.503553 213.126838 
L 141.145908 214.116551 
L 164.081692 205.817193 
L 184.884879 189.637744 
L 201.598413 167.484237 
L 212.324622 141.673038 
L 215.558221 113.956902 
L 210.776712 86.40633 
L 198.843844 60.804482 
L 181.185443 39.415264 
L 159.872921 24.166245 
L 136.498974 17.428756 
L 112.960827 19.786729 
L 90.602516 31.028749 
L 71.115386 49.61159 
L 56.264202 73.367085 
L 48.213074 100.131407 
L 47.792869 127.95616 
L 55.302986 155.037285 
L 69.544603 179.373724 
L 88.791177 198.847206 
L 110.955924 211.109863 
L 134.515564 214.680309 
L 157.913412 209.006298 
L 179.437389 194.835583 
L 197.474161 174.162512 
L 210.012734 149.016222 
L 215.388303 121.662112 
L 213.073093 93.703444 
L 202.799386 67.559658 
L 186.505522 44.746182 
L 165.973189 27.622899 
L 143.007437 18.421803 
L 119.478153 18.226829 
L 96.547071 27.139321 
L 76.12753 43.907534 
L 59.858206 66.454004 
L 49.677664 92.50905 
L 47.032703 120.256619 
L 52.509149 147.635399 
L 64.949644 173.012097 
L 83.119593 194.12322 
L 104.671282 208.551381 
L 127.991305 214.623769 
L 151.581555 211.469005 
L 173.813256 199.429371 
L 192.997996 180.358411 
L 207.189646 156.273171 
L 214.718402 129.36046 
L 214.402163 101.451384 
L 206.245956 74.592211 
L 191.532292 50.589608 
L 172.029533 31.746352 
L 149.553981 20.043257 
L 126.059374 17.330086 
L 102.740935 23.848427 
L 81.420386 38.539853 
L 63.698723 59.721957 
L 51.787929 85.067094 
L 46.921886 112.639983 
L 50.188964 140.283008 
L 60.996895 166.426182 
L 77.667127 188.869381 
L 98.460281 205.276062 
L 121.481235 213.773873 
L 145.114222 213.235189 
L 167.81874 203.639925 
L 188.059031 186.287786 
L 203.837311 163.347139 
L 213.435046 136.961372 
L 215.253255 109.255149 
L 209.334328 81.843411 
L 196.188553 56.809142 
L 177.798311 36.116758 
L 155.955304 22.435257 
L 132.551954 17.127325 
L 109.049538 21.086774 
L 87.028412 33.732313 
L 68.171957 53.384772 
L 54.403563 77.722306 
L 47.580464 104.819952 
L 48.505905 132.682158 
L 57.230356 159.452185 
L 72.556015 183.125361 
L 92.358333 201.524464 
L 115.011539 212.418709 
L 138.556246 214.302239 
L 161.831153 206.972244 
L 182.829456 191.645113 
L 200.04603 170.07065 
L 211.491409 144.514614 
L 215.655934 116.979057 
L 211.63834 89.273714 
L 200.362898 63.362849 
L 183.282083 41.408894 
L 162.206657 25.491201 
L 139.237389 17.609172 
L 115.46123 19.06527 
L 92.897988 29.428362 
L 72.946005 47.383959 
L 57.603745 70.663118 
L 48.68161 97.187089 
L 47.482732 124.969943 
L 54.160667 152.417999 
L 67.760106 177.035925 
L 86.582654 196.949314 
L 108.552302 210.253607 
L 132.084491 214.736636 
L 155.421569 210.0533 
L 177.215831 196.710583 
L 195.747218 176.586066 
L 208.981068 151.875997 
L 215.274907 124.691608 
L 213.422195 97.023296 
L 204.171383 70.226557 
L 188.458357 46.926822 
L 168.380602 29.136166 
L 145.614726 18.975986 
L 121.964541 17.775932 
L 98.986936 25.662559 
L 78.126403 41.74259 
L 61.3254 63.826447 
L 50.427563 89.650333 
L 46.924245 117.246829 
L 51.561169 144.877124 
L 63.391398 170.541357 
L 80.97131 192.071891 
L 102.255024 207.413856 
L 125.452719 214.40664 
L 149.089511 212.197856 
L 171.530308 201.15381 
L 191.023999 182.625943 
L 206.051442 159.123808 
L 214.275576 132.36311 
L 214.773496 104.452979 
L 207.548655 77.32253 
L 193.329489 52.908454 
L 174.234338 33.314933 
L 152.059048 20.877741 
L 128.518989 17.187986 
L 105.115658 22.732542 
L 83.587784 36.717745 
L 65.472393 57.255648 
L 52.762362 82.249071 
L 47.13073 109.515561 
L 49.4456 137.355404 
L 59.559763 163.789795 
L 75.635743 186.717981 
L 96.116565 203.895862 
L 118.988987 213.407466 
L 142.61856 213.841309 
L 165.496054 205.034374 
L 186.080914 188.418811 
L 202.495257 165.984243 
L 212.77784 139.890001 
L 215.472409 112.139049 
L 210.234669 84.585933 
L 197.884364 59.279001 
L 179.941109 38.218255 
L 158.374368 23.491393 
L 134.988426 17.212734 
L 111.509081 20.252177 
L 89.24839 32.058118 
L 70.002954 50.959658 
L 55.619929 75.087615 
L 47.868973 101.827238 
L 48.019579 129.717733 
L 56.053558 156.752769 
L 70.652775 180.839163 
L 90.112887 199.854747 
L 112.457747 211.668445 
L 136.044956 214.630865 
L 159.333058 208.267073 
L 180.738327 193.687068 
L 198.388379 172.648187 
L 210.585557 147.312102 
L 215.410402 119.87665 
L 212.644119 92.033184 
L 201.93867 65.993832 
L 185.383617 43.406009 
L 164.538241 26.813621 
L 141.585779 18.061856 
L 117.975031 18.473512 
L 95.084915 27.908036 
L 74.911302 45.188008 
L 59.037555 67.975516 
L 49.291837 94.266604 
L 47.189668 122.074527 
L 53.102732 149.398639 
L 66.129398 174.70039 
L 84.355508 195.271684 
L 106.160323 209.228937 
L 129.527459 214.700314 
L 153.043907 210.95766 
L 175.089314 198.418603 
L 194.024943 178.990804 
L 207.870606 154.697676 
L 214.998973 127.608906 
L 214.111949 99.694983 
L 205.492018 72.981649 
L 190.405096 49.239358 
L 170.659907 30.714844 
L 148.096419 19.640421 
L 124.441414 17.354224 
L 101.273568 24.538615 
L 80.131693 39.731774 
L 62.759311 61.224678 
L 51.235721 86.787902 
L 46.978867 114.312979 
L 50.719029 142.089915 
L 61.877772 167.96743 
L 78.890988 190.148566 
L 99.854582 206.101796 
L 122.923219 214.075989 
L 146.611589 212.864857 
L 169.162388 202.78058 
L 189.273214 184.960547 
L 204.696964 161.711952 
L 213.767981 135.255745 
L 215.179987 107.435677 
L 208.581245 80.155994 
L 195.130637 55.333952 
L 176.332585 35.196639 
L 154.473639 21.818374 
L 131.020331 17.091431 
L 107.580864 21.572836 
L 85.700046 34.709325 
L 67.203199 54.808287 
L 53.773362 79.409611 
L 47.396625 106.627782 
L 48.827572 134.465808 
L 58.042766 161.090936 
L 73.691262 184.469874 
L 93.763702 202.476596 
L 116.506164 212.859145 
L 140.102807 214.170814 
L 163.18125 206.283024 
L 184.049338 190.435918 
L 200.98723 168.532931 
L 211.990385 142.856771 
L 215.623713 115.187546 
L 211.100776 87.601676 
L 199.440949 61.84614 
L 181.952846 40.142524 
L 160.821455 24.688642 
L 137.591051 17.505986 
L 113.943018 19.478543 
L 91.50186 30.393453 
L 71.849125 48.712526 
L 56.725063 72.204508 
L 48.394075 98.950711 
L 47.684839 126.784959 
L 54.815231 153.964607 
L 68.823584 178.409998 
L 87.918682 198.116733 
L 109.987867 210.750232 
L 133.535701 214.682322 
L 156.899602 209.423131 
L 178.538089 195.587174 
L 196.806707 175.15559 
L 209.615729 150.149583 
L 215.374394 122.882156 
L 213.134868 95.092306 
L 203.347178 68.613891 
L 187.264442 45.73465 
L 166.936808 28.203673 
L 144.052393 18.630936 
L 120.47028 18.047778 
L 97.517242 26.556678 
L 76.937115 43.007356 
L 60.371387 65.375505 
L 49.968029 91.347047 
L 46.968406 119.047111 
L 52.115252 146.553185 
L 64.334397 172.043099 
L 82.253813 193.335532 
L 103.660206 208.099307 
L 126.975586 214.546255 
L 150.601895 211.749752 
L 172.919724 200.117855 
L 192.231973 181.297666 
L 206.766201 157.336167 
L 214.547969 130.546432 
L 214.523542 102.67199 
L 206.786193 75.694178 
L 192.287136 51.510017 
L 172.90909 32.37659 
L 150.557256 20.348802 
L 126.99855 17.290468 
L 103.700712 23.376601 
L 82.314006 37.766433 
L 64.432802 58.701784 
L 52.17546 83.959496 
L 46.999935 111.368609 
L 49.871857 139.115489 
L 60.410572 165.362132 
L 76.803463 188.037898 
L 97.517499 204.730377 
L 120.459148 213.633314 
L 144.098469 213.47046 
L 166.902103 204.198167 
L 187.247766 187.166576 
L 203.300263 164.415655 
L 213.202493 138.168236 
L 215.328227 110.420058 
L 209.643156 82.948932 
L 196.853956 57.788966 
L 178.631628 36.9311 
L 156.916449 22.867754 
L 133.517563 17.164604 
L 110.026158 20.786602 
L 87.911482 33.07027 
L 68.87099 52.41763 
L 54.911724 76.61732 
L 47.677699 103.614927 
L 48.301627 131.506815 
L 56.795028 158.378407 
L 71.778801 182.223289 
L 91.456979 200.844328 
L 114.007952 212.131646 
L 137.561799 214.432809 
L 160.816772 207.499805 
L 181.993157 192.482855 
L 199.386006 171.071334 
L 211.156782 145.612187 
L 215.54852 118.127803 
L 212.079675 90.452358 
L 201.006007 64.38984 
L 184.058787 42.219549 
L 163.130484 26.03854 
L 140.226178 17.726965 
L 116.439187 18.799992 
L 93.805476 28.813555 
L 73.722804 46.498527 
L 58.182752 69.565806 
L 48.906061 95.995385 
L 47.363335 123.856381 
L 53.729045 151.192207 
L 67.126566 176.104482 
L 85.65197 196.289749 
L 107.60967 209.865504 
L 131.137438 214.756364 
L 154.545807 210.466509 
L 176.351476 197.425607 
L 195.029703 177.48803 
L 208.597054 153.033288 
L 215.194783 125.868616 
L 213.787218 98.039595 
L 204.707362 71.330433 
L 189.23725 47.83507 
L 169.263948 29.735536 
L 146.627655 19.186856 
L 122.953523 17.602894 
L 99.903976 25.18436 
L 78.900946 40.929632 
L 61.922675 62.765133 
L 50.713034 88.492729 
L 46.96643 116.059497 
L 51.235154 143.786122 
L 62.781404 169.497959 
L 80.118247 191.234564 
L 101.311705 206.930775 
L 124.438291 214.29157 
L 148.081263 212.483679 
L 170.568532 201.819887 
L 190.374417 183.570609 
L 205.529158 160.133274 
L 214.080231 133.572651 
L 214.959354 105.608707 
L 207.98426 78.426648 
L 194.017797 53.869714 
L 175.101228 34.04603 
L 153.055754 21.27647 
L 129.535877 17.1282 
L 106.069462 22.284633 
L 84.34414 35.902479 
L 66.174496 56.29892 
L 53.162915 81.108072 
L 47.23074 108.342966 
L 49.189758 136.189172 
L 58.959746 162.773699 
L 74.853912 185.810846 
L 95.182295 203.334255 
L 118.017757 213.236824 
L 141.664771 214.082128 
L 164.549105 205.571265 
L 185.295818 189.241758 
L 201.90526 166.985511 
L 212.481071 141.074021 
L 215.547004 113.343701 
L 210.614324 85.811999 
L 198.529913 60.299897 
L 180.817231 39.045039 
L 159.383931 23.929149 
L 135.992772 17.357866 
L 112.472214 19.946469 
L 90.143494 31.372566 
L 70.761 50.05653 
L 56.07311 73.983072 
L 48.127866 100.717371 
L 47.857732 128.540864 
L 55.548372 155.613586 
L 69.913897 179.854483 
L 89.236299 199.188174 
L 111.440841 211.285657 
L 135.02828 214.72184 
L 158.378674 208.765289 
L 179.875506 194.456091 
L 197.782247 173.657974 
L 210.211614 148.441965 
L 215.383327 121.057753 
L 213.032512 92.994763 
L 202.513078 67.034471 
L 186.155452 44.300393 
L 165.495236 27.349103 
L 142.503868 18.313823 
L 118.98225 18.307061 
L 96.050956 27.410462 
L 75.716207 44.335684 
L 59.6109 66.950018 
L 49.534972 93.102702 
L 47.078593 120.862663 
L 52.69246 148.193256 
L 65.318693 173.552825 
L 83.53341 194.501761 
L 105.168595 208.788917 
L 128.499491 214.653436 
L 152.070396 211.304749 
L 174.244626 199.088907 
L 193.352809 179.891365 
L 207.412997 155.752519 
L 214.806648 128.752582 
L 214.299493 100.862853 
L 205.992083 74.066153 
L 191.147246 50.134169 
L 171.576315 31.427018 
L 149.064147 19.9011 
L 125.463471 17.28819 
L 102.24461 24.067324 
L 80.975541 38.935518 
L 63.323012 60.254 
L 51.60533 85.63521 
L 46.949345 113.178592 
L 50.362153 140.866233 
L 61.287323 166.946415 
L 78.072992 189.351461 
L 98.922514 205.542592 
L 121.981877 213.855916 
L 145.611664 213.116509 
L 168.263258 203.359229 
L 188.454174 185.847734 
L 204.107646 162.799799 
L 213.515278 136.369947 
L 215.227689 108.648297 
L 209.07429 81.285992 
L 195.847932 56.319481 
L 177.368006 35.799268 
L 155.459787 22.21156 
L 132.04774 17.106031 
L 108.569079 21.20524 
L 86.592965 34.042457 
L 67.844049 53.875086 
L 54.195423 78.284363 
L 47.532655 105.426596 
L 48.610393 133.285701 
L 57.461199 159.969295 
L 72.936569 183.577642 
L 92.810167 201.869149 
L 115.517209 212.563722 
L 139.06738 214.239496 
L 162.279682 206.745068 
L 183.240539 191.218454 
L 200.361552 169.565502 
L 211.653318 143.970288 
L 215.703359 116.413876 
L 211.446977 88.714768 
L 200.051698 62.868807 
L 182.863023 40.967779 
L 161.745751 25.219613 
L 138.680854 17.604511 
L 114.958938 19.199262 
L 92.426499 29.751206 
L 72.582895 47.828761 
L 57.310298 71.180655 
L 48.585897 97.783875 
L 48.585897 97.783875 
" style="fill:none;stroke:#1f77b4;stroke-linecap:square;stroke-width:1.5;"/>
   </g>
   <g id="patch_3">
    <path d="M 38.482813 224.64 
L 38.482813 7.2 
" style="fill:none;stroke:#000000;stroke-linecap:square;stroke-linejoin:miter;stroke-width:0.8;"/>
   </g>
   <g id="patch_4">
    <path d="M 224.142433 224.64 
L 224.142433 7.2 
" style="fill:none;stroke:#000000;stroke-linecap:square;stroke-linejoin:miter;stroke-width:0.8;"/>
   </g>
   <g id="patch_5">
    <path d="M 38.482813 224.64 
L 224.142433 224.64 
" style="fill:none;stroke:#000000;stroke-linecap:square;stroke-linejoin:miter;stroke-width:0.8;"/>
   </g>
   <g id="patch_6">
    <path d="M 38.482813 7.2 
L 224.142433 7.2 
" style="fill:none;stroke:#000000;stroke-linecap:square;stroke-linejoin:miter;stroke-width:0.8;"/>
   </g>
  </g>
 </g>
 <defs>
  <clipPath id="pf92ec0a786">
   <rect height="217.44" width="185.65962" x="38.482813" y="7.2"/>
  </clipPath>
 </defs>
</svg>
