<?xml version="1.0" encoding="utf-8" standalone="no"?>
<!DOCTYPE svg PUBLIC "-//W3C//DTD SVG 1.1//EN"
  "http://www.w3.org/Graphics/SVG/1.1/DTD/svg11.dtd">
<!-- Created with matplotlib (https://matplotlib.org/) -->
<svg height="248.518125pt" version="1.1" viewBox="0 0 380.482812 248.518125" width="380.482812pt" xmlns="http://www.w3.org/2000/svg" xmlns:xlink="http://www.w3.org/1999/xlink">
 <metadata>
  <rdf:RDF xmlns:cc="http://creativecommons.org/ns#" xmlns:dc="http://purl.org/dc/elements/1.1/" xmlns:rdf="http://www.w3.org/1999/02/22-rdf-syntax-ns#">
   <cc:Work>
    <dc:type rdf:resource="http://purl.org/dc/dcmitype/StillImage"/>
    <dc:date>2021-03-18T14:53:40.829429</dc:date>
    <dc:format>image/svg+xml</dc:format>
    <dc:creator>
     <cc:Agent>
      <dc:title>Matplotlib v3.3.4, https://matplotlib.org/</dc:title>
     </cc:Agent>
    </dc:creator>
   </cc:Work>
  </rdf:RDF>
 </metadata>
 <defs>
  <style type="text/css">*{stroke-linecap:butt;stroke-linejoin:round;}</style>
 </defs>
 <g id="figure_1">
  <g id="patch_1">
   <path d="M -0 248.518125 
L 380.482812 248.518125 
L 380.482812 0 
L -0 0 
z
" style="fill:none;"/>
  </g>
  <g id="axes_1">
   <g id="patch_2">
    <path d="M 38.482813 224.64 
L 373.282813 224.64 
L 373.282813 7.2 
L 38.482813 7.2 
z
" style="fill:#ffffff;"/>
   </g>
   <g id="matplotlib.axis_1">
    <g id="xtick_1">
     <g id="line2d_1">
      <defs>
       <path d="M 0 0 
L 0 3.5 
" id="m676897ce2a" style="stroke:#000000;stroke-width:0.8;"/>
      </defs>
      <g>
       <use style="stroke:#000000;stroke-width:0.8;" x="53.700994" xlink:href="#m676897ce2a" y="224.64"/>
      </g>
     </g>
     <g id="text_1">
      <!-- 0 -->
      <g transform="translate(50.519744 239.238437)scale(0.1 -0.1)">
       <defs>
        <path d="M 31.78125 66.40625 
Q 24.171875 66.40625 20.328125 58.90625 
Q 16.5 51.421875 16.5 36.375 
Q 16.5 21.390625 20.328125 13.890625 
Q 24.171875 6.390625 31.78125 6.390625 
Q 39.453125 6.390625 43.28125 13.890625 
Q 47.125 21.390625 47.125 36.375 
Q 47.125 51.421875 43.28125 58.90625 
Q 39.453125 66.40625 31.78125 66.40625 
z
M 31.78125 74.21875 
Q 44.046875 74.21875 50.515625 64.515625 
Q 56.984375 54.828125 56.984375 36.375 
Q 56.984375 17.96875 50.515625 8.265625 
Q 44.046875 -1.421875 31.78125 -1.421875 
Q 19.53125 -1.421875 13.0625 8.265625 
Q 6.59375 17.96875 6.59375 36.375 
Q 6.59375 54.828125 13.0625 64.515625 
Q 19.53125 74.21875 31.78125 74.21875 
z
" id="DejaVuSans-48"/>
       </defs>
       <use xlink:href="#DejaVuSans-48"/>
      </g>
     </g>
    </g>
    <g id="xtick_2">
     <g id="line2d_2">
      <g>
       <use style="stroke:#000000;stroke-width:0.8;" x="114.695711" xlink:href="#m676897ce2a" y="224.64"/>
      </g>
     </g>
     <g id="text_2">
      <!-- 100 -->
      <g transform="translate(105.151961 239.238437)scale(0.1 -0.1)">
       <defs>
        <path d="M 12.40625 8.296875 
L 28.515625 8.296875 
L 28.515625 63.921875 
L 10.984375 60.40625 
L 10.984375 69.390625 
L 28.421875 72.90625 
L 38.28125 72.90625 
L 38.28125 8.296875 
L 54.390625 8.296875 
L 54.390625 0 
L 12.40625 0 
z
" id="DejaVuSans-49"/>
       </defs>
       <use xlink:href="#DejaVuSans-49"/>
       <use x="63.623047" xlink:href="#DejaVuSans-48"/>
       <use x="127.246094" xlink:href="#DejaVuSans-48"/>
      </g>
     </g>
    </g>
    <g id="xtick_3">
     <g id="line2d_3">
      <g>
       <use style="stroke:#000000;stroke-width:0.8;" x="175.690428" xlink:href="#m676897ce2a" y="224.64"/>
      </g>
     </g>
     <g id="text_3">
      <!-- 200 -->
      <g transform="translate(166.146678 239.238437)scale(0.1 -0.1)">
       <defs>
        <path d="M 19.1875 8.296875 
L 53.609375 8.296875 
L 53.609375 0 
L 7.328125 0 
L 7.328125 8.296875 
Q 12.9375 14.109375 22.625 23.890625 
Q 32.328125 33.6875 34.8125 36.53125 
Q 39.546875 41.84375 41.421875 45.53125 
Q 43.3125 49.21875 43.3125 52.78125 
Q 43.3125 58.59375 39.234375 62.25 
Q 35.15625 65.921875 28.609375 65.921875 
Q 23.96875 65.921875 18.8125 64.3125 
Q 13.671875 62.703125 7.8125 59.421875 
L 7.8125 69.390625 
Q 13.765625 71.78125 18.9375 73 
Q 24.125 74.21875 28.421875 74.21875 
Q 39.75 74.21875 46.484375 68.546875 
Q 53.21875 62.890625 53.21875 53.421875 
Q 53.21875 48.921875 51.53125 44.890625 
Q 49.859375 40.875 45.40625 35.40625 
Q 44.1875 33.984375 37.640625 27.21875 
Q 31.109375 20.453125 19.1875 8.296875 
z
" id="DejaVuSans-50"/>
       </defs>
       <use xlink:href="#DejaVuSans-50"/>
       <use x="63.623047" xlink:href="#DejaVuSans-48"/>
       <use x="127.246094" xlink:href="#DejaVuSans-48"/>
      </g>
     </g>
    </g>
    <g id="xtick_4">
     <g id="line2d_4">
      <g>
       <use style="stroke:#000000;stroke-width:0.8;" x="236.685144" xlink:href="#m676897ce2a" y="224.64"/>
      </g>
     </g>
     <g id="text_4">
      <!-- 300 -->
      <g transform="translate(227.141394 239.238437)scale(0.1 -0.1)">
       <defs>
        <path d="M 40.578125 39.3125 
Q 47.65625 37.796875 51.625 33 
Q 55.609375 28.21875 55.609375 21.1875 
Q 55.609375 10.40625 48.1875 4.484375 
Q 40.765625 -1.421875 27.09375 -1.421875 
Q 22.515625 -1.421875 17.65625 -0.515625 
Q 12.796875 0.390625 7.625 2.203125 
L 7.625 11.71875 
Q 11.71875 9.328125 16.59375 8.109375 
Q 21.484375 6.890625 26.8125 6.890625 
Q 36.078125 6.890625 40.9375 10.546875 
Q 45.796875 14.203125 45.796875 21.1875 
Q 45.796875 27.640625 41.28125 31.265625 
Q 36.765625 34.90625 28.71875 34.90625 
L 20.21875 34.90625 
L 20.21875 43.015625 
L 29.109375 43.015625 
Q 36.375 43.015625 40.234375 45.921875 
Q 44.09375 48.828125 44.09375 54.296875 
Q 44.09375 59.90625 40.109375 62.90625 
Q 36.140625 65.921875 28.71875 65.921875 
Q 24.65625 65.921875 20.015625 65.03125 
Q 15.375 64.15625 9.8125 62.3125 
L 9.8125 71.09375 
Q 15.4375 72.65625 20.34375 73.4375 
Q 25.25 74.21875 29.59375 74.21875 
Q 40.828125 74.21875 47.359375 69.109375 
Q 53.90625 64.015625 53.90625 55.328125 
Q 53.90625 49.265625 50.4375 45.09375 
Q 46.96875 40.921875 40.578125 39.3125 
z
" id="DejaVuSans-51"/>
       </defs>
       <use xlink:href="#DejaVuSans-51"/>
       <use x="63.623047" xlink:href="#DejaVuSans-48"/>
       <use x="127.246094" xlink:href="#DejaVuSans-48"/>
      </g>
     </g>
    </g>
    <g id="xtick_5">
     <g id="line2d_5">
      <g>
       <use style="stroke:#000000;stroke-width:0.8;" x="297.679861" xlink:href="#m676897ce2a" y="224.64"/>
      </g>
     </g>
     <g id="text_5">
      <!-- 400 -->
      <g transform="translate(288.136111 239.238437)scale(0.1 -0.1)">
       <defs>
        <path d="M 37.796875 64.3125 
L 12.890625 25.390625 
L 37.796875 25.390625 
z
M 35.203125 72.90625 
L 47.609375 72.90625 
L 47.609375 25.390625 
L 58.015625 25.390625 
L 58.015625 17.1875 
L 47.609375 17.1875 
L 47.609375 0 
L 37.796875 0 
L 37.796875 17.1875 
L 4.890625 17.1875 
L 4.890625 26.703125 
z
" id="DejaVuSans-52"/>
       </defs>
       <use xlink:href="#DejaVuSans-52"/>
       <use x="63.623047" xlink:href="#DejaVuSans-48"/>
       <use x="127.246094" xlink:href="#DejaVuSans-48"/>
      </g>
     </g>
    </g>
    <g id="xtick_6">
     <g id="line2d_6">
      <g>
       <use style="stroke:#000000;stroke-width:0.8;" x="358.674578" xlink:href="#m676897ce2a" y="224.64"/>
      </g>
     </g>
     <g id="text_6">
      <!-- 500 -->
      <g transform="translate(349.130828 239.238437)scale(0.1 -0.1)">
       <defs>
        <path d="M 10.796875 72.90625 
L 49.515625 72.90625 
L 49.515625 64.59375 
L 19.828125 64.59375 
L 19.828125 46.734375 
Q 21.96875 47.46875 24.109375 47.828125 
Q 26.265625 48.1875 28.421875 48.1875 
Q 40.625 48.1875 47.75 41.5 
Q 54.890625 34.8125 54.890625 23.390625 
Q 54.890625 11.625 47.5625 5.09375 
Q 40.234375 -1.421875 26.90625 -1.421875 
Q 22.3125 -1.421875 17.546875 -0.640625 
Q 12.796875 0.140625 7.71875 1.703125 
L 7.71875 11.625 
Q 12.109375 9.234375 16.796875 8.0625 
Q 21.484375 6.890625 26.703125 6.890625 
Q 35.15625 6.890625 40.078125 11.328125 
Q 45.015625 15.765625 45.015625 23.390625 
Q 45.015625 31 40.078125 35.4375 
Q 35.15625 39.890625 26.703125 39.890625 
Q 22.75 39.890625 18.8125 39.015625 
Q 14.890625 38.140625 10.796875 36.28125 
z
" id="DejaVuSans-53"/>
       </defs>
       <use xlink:href="#DejaVuSans-53"/>
       <use x="63.623047" xlink:href="#DejaVuSans-48"/>
       <use x="127.246094" xlink:href="#DejaVuSans-48"/>
      </g>
     </g>
    </g>
   </g>
   <g id="matplotlib.axis_2">
    <g id="ytick_1">
     <g id="line2d_7">
      <defs>
       <path d="M 0 0 
L -3.5 0 
" id="m06ea9bdf13" style="stroke:#000000;stroke-width:0.8;"/>
      </defs>
      <g>
       <use style="stroke:#000000;stroke-width:0.8;" x="38.482813" xlink:href="#m06ea9bdf13" y="191.154904"/>
      </g>
     </g>
     <g id="text_7">
      <!-- −0.4 -->
      <g transform="translate(7.2 194.954123)scale(0.1 -0.1)">
       <defs>
        <path d="M 10.59375 35.5 
L 73.1875 35.5 
L 73.1875 27.203125 
L 10.59375 27.203125 
z
" id="DejaVuSans-8722"/>
        <path d="M 10.6875 12.40625 
L 21 12.40625 
L 21 0 
L 10.6875 0 
z
" id="DejaVuSans-46"/>
       </defs>
       <use xlink:href="#DejaVuSans-8722"/>
       <use x="83.789062" xlink:href="#DejaVuSans-48"/>
       <use x="147.412109" xlink:href="#DejaVuSans-46"/>
       <use x="179.199219" xlink:href="#DejaVuSans-52"/>
      </g>
     </g>
    </g>
    <g id="ytick_2">
     <g id="line2d_8">
      <g>
       <use style="stroke:#000000;stroke-width:0.8;" x="38.482813" xlink:href="#m06ea9bdf13" y="148.937195"/>
      </g>
     </g>
     <g id="text_8">
      <!-- −0.2 -->
      <g transform="translate(7.2 152.736413)scale(0.1 -0.1)">
       <use xlink:href="#DejaVuSans-8722"/>
       <use x="83.789062" xlink:href="#DejaVuSans-48"/>
       <use x="147.412109" xlink:href="#DejaVuSans-46"/>
       <use x="179.199219" xlink:href="#DejaVuSans-50"/>
      </g>
     </g>
    </g>
    <g id="ytick_3">
     <g id="line2d_9">
      <g>
       <use style="stroke:#000000;stroke-width:0.8;" x="38.482813" xlink:href="#m06ea9bdf13" y="106.719485"/>
      </g>
     </g>
     <g id="text_9">
      <!-- 0.0 -->
      <g transform="translate(15.579688 110.518704)scale(0.1 -0.1)">
       <use xlink:href="#DejaVuSans-48"/>
       <use x="63.623047" xlink:href="#DejaVuSans-46"/>
       <use x="95.410156" xlink:href="#DejaVuSans-48"/>
      </g>
     </g>
    </g>
    <g id="ytick_4">
     <g id="line2d_10">
      <g>
       <use style="stroke:#000000;stroke-width:0.8;" x="38.482813" xlink:href="#m06ea9bdf13" y="64.501775"/>
      </g>
     </g>
     <g id="text_10">
      <!-- 0.2 -->
      <g transform="translate(15.579688 68.300994)scale(0.1 -0.1)">
       <use xlink:href="#DejaVuSans-48"/>
       <use x="63.623047" xlink:href="#DejaVuSans-46"/>
       <use x="95.410156" xlink:href="#DejaVuSans-50"/>
      </g>
     </g>
    </g>
    <g id="ytick_5">
     <g id="line2d_11">
      <g>
       <use style="stroke:#000000;stroke-width:0.8;" x="38.482813" xlink:href="#m06ea9bdf13" y="22.284066"/>
      </g>
     </g>
     <g id="text_11">
      <!-- 0.4 -->
      <g transform="translate(15.579688 26.083284)scale(0.1 -0.1)">
       <use xlink:href="#DejaVuSans-48"/>
       <use x="63.623047" xlink:href="#DejaVuSans-46"/>
       <use x="95.410156" xlink:href="#DejaVuSans-52"/>
      </g>
     </g>
    </g>
   </g>
   <g id="line2d_12">
    <path clip-path="url(#p39646a7914)" d="M 53.700994 21.372792 
L 54.310941 28.28356 
L 54.920889 42.074056 
L 56.140783 82.944482 
L 57.970624 151.661092 
L 58.580572 169.906727 
L 59.190519 183.101095 
L 59.800466 189.178919 
L 60.410413 187.39293 
L 61.02036 177.80339 
L 61.630307 162.001954 
L 62.850202 118.958241 
L 64.680043 51.574258 
L 65.28999 34.860065 
L 65.899938 24.133434 
L 66.509885 20.899708 
L 67.119832 25.681405 
L 67.729779 37.614744 
L 68.339726 55.27384 
L 69.559621 99.962072 
L 70.779515 145.86034 
L 71.389462 165.348238 
L 71.999409 180.200008 
L 72.609356 188.251453 
L 73.219304 188.671675 
L 73.829251 181.161262 
L 74.439198 166.919083 
L 75.659092 125.506129 
L 77.488934 57.021964 
L 78.098881 38.98448 
L 78.708828 26.445413 
L 79.318775 21.069632 
L 79.928723 23.384933 
L 80.53867 33.659045 
L 81.148617 49.953552 
L 82.368511 93.453352 
L 84.198353 160.335896 
L 84.8083 176.605862 
L 85.418247 186.786805 
L 86.028194 189.43187 
L 86.638141 183.955208 
L 87.248089 171.514223 
L 87.858036 153.343557 
L 89.687877 84.878896 
L 90.907772 43.460822 
L 91.517719 29.268612 
L 92.127666 21.739559 
L 92.737613 22.05581 
L 93.34756 30.21234 
L 93.957507 44.926583 
L 95.177402 86.90655 
L 97.007243 155.042831 
L 97.61719 172.765193 
L 98.227138 184.676457 
L 98.837085 189.542691 
L 99.447032 186.275485 
L 100.056979 175.467128 
L 100.666926 158.796238 
L 101.886821 114.980403 
L 103.106715 68.641071 
L 103.716662 48.399981 
L 104.326609 32.62108 
L 104.936556 23.022965 
L 105.546504 21.204686 
L 106.156451 27.123846 
L 106.766398 40.270138 
L 107.376345 58.661106 
L 110.426081 168.291782 
L 111.036028 182.06072 
L 111.645975 188.884088 
L 112.255922 187.95861 
L 112.86587 179.233815 
L 113.475817 163.907552 
L 114.695711 121.450354 
L 116.525553 53.629763 
L 117.1355 36.412509 
L 117.745447 24.96668 
L 118.355394 20.801991 
L 118.965341 24.819743 
L 119.575288 36.095629 
L 120.185236 53.177118 
L 121.40513 97.223549 
L 122.625024 143.564777 
L 123.234971 163.517546 
L 123.844919 178.860411 
L 124.454866 187.782898 
L 125.064813 188.981824 
L 125.67476 182.303625 
L 126.284707 168.70365 
L 127.504602 127.909845 
L 129.334443 59.243609 
L 129.94439 40.711491 
L 130.554337 27.477119 
L 131.164285 21.183032 
L 131.774232 23.035818 
L 132.384179 32.286994 
L 132.994126 48.00064 
L 134.21402 90.84596 
L 136.043862 158.336944 
L 136.653809 175.138609 
L 137.263756 186.036876 
L 137.873703 189.540332 
L 138.483651 184.903226 
L 139.093598 173.07253 
L 139.703545 155.491925 
L 140.923439 111.008762 
L 142.143334 64.929356 
L 142.753281 45.434897 
L 143.363228 30.406861 
L 143.973175 22.182403 
L 144.583122 21.684463 
L 145.193069 28.909589 
L 145.803017 43.129315 
L 147.022911 84.401384 
L 148.852752 152.875348 
L 149.4627 170.991453 
L 150.072647 183.701985 
L 150.682594 189.333839 
L 151.292541 187.018878 
L 151.902488 176.904316 
L 152.512435 160.827702 
L 153.73233 117.472749 
L 155.562171 50.378177 
L 156.172118 33.963186 
L 156.782066 23.680198 
L 157.392013 20.985522 
L 158.00196 26.223469 
L 158.611907 38.574261 
L 159.221854 56.518224 
L 161.051696 124.95295 
L 162.27159 166.460713 
L 162.881537 180.844306 
L 163.491484 188.595567 
L 164.101432 188.444956 
L 164.711379 180.410659 
L 165.321326 165.810866 
L 166.54122 124.004246 
L 168.371062 55.720975 
L 168.981009 38.070226 
L 169.590956 25.872567 
L 170.200903 21.047532 
L 170.81085 23.813924 
L 171.420798 34.519795 
L 172.030745 51.075501 
L 173.250639 94.875066 
L 175.080481 161.552172 
L 175.690428 177.426545 
L 176.300375 187.172647 
L 176.910322 189.274899 
L 177.520269 183.361602 
L 178.130216 170.334422 
L 178.740164 152.107594 
L 181.789899 42.433834 
L 182.399847 28.587625 
L 183.009794 21.458977 
L 183.619741 22.346036 
L 184.229688 30.966307 
L 184.839635 46.053824 
L 186.05953 88.364169 
L 187.889371 156.331575 
L 188.499318 173.704642 
L 189.109265 185.228687 
L 189.719213 189.485708 
L 190.32916 185.745399 
L 190.939107 174.586215 
L 191.549054 157.572329 
L 192.768948 113.538362 
L 193.988843 67.297369 
L 194.59879 47.18575 
L 195.208737 31.761393 
L 195.818684 22.690018 
L 196.428631 21.277956 
L 197.038579 27.876958 
L 197.648526 41.328097 
L 198.86842 81.986698 
L 200.698262 150.763002 
L 201.308209 169.260579 
L 201.918156 182.690945 
L 202.528103 189.067934 
L 203.13805 187.63693 
L 203.747997 178.421373 
L 204.357945 162.77226 
L 205.577839 119.95567 
L 207.40768 52.409832 
L 208.017628 35.471273 
L 208.627575 24.467683 
L 209.237522 20.834213 
L 209.847469 25.357328 
L 210.457416 37.017615 
L 211.067363 54.506407 
L 212.287258 98.869952 
L 213.507152 144.96096 
L 214.117099 164.61447 
L 214.727046 179.739128 
L 215.336994 188.070444 
L 215.946941 188.779709 
L 216.556888 181.649035 
L 217.166835 167.64013 
L 218.386729 126.474224 
L 220.216571 57.921299 
L 220.826518 39.65196 
L 221.436465 26.842434 
L 222.046412 21.083541 
L 222.65636 23.323156 
L 223.266307 33.111231 
L 223.876254 49.194601 
L 225.096148 92.408354 
L 226.92599 159.526279 
L 227.535937 176.09266 
L 228.145884 186.496429 
L 228.755831 189.49617 
L 229.365778 184.349121 
L 229.975726 172.129494 
L 230.585673 154.209371 
L 231.805567 109.485835 
L 233.025461 63.539885 
L 233.635409 44.226875 
L 234.245356 29.692073 
L 234.855303 21.909999 
L 235.46525 21.934427 
L 236.075197 29.672081 
L 236.685144 44.17171 
L 237.905039 85.903235 
L 239.73488 154.149176 
L 240.344827 172.031085 
L 240.954775 184.28891 
L 241.564722 189.46464 
L 242.174669 186.592604 
L 242.784616 176.053474 
L 243.394563 159.659936 
L 244.614458 116.00253 
L 246.444299 49.211279 
L 247.054246 33.158149 
L 247.664193 23.255528 
L 248.274141 21.12971 
L 248.884088 26.815005 
L 249.494035 39.604709 
L 250.103982 57.827756 
L 253.153718 167.592722 
L 253.763665 181.552539 
L 254.373612 188.786849 
L 254.983559 188.162896 
L 255.593507 179.66916 
L 256.203454 164.684796 
L 257.423348 122.453981 
L 259.25319 54.466095 
L 259.863137 37.07256 
L 260.473084 25.30132 
L 261.083031 20.909408 
L 261.692978 24.37839 
L 262.302925 35.452495 
L 262.912873 52.400383 
L 264.132767 96.234721 
L 265.352661 142.657253 
L 265.962608 162.740717 
L 266.572556 178.281381 
L 267.182503 187.558438 
L 267.79245 189.101226 
L 268.402397 182.735265 
L 269.012344 169.337215 
L 269.622291 150.811081 
L 272.672027 41.429035 
L 273.281974 27.861149 
L 273.891922 21.26316 
L 274.501869 22.67078 
L 275.111816 31.750994 
L 275.721763 47.221716 
L 276.941657 89.832991 
L 278.771499 157.56237 
L 279.381446 174.541311 
L 279.991393 185.751394 
L 280.60134 189.498145 
L 281.211288 185.229253 
L 281.821235 173.682549 
L 282.431182 156.345022 
L 283.651076 112.02323 
L 284.870971 65.89117 
L 285.480918 46.084504 
L 286.090865 30.929166 
L 286.700812 22.377755 
L 287.310759 21.498598 
L 287.920706 28.473967 
L 288.530654 42.440981 
L 289.750548 83.404638 
L 291.580389 152.118962 
L 292.190337 170.289322 
L 292.800284 183.301417 
L 293.410231 189.233826 
L 294.020178 187.27473 
L 294.630125 177.504357 
L 295.240072 161.609564 
L 296.459967 118.444017 
L 298.289808 51.163303 
L 298.899755 34.553206 
L 299.509703 23.976978 
L 300.11965 20.910924 
L 300.729597 25.843799 
L 301.339544 37.928686 
L 301.949491 55.642067 
L 303.169386 100.468294 
L 304.38928 146.319379 
L 304.999227 165.702637 
L 305.609174 180.391107 
L 306.219121 188.336664 
L 306.829069 188.606809 
L 307.439016 180.915865 
L 308.048963 166.549774 
L 309.268857 125.021192 
L 311.098699 56.583829 
L 311.708646 38.676382 
L 312.318593 26.246525 
L 312.92854 21.074608 
L 313.538487 23.425516 
L 314.148435 33.945364 
L 314.758382 50.303635 
L 315.978276 93.95694 
L 317.808118 160.747235 
L 318.418065 176.853177 
L 319.028012 186.929502 
L 319.637959 189.385978 
L 320.247906 183.77189 
L 320.857853 171.145159 
L 321.467801 152.929724 
L 323.297642 84.390035 
L 324.517536 43.105995 
L 325.127484 29.045253 
L 325.737431 21.65131 
L 326.347378 22.158485 
L 326.957325 30.466223 
L 327.567272 45.311645 
L 328.787167 87.396403 
L 330.617008 155.487694 
L 331.226955 173.140919 
L 331.836902 184.859063 
L 332.44685 189.515232 
L 333.056797 186.102289 
L 333.666744 175.176688 
L 334.276691 158.390357 
L 335.496586 114.479741 
L 336.71648 68.196535 
L 337.326427 48.004823 
L 337.936374 32.350733 
L 338.546321 22.942731 
L 339.156269 21.230252 
L 339.766216 27.383894 
L 340.376163 40.610773 
L 340.98611 59.091428 
L 344.035846 168.619703 
L 344.645793 182.268868 
L 345.25574 188.931899 
L 345.865687 187.854118 
L 346.475635 179.002963 
L 347.085582 163.526982 
L 348.305476 120.944664 
L 350.135318 53.218701 
L 350.745265 36.096994 
L 351.355212 24.804758 
L 351.965159 20.754576 
L 352.575106 25.011125 
L 353.185053 36.406841 
L 353.795001 53.596169 
L 355.014895 97.780081 
L 356.234789 144.036294 
L 356.844736 163.880652 
L 357.454684 179.153864 
L 358.064631 187.878615 
L 358.064631 187.878615 
" style="fill:none;stroke:#1f77b4;stroke-linecap:square;stroke-width:1.5;"/>
   </g>
   <g id="line2d_13">
    <path clip-path="url(#p39646a7914)" d="M 53.700994 106.231933 
L 54.920889 54.348319 
L 55.530836 34.423148 
L 56.140783 21.448686 
L 56.75073 17.08989 
L 57.360677 22.041819 
L 57.970624 35.494021 
L 58.580572 55.766175 
L 59.800466 107.769319 
L 61.02036 162.227572 
L 61.630307 185.35024 
L 62.240255 203.052965 
L 62.850202 213.126774 
L 63.460149 214.116526 
L 64.070096 205.81684 
L 64.680043 189.636753 
L 65.899938 141.670156 
L 67.729779 60.798412 
L 68.339726 39.40835 
L 68.949673 24.15873 
L 69.559621 17.420975 
L 70.169568 19.779042 
L 70.779515 31.021504 
L 71.389462 49.605078 
L 72.609356 100.126887 
L 74.439198 179.372329 
L 75.049145 198.846579 
L 75.659092 211.10972 
L 76.269039 214.680306 
L 76.878987 209.006071 
L 77.488934 194.834797 
L 78.098881 174.160911 
L 79.318775 121.658441 
L 80.53867 67.553853 
L 81.148617 44.739479 
L 81.758564 27.61552 
L 82.368511 18.414061 
L 82.978458 18.21908 
L 83.588406 27.131923 
L 84.198353 43.900797 
L 85.418247 92.50423 
L 87.248089 173.010451 
L 87.858036 194.122406 
L 88.467983 208.551136 
L 89.07793 214.623763 
L 89.687877 211.468875 
L 90.297824 199.428767 
L 90.907772 180.357054 
L 92.127666 129.357092 
L 93.957507 50.583135 
L 94.567455 31.739135 
L 95.177402 20.035579 
L 95.787349 17.322302 
L 96.397296 23.840899 
L 97.007243 38.532905 
L 97.61719 59.715843 
L 99.447032 140.280072 
L 100.666926 188.868361 
L 101.276873 205.275688 
L 101.886821 213.773834 
L 102.496768 213.235129 
L 103.106715 203.639487 
L 103.716662 186.286664 
L 104.936556 136.958304 
L 106.766398 56.802914 
L 107.376345 36.109714 
L 107.986292 22.427674 
L 108.596239 17.119532 
L 109.206187 21.079137 
L 109.816134 33.725175 
L 110.426081 53.378409 
L 111.645975 104.815617 
L 112.86587 159.450004 
L 113.475817 183.124113 
L 114.085764 201.523942 
L 114.695711 212.418617 
L 115.305658 214.302221 
L 115.915605 206.971937 
L 116.525553 191.644201 
L 117.1355 170.068888 
L 120.185236 41.402059 
L 120.795183 25.483738 
L 121.40513 17.601399 
L 122.015077 19.057554 
L 122.625024 29.421054 
L 123.234971 47.377359 
L 124.454866 97.182453 
L 126.284707 177.034437 
L 126.894654 196.948612 
L 127.504602 210.25343 
L 128.114549 214.736635 
L 128.724496 210.053114 
L 129.334443 196.709871 
L 129.94439 176.58456 
L 131.164285 124.688056 
L 132.384179 70.220858 
L 132.994126 46.920204 
L 133.604073 29.128847 
L 134.21402 18.968267 
L 134.823968 17.768165 
L 135.433915 25.655103 
L 136.043862 41.735768 
L 137.263756 89.6454 
L 139.093598 170.539613 
L 139.703545 192.070997 
L 140.313492 207.413566 
L 140.923439 214.406626 
L 141.533386 212.197755 
L 142.143334 201.153274 
L 142.753281 182.624676 
L 143.973175 132.359861 
L 145.803017 52.902072 
L 146.412964 33.307779 
L 147.022911 20.870096 
L 147.632858 17.180196 
L 148.242805 22.72497 
L 148.852752 36.710725 
L 149.4627 57.249438 
L 150.682594 109.511411 
L 151.902488 163.787786 
L 152.512435 186.716875 
L 153.122383 203.895433 
L 153.73233 213.407412 
L 154.342277 213.841273 
L 154.952224 205.033991 
L 155.562171 188.417773 
L 156.782066 139.887049 
L 158.611907 59.272871 
L 159.221854 38.211294 
L 159.831801 23.483851 
L 160.441749 17.204944 
L 161.051696 20.244507 
L 161.661643 32.050914 
L 162.27159 50.953199 
L 163.491484 101.822785 
L 165.321326 180.837826 
L 165.931273 199.854159 
L 166.54122 211.668323 
L 167.151167 214.63086 
L 167.761115 208.266817 
L 168.371062 193.686237 
L 168.981009 172.646527 
L 170.81085 92.028345 
L 172.030745 43.399253 
L 172.640692 26.80621 
L 173.250639 18.0541 
L 173.860586 18.465772 
L 174.470533 27.900669 
L 175.080481 45.181322 
L 176.300375 94.261853 
L 178.130216 174.69881 
L 178.740164 195.270916 
L 179.350111 209.228719 
L 179.960058 214.700311 
L 180.570005 210.957511 
L 181.179952 198.417959 
L 181.789899 178.989394 
L 183.009794 127.60547 
L 184.229688 72.976059 
L 184.839635 49.232831 
L 185.449582 30.707587 
L 186.05953 19.632727 
L 186.669477 17.34644 
L 187.279424 24.531115 
L 187.889371 39.724872 
L 188.499318 61.218624 
L 191.549054 190.147596 
L 192.159001 206.101455 
L 192.768948 214.075962 
L 193.378896 212.864782 
L 193.988843 202.780108 
L 194.59879 184.959372 
L 195.818684 135.25261 
L 197.648526 55.327666 
L 198.258473 35.189559 
L 198.86842 21.810766 
L 199.478367 17.083636 
L 200.088314 21.565219 
L 200.698262 34.702226 
L 201.308209 54.80198 
L 202.528103 106.623519 
L 203.747997 161.08882 
L 204.357945 184.46868 
L 204.967892 202.476112 
L 205.577839 212.85907 
L 206.187786 214.170791 
L 206.797733 206.28269 
L 207.40768 190.434959 
L 208.627575 142.853936 
L 210.457416 61.840111 
L 211.067363 40.135638 
L 211.677311 24.681147 
L 212.287258 17.498209 
L 212.897205 19.470843 
L 213.507152 30.386183 
L 214.117099 48.705979 
L 215.336994 98.946145 
L 217.166835 178.408565 
L 217.776782 198.116076 
L 218.386729 210.750074 
L 218.996677 214.682319 
L 219.606624 209.42292 
L 220.216571 195.586418 
L 220.826518 175.154028 
L 222.046412 122.878533 
L 223.266307 68.608128 
L 223.876254 45.727985 
L 224.486201 28.196317 
L 225.096148 18.623203 
L 225.706095 18.040021 
L 226.316043 26.549257 
L 226.92599 43.000584 
L 228.145884 91.34218 
L 229.975726 172.041415 
L 230.585673 193.334687 
L 231.19562 208.099045 
L 231.805567 214.546247 
L 232.415514 211.749633 
L 233.025461 200.117278 
L 233.635409 181.296347 
L 234.855303 130.543112 
L 236.685144 51.50358 
L 237.295092 32.369398 
L 237.905039 20.341136 
L 238.514986 17.282681 
L 239.124933 23.369054 
L 239.73488 37.759454 
L 240.344827 58.695631 
L 241.564722 111.364533 
L 242.784616 165.360184 
L 243.394563 188.036844 
L 244.00451 204.729982 
L 244.614458 213.633269 
L 245.224405 213.47041 
L 245.834352 204.19775 
L 246.444299 187.165488 
L 247.664193 138.165216 
L 249.494035 57.782776 
L 250.103982 36.924088 
L 250.713929 22.860188 
L 251.323876 17.156812 
L 251.933824 20.778953 
L 252.543771 33.063106 
L 253.153718 52.411229 
L 254.373612 103.610545 
L 256.203454 182.222007 
L 256.813401 200.843779 
L 257.423348 212.131543 
L 258.033295 214.432796 
L 258.643242 207.499519 
L 259.25319 192.481977 
L 259.863137 171.069611 
L 261.692978 90.447456 
L 262.912873 42.212746 
L 263.52282 26.031099 
L 264.132767 17.719196 
L 264.742714 18.792265 
L 265.352661 28.806223 
L 265.962608 46.491892 
L 267.182503 95.990702 
L 269.012344 176.102958 
L 269.622291 196.289021 
L 270.232239 209.865311 
L 270.842186 214.756364 
L 271.452133 210.46634 
L 272.06208 197.424924 
L 272.672027 177.48656 
L 273.891922 125.865111 
L 275.111816 71.324778 
L 275.721763 47.828488 
L 276.33171 29.72824 
L 276.941657 19.179145 
L 277.551605 17.59512 
L 278.161552 25.176885 
L 278.771499 40.922778 
L 279.991393 88.48775 
L 281.821235 169.496174 
L 282.431182 191.233637 
L 283.041129 206.930467 
L 283.651076 214.291552 
L 284.261023 212.483589 
L 284.870971 201.819376 
L 285.480918 183.569379 
L 286.700812 133.56945 
L 288.530654 53.86337 
L 289.140601 34.038904 
L 289.750548 21.26884 
L 290.360495 17.120407 
L 290.970442 22.277044 
L 291.580389 35.895426 
L 292.190337 56.292672 
L 293.410231 108.33877 
L 294.630125 162.77165 
L 295.240072 185.809705 
L 295.85002 203.333804 
L 296.459967 213.236765 
L 297.069914 214.082102 
L 297.679861 205.570903 
L 298.289808 189.240752 
L 299.509703 141.071115 
L 301.339544 60.293807 
L 301.949491 39.03811 
L 302.559438 23.921625 
L 303.169386 17.350082 
L 303.779333 19.938787 
L 304.38928 31.365335 
L 304.999227 50.050036 
L 306.219121 100.712874 
L 308.048963 179.853107 
L 308.65891 199.18756 
L 309.268857 211.28552 
L 309.878804 214.721839 
L 310.488752 208.765053 
L 311.098699 194.45529 
L 311.708646 173.656353 
L 312.92854 121.054059 
L 314.148435 67.028646 
L 314.758382 44.293672 
L 315.368329 27.341713 
L 315.978276 18.306077 
L 316.588223 18.299314 
L 317.19817 27.403075 
L 317.808118 44.328964 
L 319.028012 93.097905 
L 320.857853 173.5512 
L 321.467801 194.500963 
L 322.077748 208.788681 
L 322.687695 214.653431 
L 323.297642 211.304613 
L 323.907589 199.088289 
L 324.517536 179.889991 
L 325.737431 128.749191 
L 327.567272 50.127678 
L 328.177219 31.419789 
L 328.787167 19.893417 
L 329.397114 17.280404 
L 330.007061 24.059805 
L 330.617008 38.928585 
L 331.226955 60.247908 
L 333.056797 140.863319 
L 334.276691 189.35046 
L 334.886638 205.542229 
L 335.496586 213.85588 
L 336.106533 213.116444 
L 336.71648 203.358779 
L 337.326427 185.846595 
L 338.546321 136.366856 
L 340.376163 56.313234 
L 340.98611 35.792211 
L 341.596057 22.203968 
L 342.206004 17.098238 
L 342.815952 21.197608 
L 343.425899 34.035331 
L 344.035846 53.868743 
L 345.25574 105.422285 
L 346.475635 159.967134 
L 347.085582 183.576412 
L 347.695529 201.868641 
L 348.305476 212.563635 
L 348.915423 214.239476 
L 349.52537 206.744752 
L 350.135318 191.217557 
L 351.355212 143.967509 
L 353.185053 62.862796 
L 353.795001 40.960908 
L 354.404948 25.212133 
L 355.014895 17.596725 
L 355.624842 19.191513 
L 356.234789 29.743911 
L 356.844736 47.822153 
L 358.064631 97.77925 
L 358.064631 97.77925 
" style="fill:none;stroke:#ff7f0e;stroke-linecap:square;stroke-width:1.5;"/>
   </g>
   <g id="patch_3">
    <path d="M 38.482813 224.64 
L 38.482813 7.2 
" style="fill:none;stroke:#000000;stroke-linecap:square;stroke-linejoin:miter;stroke-width:0.8;"/>
   </g>
   <g id="patch_4">
    <path d="M 373.282813 224.64 
L 373.282813 7.2 
" style="fill:none;stroke:#000000;stroke-linecap:square;stroke-linejoin:miter;stroke-width:0.8;"/>
   </g>
   <g id="patch_5">
    <path d="M 38.482813 224.64 
L 373.282812 224.64 
" style="fill:none;stroke:#000000;stroke-linecap:square;stroke-linejoin:miter;stroke-width:0.8;"/>
   </g>
   <g id="patch_6">
    <path d="M 38.482813 7.2 
L 373.282812 7.2 
" style="fill:none;stroke:#000000;stroke-linecap:square;stroke-linejoin:miter;stroke-width:0.8;"/>
   </g>
  </g>
 </g>
 <defs>
  <clipPath id="p39646a7914">
   <rect height="217.44" width="334.8" x="38.482813" y="7.2"/>
  </clipPath>
 </defs>
</svg>
