<?xml version="1.0" encoding="utf-8" standalone="no"?>
<!DOCTYPE svg PUBLIC "-//W3C//DTD SVG 1.1//EN"
  "http://www.w3.org/Graphics/SVG/1.1/DTD/svg11.dtd">
<!-- Created with matplotlib (https://matplotlib.org/) -->
<svg height="189.605pt" version="1.1" viewBox="0 0 585.688889 189.605" width="585.688889pt" xmlns="http://www.w3.org/2000/svg" xmlns:xlink="http://www.w3.org/1999/xlink">
 <metadata>
  <rdf:RDF xmlns:cc="http://creativecommons.org/ns#" xmlns:dc="http://purl.org/dc/elements/1.1/" xmlns:rdf="http://www.w3.org/1999/02/22-rdf-syntax-ns#">
   <cc:Work>
    <dc:type rdf:resource="http://purl.org/dc/dcmitype/StillImage"/>
    <dc:date>2021-02-16T16:30:04.384666</dc:date>
    <dc:format>image/svg+xml</dc:format>
    <dc:creator>
     <cc:Agent>
      <dc:title>Matplotlib v3.3.3, https://matplotlib.org/</dc:title>
     </cc:Agent>
    </dc:creator>
   </cc:Work>
  </rdf:RDF>
 </metadata>
 <defs>
  <style type="text/css">*{stroke-linecap:butt;stroke-linejoin:round;}</style>
 </defs>
 <g id="figure_1">
  <g id="patch_1">
   <path d="M 0 189.605 
L 585.688889 189.605 
L 585.688889 0 
L 0 0 
z
" style="fill:none;"/>
  </g>
  <g id="axes_1">
   <g id="LineCollection_1">
    <path clip-path="url(#pf3b8f17b9b)" d="M 14.088889 100.865 
L 565.2 100.865 
" style="fill:none;stroke:#000000;stroke-width:1.5;"/>
   </g>
   <g id="LineCollection_2">
    <path clip-path="url(#pf3b8f17b9b)" d="M 14.088889 182.405 
L 14.088889 19.325 
" style="fill:none;stroke:#000000;stroke-width:1.5;"/>
   </g>
   <g id="line2d_1">
    <path clip-path="url(#pf3b8f17b9b)" d="M 14.088889 32.915 
L 17.533333 35.856416 
L 20.977778 44.426009 
L 24.422222 57.881857 
L 27.866667 75.05901 
L 38.2 133.225386 
L 41.644444 149.213849 
L 45.088889 161.016468 
L 48.533333 167.611419 
L 51.977778 168.427739 
L 55.422222 163.394754 
L 58.866667 152.9482 
L 62.311111 137.992496 
L 65.755556 119.822446 
L 72.644444 80.273753 
L 76.088889 62.319075 
L 79.533333 47.701544 
L 82.977778 37.686688 
L 86.422222 33.14155 
L 89.866667 34.459631 
L 93.311111 41.526816 
L 96.755556 53.731258 
L 100.2 70.016346 
L 103.644444 88.972183 
L 107.088889 108.957652 
L 110.533333 128.242492 
L 113.977778 145.157102 
L 117.422222 158.237083 
L 120.866667 166.350024 
L 124.311111 168.793541 
L 127.755556 165.356083 
L 131.2 156.335252 
L 134.644444 142.512034 
L 138.088889 125.083187 
L 148.422222 67.013322 
L 151.866667 51.331582 
L 155.311111 39.938242 
L 158.755556 33.81969 
L 162.2 33.505646 
L 165.644444 39.023299 
L 169.088889 49.894953 
L 172.533333 65.179384 
L 175.977778 83.553329 
L 182.866667 123.077042 
L 186.311111 140.805008 
L 189.755556 155.075132 
L 193.2 164.651966 
L 196.644444 168.706385 
L 200.088889 166.887376 
L 203.533333 159.352421 
L 206.977778 146.753864 
L 210.422222 130.182438 
L 213.866667 111.072829 
L 217.311111 91.079467 
L 220.755556 71.933297 
L 224.2 55.291915 
L 227.644444 42.596064 
L 231.088889 34.944898 
L 234.533333 33.000824 
L 237.977778 36.932152 
L 241.422222 46.398523 
L 244.866667 60.580379 
L 248.311111 78.249912 
L 255.2 117.763478 
L 258.644444 136.186588 
L 262.088889 151.551701 
L 265.533333 162.528567 
L 268.977778 168.166854 
L 272.422222 167.978423 
L 275.866667 161.979587 
L 279.311111 150.689701 
L 282.755556 135.086197 
L 286.2 116.519962 
L 293.088889 77.046193 
L 296.533333 59.556136 
L 299.977778 45.642432 
L 303.422222 36.50967 
L 306.866667 32.948529 
L 310.311111 35.267318 
L 313.755556 43.265284 
L 317.2 56.249998 
L 320.644444 73.097295 
L 324.088889 92.348607 
L 327.533333 112.337233 
L 330.977778 131.33264 
L 334.422222 147.690283 
L 337.866667 159.993986 
L 341.311111 167.178544 
L 344.755556 168.621947 
L 348.2 164.199232 
L 351.644444 154.293299 
L 355.088889 139.761763 
L 358.533333 121.862705 
L 365.422222 82.317916 
L 368.866667 64.095811 
L 372.311111 49.057031 
L 375.755556 38.503573 
L 379.2 33.349111 
L 382.644444 34.039898 
L 386.088889 40.516128 
L 389.533333 52.217116 
L 392.977778 68.129838 
L 396.422222 86.876636 
L 403.311111 126.275528 
L 406.755556 143.516628 
L 410.2 157.065125 
L 413.644444 165.748046 
L 417.088889 168.813659 
L 420.533333 165.996556 
L 423.977778 157.54063 
L 427.422222 144.17796 
L 430.866667 127.065432 
L 441.2 68.880668 
L 444.644444 52.817094 
L 448.088889 40.913311 
L 451.533333 34.199899 
L 454.977778 33.258078 
L 458.422222 38.169387 
L 461.866667 48.508625 
L 465.311111 63.380663 
L 468.755556 81.497941 
L 475.644444 121.048975 
L 479.088889 139.058566 
L 482.533333 153.761513 
L 485.977778 163.884898 
L 489.422222 168.552279 
L 492.866667 167.359572 
L 496.311111 160.410039 
L 499.755556 148.30534 
L 503.2 132.093452 
L 506.644444 113.177932 
L 510.088889 93.196409 
L 513.533333 73.878801 
L 516.977778 56.897547 
L 520.422222 43.722816 
L 523.866667 35.49522 
L 527.311111 32.927071 
L 527.311111 32.927071 
" style="fill:none;stroke:#000000;stroke-linecap:square;stroke-width:1.5;"/>
   </g>
   <g id="line2d_2">
    <path clip-path="url(#pf3b8f17b9b)" d="M 14.088889 100.865 
L 17.533333 81.089092 
L 20.977778 63.025302 
L 24.422222 48.237517 
L 27.866667 38.006004 
L 31.311111 33.216565 
L 34.755556 34.283849 
L 38.2 41.115457 
L 41.644444 53.119935 
L 45.088889 69.257984 
L 48.533333 88.13244 
L 55.422222 127.458841 
L 58.866667 144.506068 
L 62.311111 157.77503 
L 65.755556 166.116956 
L 69.2 168.809635 
L 72.644444 165.619946 
L 76.088889 156.82404 
L 79.533333 143.18343 
L 82.977778 125.879063 
L 93.311111 67.756354 
L 96.755556 51.920002 
L 100.2 40.321107 
L 103.644444 33.963853 
L 107.088889 33.398627 
L 110.533333 38.674362 
L 113.977778 49.334308 
L 117.422222 64.455569 
L 120.866667 82.72901 
L 127.755556 122.268334 
L 131.2 140.111065 
L 134.644444 154.556033 
L 138.088889 164.352652 
L 141.533333 168.65277 
L 144.977778 167.084101 
L 148.422222 159.782454 
L 151.866667 147.379976 
L 155.311111 130.950422 
L 158.755556 111.916195 
L 162.2 91.925202 
L 165.644444 72.708179 
L 169.088889 55.928859 
L 172.533333 43.039925 
L 175.977778 35.157249 
L 179.422222 32.96328 
L 182.866667 36.647964 
L 186.311111 45.892295 
L 189.755556 59.895938 
L 193.2 77.446513 
L 200.088889 116.935107 
L 203.533333 135.454364 
L 206.977778 150.979016 
L 210.422222 162.165003 
L 213.866667 168.043886 
L 217.311111 168.106697 
L 220.755556 162.347998 
L 224.2 151.266353 
L 227.644444 135.821166 
L 231.088889 117.349618 
L 237.977778 77.847758 
L 241.422222 60.237356 
L 244.866667 46.144329 
L 248.311111 36.788793 
L 251.755556 32.980712 
L 255.2 35.049774 
L 258.644444 42.816849 
L 262.088889 55.609494 
L 265.533333 72.320175 
L 268.977778 91.50215 
L 272.422222 111.494722 
L 275.866667 130.567016 
L 279.311111 147.067832 
L 282.755556 159.568596 
L 286.2 166.987044 
L 289.644444 168.680916 
L 293.088889 164.503565 
L 296.533333 154.816648 
L 299.977778 140.458818 
L 303.422222 122.673118 
L 310.311111 83.14082 
L 313.755556 64.816765 
L 317.2 49.613619 
L 320.644444 38.847607 
L 324.088889 33.450806 
L 327.533333 33.89045 
L 330.977778 40.128475 
L 334.422222 51.62482 
L 337.866667 67.384177 
L 341.311111 86.042167 
L 348.2 125.481611 
L 351.644444 142.848561 
L 355.088889 156.580746 
L 358.533333 165.48929 
L 361.977778 168.802929 
L 365.422222 166.23478 
L 368.866667 158.007184 
L 372.311111 144.832453 
L 375.755556 127.851199 
L 379.2 108.533591 
L 382.644444 88.552068 
L 386.088889 69.636548 
L 389.533333 53.42466 
L 392.977778 41.319961 
L 396.422222 34.370428 
L 399.866667 33.177721 
L 403.311111 37.845102 
L 406.755556 47.968487 
L 410.2 62.671434 
L 413.644444 80.681025 
L 420.533333 120.232059 
L 423.977778 138.349337 
L 427.422222 153.221375 
L 430.866667 163.560613 
L 434.311111 168.471922 
L 437.755556 167.530101 
L 441.2 160.816689 
L 444.644444 148.912906 
L 448.088889 132.849332 
L 451.533333 114.016686 
L 458.422222 74.664568 
L 461.866667 57.55204 
L 465.311111 44.18937 
L 468.755556 35.733444 
L 472.2 32.916341 
L 475.644444 35.981954 
L 479.088889 44.664875 
L 482.533333 58.213372 
L 485.977778 75.454472 
L 496.311111 133.600162 
L 499.755556 149.512884 
L 503.2 161.213872 
L 506.644444 167.690102 
L 510.088889 168.380889 
L 513.533333 163.226427 
L 516.977778 152.672969 
L 520.422222 137.634189 
L 523.866667 119.412084 
L 527.311111 99.584249 
L 527.311111 99.584249 
" style="fill:none;stroke:#000000;stroke-dasharray:5.55,2.4;stroke-dashoffset:0;stroke-width:1.5;"/>
   </g>
   <g id="patch_2">
    <path d="M 7.2 100.615 
Q 282.200359 100.615 557.200717 100.615 
L 557.200717 98.365 
Q 561.200359 99.615 565.2 100.865 
Q 561.200359 102.115 557.200717 103.365 
L 557.200717 101.115 
Q 282.200359 101.115 7.2 101.115 
L 7.2 100.615 
z
" style="stroke:#000000;stroke-linecap:round;"/>
   </g>
   <g id="patch_3">
    <path d="M 13.838889 100.865 
Q 13.838889 64.093864 13.838889 27.322728 
L 11.588889 27.322728 
Q 12.838889 23.323864 14.088889 19.325 
Q 15.338889 23.323864 16.588889 27.322728 
L 14.338889 27.322728 
Q 14.338889 64.093864 14.338889 100.865 
L 13.838889 100.865 
z
" style="stroke:#000000;stroke-linecap:round;"/>
   </g>
   <g id="text_1">
    <!-- $t$ -->
    <g transform="translate(572.088889 114.455)scale(0.16 -0.16)">
     <defs>
      <path d="M 42.28125 54.6875 
L 40.921875 47.703125 
L 23 47.703125 
L 17.1875 18.015625 
Q 16.890625 16.359375 16.75 15.234375 
Q 16.609375 14.109375 16.609375 13.484375 
Q 16.609375 10.359375 18.484375 8.9375 
Q 20.359375 7.515625 24.515625 7.515625 
L 33.59375 7.515625 
L 32.078125 0 
L 23.484375 0 
Q 15.484375 0 11.546875 3.125 
Q 7.625 6.25 7.625 12.59375 
Q 7.625 13.71875 7.765625 15.0625 
Q 7.90625 16.40625 8.203125 18.015625 
L 14.015625 47.703125 
L 6.390625 47.703125 
L 7.8125 54.6875 
L 15.28125 54.6875 
L 18.3125 70.21875 
L 27.296875 70.21875 
L 24.3125 54.6875 
z
" id="DejaVuSans-Oblique-116"/>
     </defs>
     <use transform="translate(0 0.78125)" xlink:href="#DejaVuSans-Oblique-116"/>
    </g>
   </g>
   <g id="text_2">
    <!-- $Amp$ -->
    <g transform="translate(20.977778 19.325)scale(0.16 -0.16)">
     <defs>
      <path d="M 36.8125 72.90625 
L 48 72.90625 
L 61.53125 0 
L 51.21875 0 
L 48.1875 18.703125 
L 15.375 18.703125 
L 5.078125 0 
L -5.328125 0 
z
M 40.375 63.1875 
L 19.921875 26.90625 
L 46.6875 26.90625 
z
" id="DejaVuSans-Oblique-65"/>
      <path d="M 89.796875 33.015625 
L 83.40625 0 
L 74.421875 0 
L 80.71875 32.71875 
Q 81.109375 34.8125 81.296875 36.328125 
Q 81.5 37.84375 81.5 38.921875 
Q 81.5 43.3125 79.046875 45.75 
Q 76.609375 48.1875 72.21875 48.1875 
Q 65.671875 48.1875 60.546875 43.28125 
Q 55.421875 38.375 53.90625 30.515625 
L 47.90625 0 
L 38.921875 0 
L 45.3125 32.71875 
Q 45.703125 34.515625 45.890625 36.046875 
Q 46.09375 37.59375 46.09375 38.8125 
Q 46.09375 43.265625 43.65625 45.71875 
Q 41.21875 48.1875 36.921875 48.1875 
Q 30.28125 48.1875 25.140625 43.28125 
Q 20.015625 38.375 18.5 30.515625 
L 12.5 0 
L 3.515625 0 
L 14.203125 54.6875 
L 23.1875 54.6875 
L 21.484375 46.1875 
Q 25.140625 50.984375 30.046875 53.484375 
Q 34.96875 56 40.578125 56 
Q 46.53125 56 50.359375 52.875 
Q 54.203125 49.75 54.984375 44.1875 
Q 59.078125 49.953125 64.46875 52.96875 
Q 69.875 56 75.875 56 
Q 82.90625 56 86.734375 51.953125 
Q 90.578125 47.90625 90.578125 40.484375 
Q 90.578125 38.875 90.375 36.9375 
Q 90.1875 35.015625 89.796875 33.015625 
z
" id="DejaVuSans-Oblique-109"/>
      <path d="M 49.609375 33.6875 
Q 49.609375 40.875 46.484375 44.671875 
Q 43.359375 48.484375 37.5 48.484375 
Q 33.5 48.484375 29.859375 46.4375 
Q 26.21875 44.390625 23.390625 40.484375 
Q 20.609375 36.625 18.9375 31.15625 
Q 17.28125 25.6875 17.28125 20.3125 
Q 17.28125 13.484375 20.40625 9.796875 
Q 23.53125 6.109375 29.296875 6.109375 
Q 33.546875 6.109375 37.1875 8.109375 
Q 40.828125 10.109375 43.40625 13.921875 
Q 46.1875 17.921875 47.890625 23.34375 
Q 49.609375 28.765625 49.609375 33.6875 
z
M 21.78125 46.390625 
Q 25.390625 51.125 30.296875 53.5625 
Q 35.203125 56 41.21875 56 
Q 49.609375 56 54.25 50.5 
Q 58.890625 45.015625 58.890625 35.109375 
Q 58.890625 27 56 19.65625 
Q 53.125 12.3125 47.703125 6.5 
Q 44.09375 2.640625 39.546875 0.609375 
Q 35.015625 -1.421875 29.984375 -1.421875 
Q 24.171875 -1.421875 20.21875 1 
Q 16.265625 3.421875 14.3125 8.203125 
L 8.6875 -20.796875 
L -0.296875 -20.796875 
L 14.40625 54.6875 
L 23.390625 54.6875 
z
" id="DejaVuSans-Oblique-112"/>
     </defs>
     <use transform="translate(0 0.09375)" xlink:href="#DejaVuSans-Oblique-65"/>
     <use transform="translate(68.408203 0.09375)" xlink:href="#DejaVuSans-Oblique-109"/>
     <use transform="translate(165.820312 0.09375)" xlink:href="#DejaVuSans-Oblique-112"/>
    </g>
   </g>
   <g id="legend_1">
    <g id="patch_4">
     <path d="M 485.54 71.62375 
L 555.4 71.62375 
Q 558.2 71.62375 558.2 68.82375 
L 558.2 29.125 
Q 558.2 26.325 555.4 26.325 
L 485.54 26.325 
Q 482.74 26.325 482.74 29.125 
L 482.74 68.82375 
Q 482.74 71.62375 485.54 71.62375 
z
" style="fill:#ffffff;opacity:0.8;stroke:#cccccc;stroke-linejoin:miter;"/>
    </g>
    <g id="line2d_3">
     <path d="M 488.34 37.662813 
L 516.34 37.662813 
" style="fill:none;stroke:#000000;stroke-linecap:square;stroke-width:1.5;"/>
    </g>
    <g id="line2d_4"/>
    <g id="text_3">
     <!-- $\Re(\Phi)$ -->
     <g transform="translate(519.14 42.562813)scale(0.14 -0.14)">
      <defs>
       <path d="M 62.59375 -1.421875 
Q 58.59375 7.515625 58.59375 15.28125 
Q 58.59375 22.125 57.515625 26.5625 
Q 55.5625 34.671875 51.703125 34.671875 
Q 49.65625 34.671875 45.171875 32.5625 
L 39.3125 29.828125 
L 39.3125 20.125 
Q 39.3125 10.0625 34.28125 4.296875 
Q 29.25 -1.421875 22.40625 -1.421875 
Q 15.53125 -1.421875 10.546875 4.296875 
Q 5.515625 10.0625 5.515625 18.65625 
Q 7.71875 18.0625 9.96875 17.484375 
Q 9.96875 11.53125 13.09375 7.328125 
Q 16.21875 3.078125 19.734375 3.078125 
Q 23.25 3.078125 26.3125 7.328125 
Q 29.4375 11.578125 29.4375 18.890625 
L 29.4375 51.46875 
Q 29.4375 58.734375 26.3125 63.03125 
Q 23.25 67.28125 18.75 67.28125 
Q 14.796875 67.28125 11.625 63.03125 
Q 8.5 58.84375 8.5 53.90625 
Q 8.5 48.96875 11.625 44.78125 
Q 14.75 40.53125 18.796875 40.53125 
L 21.4375 36.03125 
Q 14.0625 36.03125 9.078125 41.75 
Q 4.046875 47.515625 4.046875 55.125 
Q 4.046875 62.796875 9.078125 68.5 
Q 14.0625 74.21875 21.4375 74.21875 
Q 29.34375 74.21875 34.28125 68.5 
Q 35.75 66.796875 36.53125 65.234375 
L 46.828125 70.015625 
Q 55.953125 74.265625 61.421875 74.265625 
Q 63.71875 74.265625 65.484375 73.578125 
Q 71.625 71.1875 71.625 62.546875 
Q 71.625 58.296875 68.453125 52.296875 
Q 65.234375 46.234375 59.125 41.65625 
Q 61.96875 41.65625 64.359375 39.265625 
Q 66.109375 37.5 67.4375 32.421875 
Q 69 26.421875 69 20.015625 
Q 69 13.765625 71.1875 8.015625 
L 78.21875 11.28125 
L 80.28125 6.84375 
z
M 38.28125 60.890625 
Q 39.3125 57.234375 39.3125 52.734375 
L 39.3125 35.015625 
L 46.828125 38.484375 
Q 53.859375 41.75 57.625 46.828125 
Q 61.234375 51.8125 61.234375 57.71875 
Q 61.234375 65.09375 57.625 66.65625 
Q 56.453125 67.140625 54.9375 67.140625 
Q 51.8125 67.140625 46.828125 64.84375 
z
" id="DejaVuSans-Oblique-8476"/>
       <path d="M 31 75.875 
Q 24.46875 64.65625 21.28125 53.65625 
Q 18.109375 42.671875 18.109375 31.390625 
Q 18.109375 20.125 21.3125 9.0625 
Q 24.515625 -2 31 -13.1875 
L 23.1875 -13.1875 
Q 15.875 -1.703125 12.234375 9.375 
Q 8.59375 20.453125 8.59375 31.390625 
Q 8.59375 42.28125 12.203125 53.3125 
Q 15.828125 64.359375 23.1875 75.875 
z
" id="DejaVuSans-40"/>
       <path d="M 34.46875 56.9375 
Q 27.15625 55.90625 22.359375 51.65625 
Q 16.015625 46.046875 16.015625 36.375 
Q 16.015625 26.765625 22.359375 21.140625 
Q 27.15625 16.890625 34.46875 15.875 
z
M 44.34375 15.875 
Q 51.65625 16.890625 56.453125 21.140625 
Q 62.703125 26.765625 62.703125 36.375 
Q 62.703125 46.046875 56.453125 51.65625 
Q 51.65625 55.90625 44.34375 56.9375 
z
M 34.46875 7.71875 
Q 22.5625 8.796875 14.84375 15.328125 
Q 5.609375 23.140625 5.609375 36.375 
Q 5.609375 49.609375 14.84375 57.46875 
Q 22.515625 64.0625 34.46875 65.140625 
L 34.46875 72.90625 
L 44.34375 72.90625 
L 44.34375 65.140625 
Q 56.25 64.015625 63.921875 57.46875 
Q 73.09375 49.609375 73.09375 36.375 
Q 73.09375 23.1875 63.921875 15.328125 
Q 56.25 8.796875 44.34375 7.671875 
L 44.34375 0 
L 34.46875 0 
z
" id="DejaVuSans-934"/>
       <path d="M 8.015625 75.875 
L 15.828125 75.875 
Q 23.140625 64.359375 26.78125 53.3125 
Q 30.421875 42.28125 30.421875 31.390625 
Q 30.421875 20.453125 26.78125 9.375 
Q 23.140625 -1.703125 15.828125 -13.1875 
L 8.015625 -13.1875 
Q 14.5 -2 17.703125 9.0625 
Q 20.90625 20.125 20.90625 31.390625 
Q 20.90625 42.671875 17.703125 53.65625 
Q 14.5 64.65625 8.015625 75.875 
z
" id="DejaVuSans-41"/>
      </defs>
      <use transform="translate(0 0.125)" xlink:href="#DejaVuSans-Oblique-8476"/>
      <use transform="translate(81.396484 0.125)" xlink:href="#DejaVuSans-40"/>
      <use transform="translate(120.410156 0.125)" xlink:href="#DejaVuSans-934"/>
      <use transform="translate(199.121094 0.125)" xlink:href="#DejaVuSans-41"/>
     </g>
    </g>
    <g id="line2d_5">
     <path d="M 488.34 58.212188 
L 516.34 58.212188 
" style="fill:none;stroke:#000000;stroke-dasharray:5.55,2.4;stroke-dashoffset:0;stroke-width:1.5;"/>
    </g>
    <g id="line2d_6"/>
    <g id="text_4">
     <!-- $\Im(\Phi)$ -->
     <g transform="translate(519.14 63.112188)scale(0.14 -0.14)">
      <defs>
       <path d="M 5.171875 4.390625 
L 12.015625 12.453125 
Q 17.4375 14.359375 23.140625 14.359375 
Q 25.921875 14.359375 32.375 10.453125 
Q 39.40625 6.25 41.015625 6.25 
Q 46.921875 6.25 51.8125 12.9375 
Q 55.28125 17.671875 55.28125 21.34375 
Q 55.28125 27.484375 52.25 32.953125 
Q 48.34375 40.09375 48.34375 45.40625 
Q 48.34375 50.296875 52.25 58.109375 
L 62.640625 64.9375 
Q 58.734375 58.15625 58.734375 52.25 
Q 58.734375 47.015625 62.640625 39.796875 
Q 65.234375 35.015625 65.234375 25.828125 
Q 65.234375 21.234375 55.375 9.421875 
Q 46.296875 -1.421875 34.46875 -1.421875 
Q 31.84375 -1.421875 25.53125 2.4375 
Q 19.046875 6.34375 16.3125 6.34375 
Q 11.71875 6.34375 5.171875 4.390625 
z
M 17.09375 71.484375 
Q 22.40625 74.21875 29.296875 74.21875 
Q 35.296875 74.21875 41.5 71.828125 
Q 47.46875 69.53125 53.71875 69.53125 
Q 59.8125 69.53125 65.921875 72.359375 
L 56.15625 64.0625 
Q 49.359375 61.234375 43.953125 61.234375 
Q 36.96875 61.234375 31.734375 63.625 
Q 26.515625 66.015625 19.53125 66.015625 
Q 13.578125 66.015625 7.328125 63.1875 
z
" id="DejaVuSans-Oblique-8465"/>
      </defs>
      <use transform="translate(0 0.125)" xlink:href="#DejaVuSans-Oblique-8465"/>
      <use transform="translate(69.726562 0.125)" xlink:href="#DejaVuSans-40"/>
      <use transform="translate(108.740234 0.125)" xlink:href="#DejaVuSans-934"/>
      <use transform="translate(187.451172 0.125)" xlink:href="#DejaVuSans-41"/>
     </g>
    </g>
   </g>
  </g>
 </g>
 <defs>
  <clipPath id="pf3b8f17b9b">
   <rect height="163.08" width="558" x="7.2" y="19.325"/>
  </clipPath>
 </defs>
</svg>
