<?xml version="1.0" encoding="utf-8" standalone="no"?>
<!DOCTYPE svg PUBLIC "-//W3C//DTD SVG 1.1//EN"
  "http://www.w3.org/Graphics/SVG/1.1/DTD/svg11.dtd">
<!-- Created with matplotlib (https://matplotlib.org/) -->
<svg height="227.979207pt" version="1.1" viewBox="0 0 390.982812 227.979207" width="390.982812pt" xmlns="http://www.w3.org/2000/svg" xmlns:xlink="http://www.w3.org/1999/xlink">
 <metadata>
  <rdf:RDF xmlns:cc="http://creativecommons.org/ns#" xmlns:dc="http://purl.org/dc/elements/1.1/" xmlns:rdf="http://www.w3.org/1999/02/22-rdf-syntax-ns#">
   <cc:Work>
    <dc:type rdf:resource="http://purl.org/dc/dcmitype/StillImage"/>
    <dc:date>2021-03-14T11:50:35.710476</dc:date>
    <dc:format>image/svg+xml</dc:format>
    <dc:creator>
     <cc:Agent>
      <dc:title>Matplotlib v3.3.3, https://matplotlib.org/</dc:title>
     </cc:Agent>
    </dc:creator>
   </cc:Work>
  </rdf:RDF>
 </metadata>
 <defs>
  <style type="text/css">*{stroke-linecap:butt;stroke-linejoin:round;}</style>
 </defs>
 <g id="figure_1">
  <g id="patch_1">
   <path d="M 0 227.979207 
L 390.982812 227.979207 
L 390.982812 -0 
L 0 -0 
z
" style="fill:none;"/>
  </g>
  <g id="axes_1">
   <g id="patch_2">
    <path d="M 48.982813 190.422957 
L 383.782813 190.422957 
L 383.782813 10.431384 
L 48.982813 10.431384 
z
" style="fill:#ffffff;"/>
   </g>
   <g id="matplotlib.axis_1">
    <g id="xtick_1">
     <g id="line2d_1">
      <defs>
       <path d="M 0 0 
L 0 3.5 
" id="m24c110a72f" style="stroke:#000000;stroke-width:0.8;"/>
      </defs>
      <g>
       <use style="stroke:#000000;stroke-width:0.8;" x="64.200994" xlink:href="#m24c110a72f" y="190.422957"/>
      </g>
     </g>
     <g id="text_1">
      <!-- 0 -->
      <g transform="translate(61.019744 205.021394)scale(0.1 -0.1)">
       <defs>
        <path d="M 31.78125 66.40625 
Q 24.171875 66.40625 20.328125 58.90625 
Q 16.5 51.421875 16.5 36.375 
Q 16.5 21.390625 20.328125 13.890625 
Q 24.171875 6.390625 31.78125 6.390625 
Q 39.453125 6.390625 43.28125 13.890625 
Q 47.125 21.390625 47.125 36.375 
Q 47.125 51.421875 43.28125 58.90625 
Q 39.453125 66.40625 31.78125 66.40625 
z
M 31.78125 74.21875 
Q 44.046875 74.21875 50.515625 64.515625 
Q 56.984375 54.828125 56.984375 36.375 
Q 56.984375 17.96875 50.515625 8.265625 
Q 44.046875 -1.421875 31.78125 -1.421875 
Q 19.53125 -1.421875 13.0625 8.265625 
Q 6.59375 17.96875 6.59375 36.375 
Q 6.59375 54.828125 13.0625 64.515625 
Q 19.53125 74.21875 31.78125 74.21875 
z
" id="DejaVuSans-48"/>
       </defs>
       <use xlink:href="#DejaVuSans-48"/>
      </g>
     </g>
    </g>
    <g id="xtick_2">
     <g id="line2d_2">
      <g>
       <use style="stroke:#000000;stroke-width:0.8;" x="115.354547" xlink:href="#m24c110a72f" y="190.422957"/>
      </g>
     </g>
     <g id="text_2">
      <!-- 20 -->
      <g transform="translate(108.992047 205.021394)scale(0.1 -0.1)">
       <defs>
        <path d="M 19.1875 8.296875 
L 53.609375 8.296875 
L 53.609375 0 
L 7.328125 0 
L 7.328125 8.296875 
Q 12.9375 14.109375 22.625 23.890625 
Q 32.328125 33.6875 34.8125 36.53125 
Q 39.546875 41.84375 41.421875 45.53125 
Q 43.3125 49.21875 43.3125 52.78125 
Q 43.3125 58.59375 39.234375 62.25 
Q 35.15625 65.921875 28.609375 65.921875 
Q 23.96875 65.921875 18.8125 64.3125 
Q 13.671875 62.703125 7.8125 59.421875 
L 7.8125 69.390625 
Q 13.765625 71.78125 18.9375 73 
Q 24.125 74.21875 28.421875 74.21875 
Q 39.75 74.21875 46.484375 68.546875 
Q 53.21875 62.890625 53.21875 53.421875 
Q 53.21875 48.921875 51.53125 44.890625 
Q 49.859375 40.875 45.40625 35.40625 
Q 44.1875 33.984375 37.640625 27.21875 
Q 31.109375 20.453125 19.1875 8.296875 
z
" id="DejaVuSans-50"/>
       </defs>
       <use xlink:href="#DejaVuSans-50"/>
       <use x="63.623047" xlink:href="#DejaVuSans-48"/>
      </g>
     </g>
    </g>
    <g id="xtick_3">
     <g id="line2d_3">
      <g>
       <use style="stroke:#000000;stroke-width:0.8;" x="166.508099" xlink:href="#m24c110a72f" y="190.422957"/>
      </g>
     </g>
     <g id="text_3">
      <!-- 40 -->
      <g transform="translate(160.145599 205.021394)scale(0.1 -0.1)">
       <defs>
        <path d="M 37.796875 64.3125 
L 12.890625 25.390625 
L 37.796875 25.390625 
z
M 35.203125 72.90625 
L 47.609375 72.90625 
L 47.609375 25.390625 
L 58.015625 25.390625 
L 58.015625 17.1875 
L 47.609375 17.1875 
L 47.609375 0 
L 37.796875 0 
L 37.796875 17.1875 
L 4.890625 17.1875 
L 4.890625 26.703125 
z
" id="DejaVuSans-52"/>
       </defs>
       <use xlink:href="#DejaVuSans-52"/>
       <use x="63.623047" xlink:href="#DejaVuSans-48"/>
      </g>
     </g>
    </g>
    <g id="xtick_4">
     <g id="line2d_4">
      <g>
       <use style="stroke:#000000;stroke-width:0.8;" x="217.661651" xlink:href="#m24c110a72f" y="190.422957"/>
      </g>
     </g>
     <g id="text_4">
      <!-- 60 -->
      <g transform="translate(211.299151 205.021394)scale(0.1 -0.1)">
       <defs>
        <path d="M 33.015625 40.375 
Q 26.375 40.375 22.484375 35.828125 
Q 18.609375 31.296875 18.609375 23.390625 
Q 18.609375 15.53125 22.484375 10.953125 
Q 26.375 6.390625 33.015625 6.390625 
Q 39.65625 6.390625 43.53125 10.953125 
Q 47.40625 15.53125 47.40625 23.390625 
Q 47.40625 31.296875 43.53125 35.828125 
Q 39.65625 40.375 33.015625 40.375 
z
M 52.59375 71.296875 
L 52.59375 62.3125 
Q 48.875 64.0625 45.09375 64.984375 
Q 41.3125 65.921875 37.59375 65.921875 
Q 27.828125 65.921875 22.671875 59.328125 
Q 17.53125 52.734375 16.796875 39.40625 
Q 19.671875 43.65625 24.015625 45.921875 
Q 28.375 48.1875 33.59375 48.1875 
Q 44.578125 48.1875 50.953125 41.515625 
Q 57.328125 34.859375 57.328125 23.390625 
Q 57.328125 12.15625 50.6875 5.359375 
Q 44.046875 -1.421875 33.015625 -1.421875 
Q 20.359375 -1.421875 13.671875 8.265625 
Q 6.984375 17.96875 6.984375 36.375 
Q 6.984375 53.65625 15.1875 63.9375 
Q 23.390625 74.21875 37.203125 74.21875 
Q 40.921875 74.21875 44.703125 73.484375 
Q 48.484375 72.75 52.59375 71.296875 
z
" id="DejaVuSans-54"/>
       </defs>
       <use xlink:href="#DejaVuSans-54"/>
       <use x="63.623047" xlink:href="#DejaVuSans-48"/>
      </g>
     </g>
    </g>
    <g id="xtick_5">
     <g id="line2d_5">
      <g>
       <use style="stroke:#000000;stroke-width:0.8;" x="268.815204" xlink:href="#m24c110a72f" y="190.422957"/>
      </g>
     </g>
     <g id="text_5">
      <!-- 80 -->
      <g transform="translate(262.452704 205.021394)scale(0.1 -0.1)">
       <defs>
        <path d="M 31.78125 34.625 
Q 24.75 34.625 20.71875 30.859375 
Q 16.703125 27.09375 16.703125 20.515625 
Q 16.703125 13.921875 20.71875 10.15625 
Q 24.75 6.390625 31.78125 6.390625 
Q 38.8125 6.390625 42.859375 10.171875 
Q 46.921875 13.96875 46.921875 20.515625 
Q 46.921875 27.09375 42.890625 30.859375 
Q 38.875 34.625 31.78125 34.625 
z
M 21.921875 38.8125 
Q 15.578125 40.375 12.03125 44.71875 
Q 8.5 49.078125 8.5 55.328125 
Q 8.5 64.0625 14.71875 69.140625 
Q 20.953125 74.21875 31.78125 74.21875 
Q 42.671875 74.21875 48.875 69.140625 
Q 55.078125 64.0625 55.078125 55.328125 
Q 55.078125 49.078125 51.53125 44.71875 
Q 48 40.375 41.703125 38.8125 
Q 48.828125 37.15625 52.796875 32.3125 
Q 56.78125 27.484375 56.78125 20.515625 
Q 56.78125 9.90625 50.3125 4.234375 
Q 43.84375 -1.421875 31.78125 -1.421875 
Q 19.734375 -1.421875 13.25 4.234375 
Q 6.78125 9.90625 6.78125 20.515625 
Q 6.78125 27.484375 10.78125 32.3125 
Q 14.796875 37.15625 21.921875 38.8125 
z
M 18.3125 54.390625 
Q 18.3125 48.734375 21.84375 45.5625 
Q 25.390625 42.390625 31.78125 42.390625 
Q 38.140625 42.390625 41.71875 45.5625 
Q 45.3125 48.734375 45.3125 54.390625 
Q 45.3125 60.0625 41.71875 63.234375 
Q 38.140625 66.40625 31.78125 66.40625 
Q 25.390625 66.40625 21.84375 63.234375 
Q 18.3125 60.0625 18.3125 54.390625 
z
" id="DejaVuSans-56"/>
       </defs>
       <use xlink:href="#DejaVuSans-56"/>
       <use x="63.623047" xlink:href="#DejaVuSans-48"/>
      </g>
     </g>
    </g>
    <g id="xtick_6">
     <g id="line2d_6">
      <g>
       <use style="stroke:#000000;stroke-width:0.8;" x="319.968756" xlink:href="#m24c110a72f" y="190.422957"/>
      </g>
     </g>
     <g id="text_6">
      <!-- 100 -->
      <g transform="translate(310.425006 205.021394)scale(0.1 -0.1)">
       <defs>
        <path d="M 12.40625 8.296875 
L 28.515625 8.296875 
L 28.515625 63.921875 
L 10.984375 60.40625 
L 10.984375 69.390625 
L 28.421875 72.90625 
L 38.28125 72.90625 
L 38.28125 8.296875 
L 54.390625 8.296875 
L 54.390625 0 
L 12.40625 0 
z
" id="DejaVuSans-49"/>
       </defs>
       <use xlink:href="#DejaVuSans-49"/>
       <use x="63.623047" xlink:href="#DejaVuSans-48"/>
       <use x="127.246094" xlink:href="#DejaVuSans-48"/>
      </g>
     </g>
    </g>
    <g id="xtick_7">
     <g id="line2d_7">
      <g>
       <use style="stroke:#000000;stroke-width:0.8;" x="371.122308" xlink:href="#m24c110a72f" y="190.422957"/>
      </g>
     </g>
     <g id="text_7">
      <!-- 120 -->
      <g transform="translate(361.578558 205.021394)scale(0.1 -0.1)">
       <use xlink:href="#DejaVuSans-49"/>
       <use x="63.623047" xlink:href="#DejaVuSans-50"/>
       <use x="127.246094" xlink:href="#DejaVuSans-48"/>
      </g>
     </g>
    </g>
    <g id="text_8">
     <!-- x -->
     <g transform="translate(213.423438 218.699519)scale(0.1 -0.1)">
      <defs>
       <path d="M 54.890625 54.6875 
L 35.109375 28.078125 
L 55.90625 0 
L 45.3125 0 
L 29.390625 21.484375 
L 13.484375 0 
L 2.875 0 
L 24.125 28.609375 
L 4.6875 54.6875 
L 15.28125 54.6875 
L 29.78125 35.203125 
L 44.28125 54.6875 
z
" id="DejaVuSans-120"/>
      </defs>
      <use xlink:href="#DejaVuSans-120"/>
     </g>
    </g>
   </g>
   <g id="matplotlib.axis_2">
    <g id="ytick_1">
     <g id="line2d_8">
      <defs>
       <path d="M 0 0 
L -3.5 0 
" id="mafb57d6b68" style="stroke:#000000;stroke-width:0.8;"/>
      </defs>
      <g>
       <use style="stroke:#000000;stroke-width:0.8;" x="48.982813" xlink:href="#mafb57d6b68" y="190.036652"/>
      </g>
     </g>
     <g id="text_9">
      <!-- −10 -->
      <g transform="translate(20.878125 193.835871)scale(0.1 -0.1)">
       <defs>
        <path d="M 10.59375 35.5 
L 73.1875 35.5 
L 73.1875 27.203125 
L 10.59375 27.203125 
z
" id="DejaVuSans-8722"/>
       </defs>
       <use xlink:href="#DejaVuSans-8722"/>
       <use x="83.789062" xlink:href="#DejaVuSans-49"/>
       <use x="147.412109" xlink:href="#DejaVuSans-48"/>
      </g>
     </g>
    </g>
    <g id="ytick_2">
     <g id="line2d_9">
      <g>
       <use style="stroke:#000000;stroke-width:0.8;" x="48.982813" xlink:href="#mafb57d6b68" y="164.459876"/>
      </g>
     </g>
     <g id="text_10">
      <!-- −5 -->
      <g transform="translate(27.240625 168.259094)scale(0.1 -0.1)">
       <defs>
        <path d="M 10.796875 72.90625 
L 49.515625 72.90625 
L 49.515625 64.59375 
L 19.828125 64.59375 
L 19.828125 46.734375 
Q 21.96875 47.46875 24.109375 47.828125 
Q 26.265625 48.1875 28.421875 48.1875 
Q 40.625 48.1875 47.75 41.5 
Q 54.890625 34.8125 54.890625 23.390625 
Q 54.890625 11.625 47.5625 5.09375 
Q 40.234375 -1.421875 26.90625 -1.421875 
Q 22.3125 -1.421875 17.546875 -0.640625 
Q 12.796875 0.140625 7.71875 1.703125 
L 7.71875 11.625 
Q 12.109375 9.234375 16.796875 8.0625 
Q 21.484375 6.890625 26.703125 6.890625 
Q 35.15625 6.890625 40.078125 11.328125 
Q 45.015625 15.765625 45.015625 23.390625 
Q 45.015625 31 40.078125 35.4375 
Q 35.15625 39.890625 26.703125 39.890625 
Q 22.75 39.890625 18.8125 39.015625 
Q 14.890625 38.140625 10.796875 36.28125 
z
" id="DejaVuSans-53"/>
       </defs>
       <use xlink:href="#DejaVuSans-8722"/>
       <use x="83.789062" xlink:href="#DejaVuSans-53"/>
      </g>
     </g>
    </g>
    <g id="ytick_3">
     <g id="line2d_10">
      <g>
       <use style="stroke:#000000;stroke-width:0.8;" x="48.982813" xlink:href="#mafb57d6b68" y="138.8831"/>
      </g>
     </g>
     <g id="text_11">
      <!-- 0 -->
      <g transform="translate(35.620312 142.682318)scale(0.1 -0.1)">
       <use xlink:href="#DejaVuSans-48"/>
      </g>
     </g>
    </g>
    <g id="ytick_4">
     <g id="line2d_11">
      <g>
       <use style="stroke:#000000;stroke-width:0.8;" x="48.982813" xlink:href="#mafb57d6b68" y="113.306323"/>
      </g>
     </g>
     <g id="text_12">
      <!-- 5 -->
      <g transform="translate(35.620312 117.105542)scale(0.1 -0.1)">
       <use xlink:href="#DejaVuSans-53"/>
      </g>
     </g>
    </g>
    <g id="ytick_5">
     <g id="line2d_12">
      <g>
       <use style="stroke:#000000;stroke-width:0.8;" x="48.982813" xlink:href="#mafb57d6b68" y="87.729547"/>
      </g>
     </g>
     <g id="text_13">
      <!-- 10 -->
      <g transform="translate(29.257812 91.528766)scale(0.1 -0.1)">
       <use xlink:href="#DejaVuSans-49"/>
       <use x="63.623047" xlink:href="#DejaVuSans-48"/>
      </g>
     </g>
    </g>
    <g id="ytick_6">
     <g id="line2d_13">
      <g>
       <use style="stroke:#000000;stroke-width:0.8;" x="48.982813" xlink:href="#mafb57d6b68" y="62.152771"/>
      </g>
     </g>
     <g id="text_14">
      <!-- 15 -->
      <g transform="translate(29.257812 65.95199)scale(0.1 -0.1)">
       <use xlink:href="#DejaVuSans-49"/>
       <use x="63.623047" xlink:href="#DejaVuSans-53"/>
      </g>
     </g>
    </g>
    <g id="ytick_7">
     <g id="line2d_14">
      <g>
       <use style="stroke:#000000;stroke-width:0.8;" x="48.982813" xlink:href="#mafb57d6b68" y="36.575995"/>
      </g>
     </g>
     <g id="text_15">
      <!-- 20 -->
      <g transform="translate(29.257812 40.375214)scale(0.1 -0.1)">
       <use xlink:href="#DejaVuSans-50"/>
       <use x="63.623047" xlink:href="#DejaVuSans-48"/>
      </g>
     </g>
    </g>
    <g id="ytick_8">
     <g id="line2d_15">
      <g>
       <use style="stroke:#000000;stroke-width:0.8;" x="48.982813" xlink:href="#mafb57d6b68" y="10.999219"/>
      </g>
     </g>
     <g id="text_16">
      <!-- 25 -->
      <g transform="translate(29.257812 14.798438)scale(0.1 -0.1)">
       <use xlink:href="#DejaVuSans-50"/>
       <use x="63.623047" xlink:href="#DejaVuSans-53"/>
      </g>
     </g>
    </g>
    <g id="text_17">
     <!-- y -->
     <g transform="translate(14.798438 103.386546)rotate(-90)scale(0.1 -0.1)">
      <defs>
       <path d="M 32.171875 -5.078125 
Q 28.375 -14.84375 24.75 -17.8125 
Q 21.140625 -20.796875 15.09375 -20.796875 
L 7.90625 -20.796875 
L 7.90625 -13.28125 
L 13.1875 -13.28125 
Q 16.890625 -13.28125 18.9375 -11.515625 
Q 21 -9.765625 23.484375 -3.21875 
L 25.09375 0.875 
L 2.984375 54.6875 
L 12.5 54.6875 
L 29.59375 11.921875 
L 46.6875 54.6875 
L 56.203125 54.6875 
z
" id="DejaVuSans-121"/>
      </defs>
      <use xlink:href="#DejaVuSans-121"/>
     </g>
    </g>
   </g>
   <g id="line2d_16">
    <path clip-path="url(#p2cd6d53432)" d="M 64.200994 131.347861 
L 66.758672 131.555692 
L 69.31635 131.775389 
L 71.874027 132.007045 
L 74.431705 132.250526 
L 76.989382 132.50533 
L 79.54706 132.770356 
L 82.104738 133.043565 
L 84.662415 133.32146 
L 87.220093 133.598349 
L 89.77777 133.865326 
L 92.335448 134.1089 
L 94.893126 134.309261 
L 97.450803 134.438177 
L 100.008481 134.456604 
L 102.566159 134.312199 
L 105.123836 133.937039 
L 107.681514 133.246015 
L 110.239191 132.13647 
L 112.796869 130.489775 
L 115.354547 128.175529 
L 117.912224 125.058936 
L 120.469902 121.011644 
L 123.027579 115.925893 
L 125.585257 109.731183 
L 128.142935 102.412069 
L 130.700612 94.025007 
L 133.25829 84.711747 
L 135.815968 74.706628 
L 138.373645 64.33541 
L 140.931323 54.004041 
L 143.489 44.176948 
L 146.046678 35.345943 
L 148.604356 27.992317 
L 151.162033 22.546086 
L 153.719711 19.347087 
L 156.277389 18.612819 
L 158.835066 20.417237 
L 161.392744 24.683339 
L 163.950421 31.19059 
L 166.508099 39.596147 
L 169.065777 49.467031 
L 171.623454 60.319038 
L 174.181132 71.657513 
L 176.738809 83.015264 
L 179.296487 93.98367 
L 181.854165 104.234395 
L 184.411842 113.53063 
L 186.96952 121.72826 
L 189.527198 128.768566 
L 192.084875 134.664805 
L 194.642553 139.485324 
L 197.20023 143.335688 
L 199.757908 146.341872 
L 202.315586 148.635901 
L 204.873263 150.344668 
L 207.430941 151.582053 
L 209.988618 152.44399 
L 212.546296 153.005872 
L 215.103974 153.321551 
L 217.661651 153.423213 
L 220.219329 153.321551 
L 222.777007 153.005872 
L 225.334684 152.44399 
L 227.892362 151.582053 
L 230.450039 150.344668 
L 233.007717 148.635901 
L 235.565395 146.341872 
L 238.123072 143.335688 
L 240.68075 139.485324 
L 243.238427 134.664805 
L 245.796105 128.768566 
L 248.353783 121.72826 
L 250.91146 113.53063 
L 253.469138 104.234395 
L 256.026816 93.98367 
L 258.584493 83.015264 
L 261.142171 71.657513 
L 263.699848 60.319038 
L 266.257526 49.467031 
L 268.815204 39.596147 
L 271.372881 31.19059 
L 273.930559 24.683339 
L 276.488236 20.417237 
L 279.045914 18.612819 
L 281.603592 19.347087 
L 284.161269 22.546086 
L 286.718947 27.992317 
L 289.276625 35.345943 
L 291.834302 44.176948 
L 294.39198 54.004041 
L 296.949657 64.33541 
L 299.507335 74.706628 
L 302.065013 84.711747 
L 304.62269 94.025007 
L 307.180368 102.412069 
L 309.738046 109.731183 
L 312.295723 115.925893 
L 314.853401 121.011644 
L 317.411078 125.058936 
L 319.968756 128.175529 
L 322.526434 130.489775 
L 325.084111 132.13647 
L 327.641789 133.246015 
L 330.199466 133.937039 
L 332.757144 134.312199 
L 335.314822 134.456604 
L 337.872499 134.438177 
L 340.430177 134.309261 
L 342.987855 134.1089 
L 345.545532 133.865326 
L 348.10321 133.598349 
L 350.660887 133.32146 
L 353.218565 133.043565 
L 355.776243 132.770356 
L 358.33392 132.50533 
L 360.891598 132.250526 
L 363.449275 132.007045 
L 366.006953 131.775389 
L 368.564631 131.555692 
" style="fill:none;stroke:#1f77b4;stroke-linecap:square;stroke-width:1.5;"/>
   </g>
   <g id="line2d_17">
    <path clip-path="url(#p2cd6d53432)" d="M 64.200994 118.16139 
L 66.758672 117.396147 
L 69.31635 116.682027 
L 71.874027 116.026964 
L 74.431705 115.439057 
L 76.989382 114.926664 
L 79.54706 114.498554 
L 82.104738 114.164114 
L 84.662415 113.93361 
L 87.220093 113.81851 
L 89.77777 113.831826 
L 92.335448 113.988474 
L 94.893126 114.305582 
L 97.450803 114.802709 
L 100.008481 115.501898 
L 102.566159 116.427477 
L 105.123836 117.605555 
L 107.681514 119.063107 
L 110.239191 120.826632 
L 112.796869 122.920341 
L 115.354547 125.363931 
L 117.912224 128.170005 
L 120.469902 131.341316 
L 123.027579 134.86803 
L 125.585257 138.725271 
L 128.142935 142.871257 
L 130.700612 147.246299 
L 133.25829 151.772948 
L 135.815968 156.357458 
L 138.373645 160.892668 
L 140.931323 165.262247 
L 143.489 169.346105 
L 146.046678 173.026646 
L 148.604356 176.195396 
L 151.162033 178.759486 
L 153.719711 180.64743 
L 156.277389 181.813677 
L 158.835066 182.241522 
L 161.392744 181.944095 
L 163.950421 180.963336 
L 166.508099 179.36705 
L 169.065777 177.24432 
L 171.623454 174.699707 
L 174.181132 171.846746 
L 176.738809 168.801295 
L 179.296487 165.675284 
L 181.854165 162.571289 
L 184.411842 159.578286 
L 186.96952 156.768763 
L 189.527198 154.197242 
L 192.084875 151.900099 
L 194.642553 149.896518 
L 197.20023 148.190276 
L 199.757908 146.77207 
L 202.315586 145.622092 
L 204.873263 144.712567 
L 207.430941 144.010062 
L 209.988618 143.477403 
L 212.546296 143.075142 
L 215.103974 142.762571 
L 217.661651 142.498332 
L 220.219329 142.240741 
L 222.777007 141.947953 
L 225.334684 141.578134 
L 227.892362 141.089786 
L 230.450039 140.442368 
L 233.007717 139.59732 
L 235.565395 138.519545 
L 238.123072 137.179347 
L 240.68075 135.554763 
L 243.238427 133.634125 
L 245.796105 131.418666 
L 248.353783 128.924881 
L 250.91146 126.186354 
L 253.469138 123.254745 
L 256.026816 120.199661 
L 258.584493 117.107224 
L 261.142171 114.077232 
L 263.699848 111.218963 
L 266.257526 108.645809 
L 268.815204 106.469065 
L 271.372881 104.791342 
L 273.930559 103.700109 
L 276.488236 103.261938 
L 279.045914 103.517965 
L 281.603592 104.480979 
L 284.161269 106.134431 
L 286.718947 108.433448 
L 289.276625 111.307758 
L 291.834302 114.666249 
L 294.39198 118.402742 
L 296.949657 122.402463 
L 299.507335 126.548641 
L 302.065013 130.728728 
L 304.62269 134.839764 
L 307.180368 138.792558 
L 309.738046 142.514509 
L 312.295723 145.950993 
L 314.853401 149.065425 
L 317.411078 151.838173 
L 319.968756 154.264598 
L 322.526434 156.352513 
L 325.084111 158.119346 
L 327.641789 159.589295 
L 330.199466 160.790667 
L 332.757144 161.753565 
L 335.314822 162.508012 
L 337.872499 163.08254 
L 340.430177 163.503236 
L 342.987855 163.793195 
L 345.545532 163.972299 
L 348.10321 164.057269 
L 350.660887 164.061878 
L 353.218565 163.997298 
L 355.776243 163.872475 
L 358.33392 163.694537 
L 360.891598 163.469164 
L 363.449275 163.200926 
L 366.006953 162.893567 
L 368.564631 162.550241 
" style="fill:none;stroke:#ff7f0e;stroke-linecap:square;stroke-width:1.5;"/>
   </g>
   <g id="patch_3">
    <path d="M 48.982813 190.422957 
L 48.982813 10.431384 
" style="fill:none;stroke:#000000;stroke-linecap:square;stroke-linejoin:miter;stroke-width:0.8;"/>
   </g>
   <g id="patch_4">
    <path d="M 383.782813 190.422957 
L 383.782813 10.431384 
" style="fill:none;stroke:#000000;stroke-linecap:square;stroke-linejoin:miter;stroke-width:0.8;"/>
   </g>
   <g id="patch_5">
    <path d="M 48.982812 190.422957 
L 383.782812 190.422957 
" style="fill:none;stroke:#000000;stroke-linecap:square;stroke-linejoin:miter;stroke-width:0.8;"/>
   </g>
   <g id="patch_6">
    <path d="M 48.982812 10.431384 
L 383.782812 10.431384 
" style="fill:none;stroke:#000000;stroke-linecap:square;stroke-linejoin:miter;stroke-width:0.8;"/>
   </g>
   <g id="legend_1">
    <g id="patch_7">
     <path d="M 327.945312 48.343884 
L 376.782812 48.343884 
Q 378.782812 48.343884 378.782812 46.343884 
L 378.782812 17.431384 
Q 378.782812 15.431384 376.782812 15.431384 
L 327.945312 15.431384 
Q 325.945312 15.431384 325.945312 17.431384 
L 325.945312 46.343884 
Q 325.945312 48.343884 327.945312 48.343884 
z
" style="fill:#ffffff;opacity:0.8;stroke:#cccccc;stroke-linejoin:miter;"/>
    </g>
    <g id="line2d_18">
     <path d="M 329.945312 23.529822 
L 349.945312 23.529822 
" style="fill:none;stroke:#1f77b4;stroke-linecap:square;stroke-width:1.5;"/>
    </g>
    <g id="line2d_19"/>
    <g id="text_18">
     <!-- v_y -->
     <g transform="translate(357.945312 27.029822)scale(0.1 -0.1)">
      <defs>
       <path d="M 2.984375 54.6875 
L 12.5 54.6875 
L 29.59375 8.796875 
L 46.6875 54.6875 
L 56.203125 54.6875 
L 35.6875 0 
L 23.484375 0 
z
" id="DejaVuSans-118"/>
       <path d="M 50.984375 -16.609375 
L 50.984375 -23.578125 
L -0.984375 -23.578125 
L -0.984375 -16.609375 
z
" id="DejaVuSans-95"/>
      </defs>
      <use xlink:href="#DejaVuSans-118"/>
      <use x="59.179688" xlink:href="#DejaVuSans-95"/>
      <use x="109.179688" xlink:href="#DejaVuSans-121"/>
     </g>
    </g>
    <g id="line2d_20">
     <path d="M 329.945312 38.486072 
L 349.945312 38.486072 
" style="fill:none;stroke:#ff7f0e;stroke-linecap:square;stroke-width:1.5;"/>
    </g>
    <g id="line2d_21"/>
    <g id="text_19">
     <!-- v_x -->
     <g transform="translate(357.945312 41.986072)scale(0.1 -0.1)">
      <use xlink:href="#DejaVuSans-118"/>
      <use x="59.179688" xlink:href="#DejaVuSans-95"/>
      <use x="109.179688" xlink:href="#DejaVuSans-120"/>
     </g>
    </g>
   </g>
  </g>
 </g>
 <defs>
  <clipPath id="p2cd6d53432">
   <rect height="179.991572" width="334.8" x="48.982813" y="10.431384"/>
  </clipPath>
 </defs>
</svg>
